<?xml version="1.0" standalone="no"?>
<!DOCTYPE svg PUBLIC "-//W3C//DTD SVG 1.1//EN" "http://www.w3.org/Graphics/SVG/1.1/DTD/svg11.dtd" >
<svg xmlns="http://www.w3.org/2000/svg" xmlns:xlink="http://www.w3.org/1999/xlink" version="1.1">
<metadata>
Created by FontForge 20161013 at Mon Mar 21 16:15:08 2011
 By ,,,
Copyright (c) 2008 Adobe Systems Incorporated. All rights reserved.
</metadata>
<defs>
<font id="AdobeClean-Bold" horiz-adv-x="391" >
  <font-face 
    font-family="Adobe Clean"
    font-weight="700"
    font-stretch="normal"
    units-per-em="1000"
    panose-1="2 11 8 3 2 4 4 2 2 4"
    ascent="800"
    descent="-200"
    x-height="486"
    cap-height="652"
    bbox="-180.45 -241 1224.4 948"
    underline-thickness="50"
    underline-position="-200"
    unicode-range="U+0020-FB05"
  />
<missing-glyph horiz-adv-x="500" 
d="M0 0v700h500v-700h-500zM80 50h340l-170 255zM279 350l171 -255v510zM50 605v-510l170 255zM80 650l170 -255l170 255h-340z" />
    <glyph glyph-name="f_f" unicode="ff" horiz-adv-x="581" 
d="M196 486h178v17q0 103 49 159t130 56q44 0 62 -9q5 -2 5 -8v-84q0 -4 -1.5 -6t-4.5 -1q-20 8 -43 8q-76 0 -76 -115v-17h89q7 0 7 -8v-74q0 -8 -7 -8l-89 -1v-386q0 -9 -9 -9h-104q-8 0 -8 8v387h-178v-386q0 -9 -8 -9h-104q-8 0 -8 9v387l-62 2q-5 0 -5 6v75q0 7 6 7h61
v20q0 100 49 156t126 56q35 0 50 -7q6 -3 6 -10v-82q0 -7 -7 -6q-15 5 -33 5q-71 0 -71 -113v-19z" />
    <glyph glyph-name="f_f_i" unicode="ffi" horiz-adv-x="850" 
d="M196 486h181v17q0 106 47 160.5t123 54.5q27 0 40 -5q5 -2 5 -8v-83q0 -3 -1 -5t-4 -1q-18 3 -26 3q-63 0 -63 -110v-23h83q7 0 7 -7v-74q0 -8 -7 -8l-83 -2v-386q0 -9 -8 -9h-104q-9 0 -9 8v387h-181v-386q0 -9 -8 -9h-104q-8 0 -8 9v387l-62 2q-5 0 -5 6v75q0 7 6 7h61
v20q0 100 49 156t126 56q35 0 50 -7q6 -3 6 -10v-81q0 -7 -7 -6q-15 5 -33 5q-71 0 -71 -110v-23zM723 551q-30 0 -48 17t-18 45t19 45.5t49 17.5t48 -17.5t18 -45.5t-18.5 -45t-49.5 -17zM663 8v470q0 7 8 7h105q8 0 8 -7v-470q0 -9 -8 -9h-104q-9 0 -9 9z" />
    <glyph glyph-name="f_f_l" unicode="ffl" horiz-adv-x="875" 
d="M188 0h-104q-8 0 -8 9v387l-62 2q-5 0 -5 6v75q0 7 6 7h61v20q0 100 49 156t126 56q35 0 50 -7q6 -3 6 -10v-81q0 -7 -7 -6q-15 5 -33 5q-71 0 -71 -110v-23h181v21q0 106 47 158.5t123 52.5q27 0 40 -5q5 -2 5 -8v-83q0 -3 -1 -5t-4 -1q-18 3 -26 3q-63 0 -63 -110v-23
h83q7 0 7 -7v-74q0 -8 -7 -8l-83 -2v-386q0 -9 -8 -9h-104q-9 0 -9 8v387h-181v-386q0 -9 -8 -9zM672 113v588q0 8 8 8h104q8 0 8 -8v-582q0 -38 31 -38q7 0 23 2q2 1 3.5 -0.5t1.5 -4.5v-67q0 -9 -7 -11q-22 -10 -63 -10q-53 0 -81 27.5t-28 95.5z" />
    <glyph glyph-name="longs_t" unicode="&#x17f;t" horiz-adv-x="613" 
d="M196 517v-508q0 -9 -8 -9h-104q-8 0 -8 9v386l-61 1q-6 1 -6 8v75q0 7 6 7h61v29q0 95 46.5 149t121.5 54q35 0 53 -8q6 -2 6 -9v-84q0 -6 -7 -5q-15 5 -36 5q-64 0 -64 -100zM590 84v-66q0 -9 -6 -11q-35 -17 -90 -17q-131 0 -131 139v266l-62 2q-6 1 -6 9v72q0 8 7 8
h62q2 87 11 125q2 7 7 8l101 19q8 2 8 -5q-6 -66 -6 -147h101q7 0 7 -7v-74q0 -7 -6 -8l-103 -2v-245q0 -35 13 -51t44 -16q18 0 43 7q3 1 4.5 -0.5t1.5 -5.5z" />
    <glyph glyph-name="T_h" unicode="Th" horiz-adv-x="1043" 
d="M328 0h-103q-4 -1 -6.5 1.5t-2.5 7.5v546h-204q-8 0 -6 10l13 80q2 7 9 7h521v48q0 9 9 9h102q9 0 10 -9v-250q70 46 144 46q70 0 116 -48t46 -150v-290q0 -8 -8 -8h-104q-9 0 -9 8v288q0 101 -84 101q-54 0 -101 -38v-349q0 -10 -11 -10h-101q-9 0 -9 10v545h-212v-545
q0 -9 -9 -10z" />
    <glyph glyph-name="Tcaron_h" unicode="&#x164;h" horiz-adv-x="1043" 
d="M328 0h-103q-4 -1 -6.5 1.5t-2.5 7.5v546h-204q-8 0 -6 10l13 80q2 7 9 7h521v48q0 9 9 9h102q9 0 10 -9v-250q70 46 144 46q70 0 116 -48t46 -150v-290q0 -8 -8 -8h-104q-9 0 -9 8v288q0 101 -84 101q-54 0 -101 -38v-349q0 -10 -11 -10h-101q-9 0 -9 10v545h-212v-545
q0 -9 -9 -10zM213 822l63 -65l62 65q6 6 11 6h89q4 0 4.5 -3.5t-1.5 -5.5l-112 -116q-4 -4 -10 -4h-90q-9 0 -12 5l-116 117q-2 2 -1 4.5t4 2.5h97q6 0 12 -6z" />
    <glyph glyph-name="uni021A_h" unicode="&#x21a;h" horiz-adv-x="1043" 
d="M328 0h-103q-4 -1 -6.5 1.5t-2.5 7.5v546h-204q-8 0 -6 10l13 80q2 7 9 7h521v48q0 9 9 9h102q9 0 10 -9v-250q70 46 144 46q70 0 116 -48t46 -150v-290q0 -8 -8 -8h-104q-9 0 -9 8v288q0 101 -84 101q-54 0 -101 -38v-349q0 -10 -11 -10h-101q-9 0 -9 10v545h-212v-545
q0 -9 -9 -10zM291 -224h-92q-9 0 -4 7q37 55 37 110q0 23 -15 63q-4 6 4 6h100q6 0 9 -6q16 -24 16 -57q0 -66 -45 -120q-3 -3 -10 -3z" />
    <glyph glyph-name="f_b" unicode="fb" horiz-adv-x="875" 
d="M76 395l-61 2q-6 1 -6 8v74q0 7 6 7h61v28q0 96 47 150t119 54q40 0 55 -7q6 -3 6 -10v-82q0 -3 -2 -5.5t-5 -1.5q-15 5 -33 5q-29 0 -48 -24t-19 -78v-29h86q8 0 8 -7v-74q0 -8 -8 -8l-86 -3v-385q0 -9 -8 -9h-104q-8 0 -8 9v386zM381 709h106q8 0 8 -7v-228
q56 22 110 22q102 0 162.5 -65t60.5 -164q0 -126 -85.5 -201t-208.5 -75q-82 0 -154 21q-6 3 -6 10v680q0 7 7 7zM704 253q0 71 -35 108.5t-94 37.5q-49 0 -80 -17v-293q19 -6 54 -6q61 0 108 44.5t47 125.5z" />
    <glyph glyph-name="f_h" unicode="fh" horiz-adv-x="863" 
d="M76 395l-61 2q-6 1 -6 8v74q0 7 6 7h61v28q0 96 47 150t119 54q40 0 55 -7q6 -3 6 -10v-81q0 -4 -1.5 -6t-5.5 -1q-15 5 -33 5q-29 0 -48 -24t-19 -78v-30h86q8 0 8 -7v-74q0 -8 -8 -8l-86 -3v-385q0 -9 -8 -9h-104q-8 0 -8 9v386zM370 8v694q0 7 7 7h107q6 0 6 -7v-252
q64 46 140 46q71 0 119 -47.5t48 -156.5v-284q0 -8 -8 -8h-105q-8 0 -8 8v288q0 101 -86 101q-52 0 -100 -38v-352q0 -7 -7 -7h-106q-7 0 -7 8z" />
    <glyph glyph-name="f_i" unicode="fi" horiz-adv-x="543" 
d="M188 0h-104q-8 0 -8 9v387l-61 2q-6 1 -6 8v73q0 7 6 7h62q9 117 72.5 174.5t166.5 57.5q82 0 123 -23q5 -3 5 -11v-87q0 -9 -7 -6q-55 30 -118 30q-116 0 -121 -135h271q7 0 7 -8v-469q0 -9 -8 -9h-103q-9 0 -9 9v386h-160v-386q0 -9 -8 -9z" />
    <glyph glyph-name="f_j" unicode="fj" horiz-adv-x="545" 
d="M359 -26v421h-163v-386q0 -9 -8 -9h-104q-8 0 -8 9v387l-61 2q-6 0 -6 8v73q0 7 6 7h62q9 117 73 174.5t167 57.5q81 0 124 -23q5 -4 5 -11v-86q0 -9 -7 -6q-55 30 -119 30q-51 0 -84.5 -28.5t-37.5 -107.5h274q8 0 8 -8v-431q0 -100 -10.5 -148t-35.5 -79
q-41 -49 -120 -49q-31 0 -41 3q-8 3 -8 10l1 75q0 8 7 8q50 -2 68 20t18 87z" />
    <glyph glyph-name="f_k" unicode="fk" horiz-adv-x="831" 
d="M76 395l-61 2q-6 1 -6 8v74q0 7 6 7h61v28q0 96 47 150t119 54q40 0 55 -7q6 -3 6 -10v-81q0 -4 -1.5 -6t-5.5 -1q-15 5 -33 5q-29 0 -48 -24t-19 -78v-30h86q8 0 8 -7v-74q0 -8 -8 -8l-86 -3v-385q0 -9 -8 -9h-104q-8 0 -8 9v386zM370 702q0 7 8 7h105q7 0 7 -7v-408h39
q11 0 17 6q13 20 60.5 89t62.5 91q5 6 11 6h109q11 0 5 -10q-28 -45 -163 -215q-3 -5 0 -9q34 -40 101.5 -123t98.5 -120q1 -2 1 -4t-1.5 -3.5t-4.5 -1.5h-134q-8 0 -12 6q-21 28 -67 89.5t-71 95.5q-7 8 -17 8h-35v-190q0 -9 -7 -9h-105q-8 0 -8 9v693z" />
    <glyph glyph-name="f_l" unicode="fl" horiz-adv-x="574" 
d="M76 395l-61 2q-6 1 -6 8v74q0 7 6 7h61v28q0 96 47 150t119 54q40 0 55 -7q6 -3 6 -10v-81q0 -9 -7 -6q-12 4 -33 4q-29 0 -48 -24t-19 -77v-31h86q8 0 8 -7v-74q0 -8 -8 -8l-86 -3v-385q0 -9 -8 -9h-104q-8 0 -8 9v386zM370 113v588q0 8 8 8h104q9 0 9 -8v-582
q0 -38 30 -38q7 0 23 2q3 1 4 -0.5t1 -4.5v-67q0 -9 -6 -11q-22 -10 -64 -10q-53 0 -81 27.5t-28 95.5z" />
    <glyph glyph-name="f_t" unicode="ft" horiz-adv-x="621" 
d="M371 129v266h-175v-386q0 -9 -9 -9h-103q-8 0 -8 9v387l-61 1q-6 1 -6 8v74q0 7 7 7h60v21q0 101 49 156t129 55q39 0 59 -9q5 -3 5 -9v-84q0 -6 -6 -5q-20 6 -39 6q-77 0 -77 -107v-24h176q5 99 11 125q2 7 7 8l101 19q8 2 8 -5q-6 -66 -6 -147h101q7 0 7 -7v-76
q0 -7 -6 -7l-103 -3v-237q0 -36 13.5 -51.5t45.5 -15.5q19 0 41 5q3 1 4.5 -0.5t1.5 -5.5v-69q0 -9 -7 -12q-32 -17 -89 -17q-131 0 -131 139z" />
    <glyph glyph-name="f_f_b" unicode="ffb" horiz-adv-x="1180" 
d="M196 486h181v16q0 107 47 161.5t123 54.5q27 0 40 -5q5 -2 5 -8v-83q0 -4 -1 -6t-4 -1q-9 3 -26 3q-63 0 -63 -109v-23h83q7 0 7 -7v-74q0 -8 -7 -8l-83 -2v-386q0 -9 -8 -9h-104q-9 0 -9 8v387h-181v-386q0 -9 -8 -9h-104q-8 0 -8 9v387l-62 2q-5 0 -5 6v75q0 7 6 7h61
v20q0 100 49 156t126 56q35 0 50 -7q6 -3 6 -10v-82q0 -6 -7 -5q-12 4 -33 4q-71 0 -71 -110v-22zM687 709h105q8 0 8 -7v-228q56 22 111 22q102 0 162 -65t60 -164q0 -126 -85.5 -201t-208.5 -75q-82 0 -154 21q-6 3 -6 10v680q0 7 8 7zM1010 253q0 71 -35.5 108.5
t-94.5 37.5q-49 0 -80 -17v-293q19 -6 55 -6q61 0 108 44.5t47 125.5z" />
    <glyph glyph-name="f_f_h" unicode="ffh" horiz-adv-x="1167" 
d="M196 486h181v21q0 106 47 158.5t123 52.5q27 0 40 -5q5 -2 5 -8v-83q0 -3 -1 -5t-4 -1q-18 3 -26 3q-63 0 -63 -110v-23h83q7 0 7 -7v-74q0 -8 -7 -8l-83 -2v-386q0 -9 -8 -9h-104q-9 0 -9 8v387h-181v-386q0 -9 -8 -9h-104q-8 0 -8 9v387l-62 2q-5 0 -5 6v75q0 7 6 7h61
v20q0 100 49 156t126 56q35 0 50 -7q6 -3 6 -10v-81q0 -7 -7 -6q-15 5 -33 5q-71 0 -71 -110v-23zM674 8v694q0 7 7 7h107q7 0 7 -7v-252q64 46 139 46q71 0 119 -47.5t48 -156.5v-284q0 -8 -8 -8h-104q-9 0 -9 8v288q0 101 -86 101q-52 0 -99 -38v-352q0 -7 -7 -7h-107
q-7 0 -7 8z" />
    <glyph glyph-name="f_f_j" unicode="ffj" horiz-adv-x="851" 
d="M196 486h181v16q0 107 47 161.5t123 54.5q27 0 40 -5q5 -2 5 -8v-83q0 -3 -1 -5t-4 -1q-18 3 -26 3q-63 0 -63 -115v-18h83q7 0 7 -7v-74q0 -8 -7 -8l-83 -2v-386q0 -9 -8 -9h-104q-9 0 -9 8v387h-181v-386q0 -9 -8 -9h-104q-8 0 -8 9v387l-62 2q-5 0 -5 6v75q0 7 6 7h61
v20q0 100 49 156t126 56q35 0 50 -7q6 -3 6 -10v-81q0 -7 -7 -6q-15 5 -33 5q-71 0 -71 -114v-19zM664 -25v503q0 8 9 8h104q8 0 8 -8v-431q0 -100 -10.5 -148t-35.5 -79q-41 -49 -120 -49q-31 0 -41 3q-8 3 -8 10v76q0 8 7 8q51 -2 69 20.5t18 86.5zM725 552q-30 0 -48 17
t-18 45t19 45t48 17q30 0 48 -17t18 -45t-18 -45t-49 -17z" />
    <glyph glyph-name="f_f_k" unicode="ffk" horiz-adv-x="1128" 
d="M196 486h181v18q0 106 47 160t123 54q27 0 40 -5q5 -2 5 -8v-83q0 -3 -1 -5t-4 -1q-18 3 -26 3q-63 0 -63 -110v-23h83q7 0 7 -7v-74q0 -8 -7 -8l-83 -2v-386q0 -9 -8 -9h-104q-9 0 -9 8v387h-181v-386q0 -9 -8 -9h-104q-8 0 -8 9v387l-62 2q-5 0 -5 6v75q0 7 6 7h61v20
q0 100 49 156t126 56q35 0 50 -7q6 -3 6 -10v-81q0 -7 -7 -6q-15 5 -33 5q-71 0 -71 -110v-23zM666 702q0 7 8 7h105q8 0 8 -7v-408h39q11 0 16 6q6 9 56.5 81.5t67.5 98.5q4 6 11 6h109q10 0 4 -10q-16 -27 -162 -215q-4 -5 0 -9q34 -40 101.5 -123t98.5 -120q4 -9 -5 -9
h-134q-9 0 -13 6q-21 28 -67 89.5t-71 95.5q-6 8 -16 8h-35v-190q0 -9 -8 -9h-104q-9 0 -9 9v693z" />
    <glyph glyph-name="f_f_t" unicode="fft" horiz-adv-x="914" 
d="M552 718q44 0 61 -9q6 -1 6 -8v-83q0 -3 -1.5 -5t-4.5 -1q-17 7 -43 7q-76 0 -76 -112v-21h171q4 89 11 125q2 6 8 8l101 19q8 2 8 -5q-5 -56 -7 -147h103q7 0 7 -7v-75q0 -8 -7 -8l-103 -3v-243q0 -36 13 -51.5t46 -15.5q11 0 41 6q3 1 4.5 -0.5t1.5 -5.5v-65
q0 -8 -7 -12q-33 -16 -90 -16q-130 0 -130 139v266h-171v-386q0 -9 -9 -9h-104q-8 0 -8 8v387h-177v-386q0 -9 -8 -9h-104q-8 0 -8 9v387l-62 1q-5 1 -5 7v75q0 7 6 7h61v20q0 100 49 156t126 56q35 0 50 -7q6 -3 6 -10v-81q0 -7 -7 -6q-15 5 -33 5q-71 0 -71 -110v-23h177
v16q0 103 49 159.5t130 56.5z" />
    <glyph glyph-name="longs_b" unicode="&#x17f;b" horiz-adv-x="868" 
d="M196 517v-508q0 -9 -8 -9h-104q-8 0 -8 9v385l-61 2q-6 1 -6 8v75q0 7 6 7h61v29q0 95 46.5 149t121.5 54q35 0 53 -8q6 -2 6 -9v-84q0 -6 -7 -5q-15 5 -36 5q-64 0 -64 -100zM374 709h106q8 0 8 -7v-228q56 22 111 22q102 0 162 -65t60 -164q0 -126 -85.5 -201
t-208.5 -75q-82 0 -154 21q-6 3 -6 10v680q0 7 7 7zM698 253q0 71 -35.5 108.5t-94.5 37.5q-49 0 -80 -17v-293q19 -6 55 -6q61 0 108 44.5t47 125.5z" />
    <glyph glyph-name="longs_h" unicode="&#x17f;h" horiz-adv-x="851" 
d="M196 517v-508q0 -9 -8 -9h-104q-8 0 -8 9v385l-61 2q-6 1 -6 8v75q0 7 6 7h61v29q0 95 46.5 149t121.5 54q35 0 53 -8q6 -2 6 -9v-84q0 -6 -7 -5q-15 5 -36 5q-64 0 -64 -100zM357 8v694q0 7 8 7h106q7 0 7 -7v-252q64 46 139 46q71 0 119.5 -47.5t48.5 -156.5v-284
q0 -8 -8 -8h-105q-8 0 -8 8v288q0 101 -86 101q-52 0 -100 -38v-352q0 -7 -7 -7h-106q-8 0 -8 8z" />
    <glyph glyph-name="longs_i" unicode="&#x17f;i" horiz-adv-x="536" 
d="M196 517v-508q0 -9 -8 -9h-104q-8 0 -8 9v385l-61 2q-6 1 -6 8v75q0 7 6 7h61v29q0 95 46.5 149t121.5 54q35 0 53 -8q6 -2 6 -9v-84q0 -6 -7 -5q-15 5 -36 5q-64 0 -64 -100zM409 552q-30 0 -48.5 17t-18.5 45q0 27 19 44.5t49 17.5t48 -17t18 -45t-18.5 -45t-48.5 -17z
M349 9v469q0 8 7 8h106q8 0 8 -8v-470q0 -8 -9 -8h-103q-9 0 -9 9z" />
    <glyph glyph-name="longs_k" unicode="&#x17f;k" horiz-adv-x="822" 
d="M196 517v-508q0 -9 -8 -9h-104q-8 0 -8 9v385l-61 2q-6 1 -6 8v75q0 7 6 7h61v29q0 95 46.5 149t121.5 54q35 0 53 -8q6 -2 6 -9v-84q0 -6 -7 -5q-15 5 -36 5q-64 0 -64 -100zM361 702q0 7 8 7h105q7 0 7 -7v-408h39q12 0 17 6q16 24 65.5 95.5l58.5 84.5q4 6 10 6h110
q10 0 4 -10q-28 -45 -163 -215q-3 -5 0 -9q30 -35 98 -118t103 -125q2 -3 0 -6t-6 -3h-134q-7 0 -12 6q-21 28 -67 89.5t-71 95.5q-7 8 -17 8h-35v-190q0 -9 -7 -9h-105q-8 0 -8 9v693z" />
    <glyph glyph-name="longs_l" unicode="&#x17f;l" horiz-adv-x="564" 
d="M196 517v-508q0 -9 -8 -9h-104q-8 0 -8 9v385l-61 2q-6 1 -6 8v75q0 7 6 7h61v29q0 95 46.5 149t121.5 54q35 0 53 -8q6 -2 6 -9v-84q0 -6 -7 -5q-15 5 -36 5q-64 0 -64 -100zM361 113v588q0 8 8 8h104q8 0 8 -8v-582q0 -38 31 -38q7 0 23 2q3 1 4 -0.5t1 -4.5v-67
q0 -9 -7 -11q-22 -10 -63 -10q-53 0 -81 27.5t-28 95.5z" />
    <glyph glyph-name="longs_longs_b" unicode="&#x17f;&#x17f;b" horiz-adv-x="1159" 
d="M492 512v-503q0 -9 -8 -9h-104q-8 0 -8 9v382l-61 2q-6 0 -6 8v78q0 7 6 7h61v29q0 95 46.5 149t121.5 54q35 0 53 -8q6 -2 6 -9v-88q0 -7 -7 -6q-18 6 -36 6q-64 0 -64 -101zM196 512v-503q0 -9 -8 -9h-104q-8 0 -8 9v382l-61 2q-6 0 -6 8v78q0 7 6 7h61v29
q0 95 46.5 149t121.5 54q35 0 53 -8q6 -2 6 -9v-88q0 -7 -7 -6q-18 6 -36 6q-64 0 -64 -101zM665 709h106q8 0 8 -7v-228q56 22 111 22q102 0 162 -65t60 -164q0 -126 -85.5 -201t-208.5 -75q-82 0 -154 21q-6 3 -6 10v680q0 7 7 7zM989 253q0 71 -35.5 108.5t-94.5 37.5
q-49 0 -80 -17v-293q19 -6 55 -6q61 0 108 44.5t47 125.5z" />
    <glyph glyph-name="longs_longs_i" unicode="&#x17f;&#x17f;i" horiz-adv-x="840" 
d="M492 517v-508q0 -9 -8 -9h-104q-8 0 -8 9v385l-61 2q-6 1 -6 8v75q0 7 6 7h61v29q0 95 46.5 149t121.5 54q35 0 53 -8q6 -2 6 -9v-84q0 -6 -7 -5q-15 5 -36 5q-64 0 -64 -100zM196 517v-508q0 -9 -8 -9h-104q-8 0 -8 9v385l-61 2q-6 1 -6 8v75q0 7 6 7h61v29
q0 95 46.5 149t121.5 54q35 0 53 -8q6 -2 6 -9v-84q0 -6 -7 -5q-15 5 -36 5q-64 0 -64 -100zM713 552q-30 0 -48.5 17t-18.5 45t19 45t49 17t48 -17t18 -45t-18.5 -45t-48.5 -17zM652 9v469q0 8 8 8h106q7 0 7 -8v-470q0 -8 -8 -8h-103q-10 0 -10 9z" />
    <glyph glyph-name="longs_longs_l" unicode="&#x17f;&#x17f;l" horiz-adv-x="860" 
d="M492 517v-508q0 -9 -8 -9h-104q-8 0 -8 9v385l-61 2q-6 1 -6 8v75q0 7 6 7h61v29q0 95 46.5 149t121.5 54q35 0 53 -8q6 -2 6 -9v-84q0 -6 -7 -5q-15 5 -36 5q-64 0 -64 -100zM196 517v-508q0 -9 -8 -9h-104q-8 0 -8 9v385l-61 2q-6 1 -6 8v75q0 7 6 7h61v29
q0 95 46.5 149t121.5 54q35 0 53 -8q6 -2 6 -9v-84q0 -6 -7 -5q-15 5 -36 5q-64 0 -64 -100zM657 113v588q0 8 8 8h104q9 0 9 -8v-582q0 -38 30 -38q7 0 23 2q3 1 4 -0.5t1 -4.5v-67q0 -9 -6 -11q-22 -10 -64 -10q-53 0 -81 27.5t-28 95.5z" />
    <glyph glyph-name="t_t" unicode="tt" horiz-adv-x="644" 
d="M516 391v-236q0 -34 12 -50t44 -16q22 0 44 7q6 0 6 -7v-71q0 -8 -7 -12q-33 -16 -90 -16q-130 0 -130 139v264h-199v-238q0 -34 12.5 -50t42.5 -16q22 0 44 7q5 0 5 -7v-72q0 -8 -6 -12q-32 -15 -88 -15q-130 0 -130 139v264l-62 1q-7 1 -7 9v75q0 8 7 8h62q2 82 10 123
q2 8 9 9l97 20q10 1 10 -7q-2 -25 -5 -145h199q2 84 10 125q2 6 8 8l100 19q8 2 8 -5q-6 -66 -6 -147h102q7 0 7 -7v-77q0 -7 -6 -8z" />
    <glyph glyph-name=".notdef" horiz-adv-x="500" 
d="M0 0v700h500v-700h-500zM80 50h340l-170 255zM279 350l171 -255v510zM50 605v-510l170 255zM80 650l170 -255l170 255h-340z" />
    <glyph glyph-name=".null" horiz-adv-x="0" 
 />
    <glyph glyph-name="nonmarkingreturn" horiz-adv-x="333" 
 />
    <glyph glyph-name="space" unicode=" " horiz-adv-x="231" 
 />
    <glyph glyph-name="exclam" unicode="!" horiz-adv-x="306" 
d="M179 663q42 0 62 -9q5 -3 5 -11v-72q0 -57 -8 -187t-12 -158q0 -6 -7 -6h-80q-5 0 -7 6q-18 252 -18 342v72q0 8 5 11q21 12 60 12zM178 -8q-31 0 -51 18.5t-20 48.5t20 49.5t51 19.5q32 0 52.5 -19t20.5 -50t-20 -49t-53 -18z" />
    <glyph glyph-name="quotedbl" unicode="&#x22;" horiz-adv-x="398" 
d="M55 461l-1 247q-1 8 8 8h97q8 0 8 -8l-17 -248q-1 -7 -8 -7h-78q-9 0 -9 8zM236 461l-2 246q0 9 9 9h96q10 0 8 -10l-17 -246q0 -7 -8 -7h-78q-8 0 -8 8z" />
    <glyph glyph-name="numbersign" unicode="#" horiz-adv-x="546" 
d="M139 43h-63q-8 0 -5 7l43 153h-70q-6 0 -6 7v73q0 5 5 5h94l27 101h-73q-4 0 -4 4v75q0 5 5 5h96l39 137q2 6 8 6h63q6 0 4 -6l-37 -137h91l38 139q1 4 5 4h65q6 0 4 -6l-38 -137h70q5 0 5 -6v-73q0 -5 -6 -5h-92l-27 -101h68q6 0 6 -5v-74q0 -6 -6 -6h-91l-42 -153
q-3 -7 -8 -7h-63q-8 0 -5 7l42 153h-91l-44 -154q-2 -6 -7 -6zM240 389l-28 -101h93l27 101h-92z" />
    <glyph glyph-name="dollar" unicode="$" horiz-adv-x="546" 
d="M322 31v-79q0 -6 -6 -6h-84q-6 0 -6 7v73q-98 7 -164 50q-6 5 -6 15v93q0 9 9 4q93 -65 198 -65q53 0 79 18t26 48t-26.5 52t-96.5 49q-108 41 -148.5 83t-40.5 110q0 64 46 112t126 60v75q0 6 5 6h85q6 0 6 -6v-73q87 -6 132 -38q4 -4 4 -11v-90q0 -10 -8 -4
q-78 50 -173 50q-55 0 -80.5 -21t-25.5 -48q0 -28 28.5 -49.5t102.5 -50.5q112 -42 150 -86.5t38 -107.5q0 -74 -51 -117t-119 -53z" />
    <glyph glyph-name="percent" unicode="%" horiz-adv-x="836" 
d="M678 646l-430 -641q-2 -5 -9 -5h-80q-9 0 -2 9l432 639q3 4 9 4h77q3 0 4 -2t-1 -4zM208 663q79 0 120 -50t41 -131q0 -72 -42 -126.5t-120 -54.5q-80 0 -121 50t-41 128q0 84 47 134t116 50zM137 482q0 -49 18.5 -79t54.5 -30q32 0 50 28t18 80q0 111 -70 111
q-32 0 -51.5 -28.5t-19.5 -81.5zM630 352q78 0 119.5 -49.5t41.5 -130.5q0 -73 -42 -127.5t-120 -54.5q-79 0 -120.5 50.5t-41.5 128.5q0 83 47 133t116 50zM559 171q0 -46 19 -77.5t53 -31.5q32 0 50.5 29t18.5 80q0 52 -18.5 81.5t-51.5 29.5q-31 0 -51 -30t-20 -81z" />
    <glyph glyph-name="ampersand" unicode="&#x26;" horiz-adv-x="711" 
d="M621 285h-200q48 -36 108 -124q51 -75 108 -75q3 0 23 2q7 0 7 -7v-70q0 -9 -8 -13q-16 -8 -56 -8q-55 0 -96.5 26.5t-88.5 101.5q-37 61 -89.5 112.5t-68.5 51.5q-29 0 -55.5 -25t-26.5 -65q0 -43 32.5 -74t87.5 -31q45 0 82 15q6 2 6 -6v-77q0 -7 -7 -10
q-40 -19 -109 -19q-94 0 -154.5 51.5t-60.5 138.5q0 63 38.5 108t99.5 64q-67 61 -67 132q0 72 56.5 117t140.5 45q80 0 121 -25q5 -4 5 -12v-79q0 -11 -8 -5q-50 28 -107 28q-41 0 -63 -20t-22 -53q0 -50 81 -102h308q8 0 6 -8l-14 -77q-1 -8 -9 -8z" />
    <glyph glyph-name="quotesingle" unicode="'" horiz-adv-x="221" 
d="M57 460l-1 248q0 8 7 8h100q6 0 6 -6l-18 -251q-1 -6 -8 -6h-79q-7 0 -7 7z" />
    <glyph glyph-name="parenleft" unicode="(" horiz-adv-x="353" 
d="M51 289q0 145 47.5 262t112.5 198q5 5 11 5h93q11 0 4 -9q-159 -213 -159 -450q0 -263 157 -459q2 -2 2 -4t-1.5 -3.5t-4.5 -1.5h-92q-9 0 -14 5q-67 76 -111.5 194t-44.5 263z" />
    <glyph glyph-name="parenright" unicode=")" horiz-adv-x="354" 
d="M300 292q0 -261 -156 -458q-6 -7 -14 -7h-92q-12 0 -6 8q160 210 160 451q0 266 -157 460q-6 8 4 8h93q8 0 14 -7q67 -77 110.5 -192t43.5 -263z" />
    <glyph glyph-name="asterisk" unicode="*" horiz-adv-x="339" 
d="M212 477l81 -103q3 -5 -1 -8l-54 -36q-4 -2 -8 3l-66 116l-85 -96q-3 -3 -7 0l-42 44q-4 4 0 7l98 83l-111 40q-4 2 -3 8l30 59q2 5 8 2l97 -63l6 124q0 6 6 6l71 -9q6 -2 4 -6l-33 -123l112 35q6 1 7 -4l11 -64q1 -7 -3 -7z" />
    <glyph glyph-name="plus" unicode="+" horiz-adv-x="557" 
d="M240 516h77q7 0 7 -7v-205h197q6 0 6 -8v-71q0 -7 -7 -7h-196v-209q0 -5 -7 -5h-77q-6 0 -6 6v208h-196q-8 0 -8 7v72q0 7 7 7h197v206q2 6 6 6z" />
    <glyph glyph-name="comma" unicode="," horiz-adv-x="233" 
d="M94 -135h-85q-10 0 -5 8q74 125 64 270q0 6 6 6h97q7 0 8 -8q12 -163 -74 -270q-4 -6 -11 -6z" />
    <glyph glyph-name="hyphen" unicode="-" horiz-adv-x="354" 
d="M295 201h-235q-7 0 -7 7v87q0 7 7 7h235q6 0 6 -7v-87q0 -7 -6 -7z" />
    <glyph glyph-name="period" unicode="." horiz-adv-x="232" 
d="M116 -10q-32 0 -52.5 20t-20.5 53t20.5 53t52.5 20t52.5 -20.5t20.5 -52.5q0 -33 -19.5 -53t-53.5 -20z" />
    <glyph glyph-name="slash" unicode="/" horiz-adv-x="367" 
d="M329 699l-197 -737q-2 -5 -7 -5h-83q-6 0 -5 7l198 736q1 4 6 4h83q7 0 5 -5z" />
    <glyph glyph-name="zero" unicode="0" horiz-adv-x="546" 
d="M273 572q-50 0 -81 -62t-31 -183q0 -114 29 -179t85 -65q109 0 109 243q0 246 -111 246zM275 -10q-119 0 -178 93t-59 244q0 147 62.5 241.5t173.5 94.5q53 0 94.5 -20.5t67 -53t42 -77.5t23 -90t6.5 -95q0 -69 -12 -127t-38 -106.5t-72.5 -76t-109.5 -27.5z" />
    <glyph glyph-name="one" unicode="1" horiz-adv-x="546" 
d="M225 97v443q-65 -23 -109 -32q-9 -1 -9 6v75q0 7 6 8q80 20 145 52q12 4 15 4h67q6 0 6 -6v-550h116q8 0 9 -8v-79q1 -10 -7 -10h-364q-8 0 -6 9v80q1 8 9 8h122z" />
    <glyph glyph-name="two" unicode="2" horiz-adv-x="546" 
d="M480 0h-427q-7 0 -7 8v61q0 7 4 11q105 87 196 178q59 60 82 101t23 88q0 51 -33.5 82.5t-93.5 31.5q-82 0 -160 -47q-10 -3 -10 6v82q0 6 6 10q84 51 192 51q103 0 160.5 -57.5t57.5 -144.5q0 -59 -24 -109t-76 -104q-63 -68 -155 -152q13 1 173 3h115q8 0 7 -7l-20 -85
q-3 -7 -10 -7z" />
    <glyph glyph-name="three" unicode="3" horiz-adv-x="546" 
d="M234 285h-71q-8 0 -8 7v80q0 10 7 10h67q115 0 115 89q0 42 -30.5 68t-88.5 26q-77 0 -153 -45q-9 -4 -9 5v79q0 7 6 11q82 48 182 48q97 0 154.5 -47.5t57.5 -123.5q0 -102 -100 -145v-1q53 -14 90.5 -54t37.5 -103q0 -94 -70 -146t-179 -52q-108 0 -181 43q-6 3 -6 12
v89q0 10 8 6q88 -50 174 -50q68 0 99 28.5t31 71.5q0 46 -35.5 70t-97.5 24z" />
    <glyph glyph-name="four" unicode="4" horiz-adv-x="546" 
d="M306 169h-269q-8 0 -8 8v55q1 10 4 14q36 56 138 201.5t143 198.5q6 7 13 7h87q9 0 9 -8v-388h98q8 0 6 -8l-13 -74q-2 -6 -8 -6h-83v-161q0 -8 -7 -8h-102q-8 0 -8 8v161zM306 257v94q0 84 4 156h-1q-13 -21 -83 -125t-82 -125h162z" />
    <glyph glyph-name="five" unicode="5" horiz-adv-x="546" 
d="M439 555h-205q-30 -103 -39 -146q145 -18 220 -66.5t75 -145.5q0 -94 -69 -150.5t-180 -56.5q-104 0 -175 42q-5 2 -5 11v91q0 10 8 5q84 -49 173 -49q60 0 92 28.5t32 71.5q0 59 -65.5 88t-207.5 40q-7 0 -7 8l-1 43q3 16 42 146t39 131q2 6 9 6h290q8 0 5 -7l-22 -83
q-1 -7 -9 -7z" />
    <glyph glyph-name="six" unicode="6" horiz-adv-x="546" 
d="M274 333q-60 0 -106 -37q-6 -26 -6 -55q0 -79 32.5 -119t83.5 -40q50 0 80 34.5t30 91.5q0 56 -30.5 90.5t-83.5 34.5zM448 674v-90q0 -7 -6 -8q-188 -61 -252 -190q57 34 124 34q86 0 142 -56.5t56 -150.5q0 -93 -62.5 -158t-173.5 -65q-110 0 -173.5 69t-63.5 181
q0 70 25 134t66 112.5t94.5 88t108 64.5t108.5 39q7 3 7 -4z" />
    <glyph glyph-name="seven" unicode="7" horiz-adv-x="546" 
d="M59 652h430q7 0 7 -5v-60q0 -8 -3 -14q-16 -36 -69 -159t-101 -231.5t-80 -176.5q-3 -6 -10 -6h-115q-10 0 -6 9q88 180 145.5 303t80.5 176.5t29 66.5h-309q-7 0 -7 8l2 83q1 6 6 6z" />
    <glyph glyph-name="eight" unicode="8" horiz-adv-x="546" 
d="M271 575q-45 0 -71.5 -28.5t-26.5 -71.5q0 -60 43 -90q14 -10 26 -10h60q17 0 28 10q39 32 39 89q0 48 -27.5 74.5t-70.5 26.5zM275 81q49 0 76 29t27 70q0 64 -50 95q-10 7 -25 7h-62q-16 0 -22 -6q-52 -31 -52 -92q0 -46 30.5 -74.5t77.5 -28.5zM275 663
q100 0 154 -54.5t54 -127.5q0 -98 -85 -149q98 -49 98 -151q0 -88 -64.5 -139.5t-164.5 -51.5q-98 0 -158 52.5t-60 132.5q0 98 99 151q-89 51 -89 155q0 76 58.5 129t157.5 53z" />
    <glyph glyph-name="nine" unicode="9" horiz-adv-x="546" 
d="M116 -15v88q0 7 6 9q177 52 241 182q-52 -35 -120 -35q-90 0 -148.5 55t-58.5 153q0 96 67 161t172 65q102 0 167.5 -71.5t65.5 -194.5q0 -87 -33.5 -162t-89.5 -126t-122 -84t-138 -47q-9 -1 -9 7zM278 321q68 0 105 37q4 16 4 54q0 77 -30.5 119.5t-84.5 42.5
q-49 0 -81 -36t-32 -93q0 -61 34 -92.5t85 -31.5z" />
    <glyph glyph-name="colon" unicode=":" horiz-adv-x="309" 
d="M155 -10q-32 0 -52.5 19.5t-20.5 51.5q0 31 20.5 51t52.5 20t52.5 -20t20.5 -51t-19.5 -51t-53.5 -20zM155 318q-32 0 -52.5 19.5t-20.5 51.5q0 31 20.5 51t52.5 20t52.5 -20.5t20.5 -50.5q0 -32 -19.5 -51.5t-53.5 -19.5z" />
    <glyph glyph-name="semicolon" unicode=";" horiz-adv-x="309" 
d="M155 318q-32 0 -52.5 19.5t-20.5 51.5q0 31 20.5 51t52.5 20t52.5 -20.5t20.5 -50.5q0 -32 -19.5 -51.5t-53.5 -19.5zM130 -135h-84q-11 0 -6 8q42 71 55.5 133.5t9.5 135.5q0 7 5 7h98q5 0 8 -8q10 -164 -75 -270q-2 -6 -11 -6z" />
    <glyph glyph-name="less" unicode="&#x3c;" horiz-adv-x="557" 
d="M64 227v68q0 6 4 9l418 212q8 3 8 -4v-79q0 -7 -7 -9l-325 -162v-2l326 -163q6 -3 6 -9v-77q0 -7 -7 -6l-418 213q-5 4 -5 9z" />
    <glyph glyph-name="equal" unicode="=" horiz-adv-x="557" 
d="M31 395q0 7 8 7h480q7 0 7 -7v-72q0 -8 -8 -8h-479q-8 0 -8 9v71zM31 199q0 7 7 7h480q8 0 8 -8v-70q0 -8 -9 -8h-478q-8 0 -8 8v71z" />
    <glyph glyph-name="greater" unicode="&#x3e;" horiz-adv-x="557" 
d="M494 294v-66q0 -5 -5 -9l-420 -214q-5 -2 -5 4v79q0 7 5 9l325 162v2l-324 163q-6 2 -6 8v80q0 7 6 4l419 -213q5 -3 5 -9z" />
    <glyph glyph-name="question" unicode="?" horiz-adv-x="449" 
d="M216 663q87 0 139.5 -45t52.5 -118q0 -37 -22 -74t-49 -61t-49 -50.5t-22 -44.5q0 -22 18 -53q4 -8 -5 -8h-88q-7 0 -12 5q-26 29 -26 68q0 27 20.5 55.5t45 49t45 49t20.5 55.5q0 31 -24.5 52t-68.5 21q-63 0 -121 -25q-7 -3 -7 4v79q0 8 4 10q65 31 149 31zM229 -10
q-31 0 -50.5 19t-19.5 51q0 31 20 50t50 19q31 0 50.5 -19.5t19.5 -49.5q0 -32 -18.5 -51t-51.5 -19z" />
    <glyph glyph-name="at" unicode="@" horiz-adv-x="827" 
d="M444 88l58 286q-10 4 -31 4q-64 0 -104 -51t-40 -118q0 -111 106 -120q3 -1 11 -1zM459 623q139 0 232.5 -81.5t93.5 -223.5q0 -144 -95.5 -228t-233.5 -84q-103 0 -165 48t-62 149q0 109 77 178.5t187 69.5q75 0 108 -18q4 -1 3 -7l-67 -337q57 10 108.5 67t51.5 159
q0 114 -67 175.5t-181 61.5q-134 0 -223.5 -95.5t-89.5 -245.5q0 -193 164 -279q5 -4 5 -11v-79q0 -8 -7 -5q-121 48 -188.5 146t-67.5 223q0 180 117.5 298.5t299.5 118.5z" />
    <glyph glyph-name="A" unicode="A" horiz-adv-x="658" 
d="M438 182h-229l-61 -174q-1 -8 -10 -8h-102q-10 0 -7 10q123 349 209 581q6 20 8 55q0 6 6 6h138q6 0 8 -5q190 -525 231 -638q3 -9 -6 -9h-112q-6 0 -9 6zM235 280h176q-9 30 -43.5 132.5t-45.5 139.5h-1q-7 -30 -20.5 -73t-35 -108t-30.5 -91z" />
    <glyph glyph-name="B" unicode="B" horiz-adv-x="592" 
d="M76 8v635q0 8 6 9q78 2 198 2q244 0 244 -170q0 -52 -27 -89t-72 -53v-2q52 -14 89 -53t37 -102q0 -93 -75 -140t-209 -47q-75 -1 -184 2q-7 1 -7 8zM194 287v-192q1 0 27.5 -1t52.5 -1q152 0 152 98q0 96 -138 96h-94zM194 557v-173h94q118 0 118 88q0 46 -31.5 66.5
t-95.5 20.5q-63 0 -85 -2z" />
    <glyph glyph-name="C" unicode="C" horiz-adv-x="601" 
d="M53 325q0 145 97.5 241.5t255.5 96.5q95 0 139 -22q5 -3 5 -10v-91q0 -8 -7 -6q-59 25 -134 25q-104 0 -168 -62t-64 -169q0 -64 21.5 -111.5t56.5 -72t72.5 -35.5t78.5 -11q79 0 144 27q7 3 7 -6v-87q0 -10 -7 -12q-58 -30 -165 -30q-66 0 -124 19.5t-105.5 58t-75 105
t-27.5 152.5z" />
    <glyph glyph-name="D" unicode="D" horiz-adv-x="676" 
d="M75 9v636q0 6 7 7q90 3 200 3q165 0 252.5 -86.5t87.5 -234.5q0 -82 -25 -144t-62 -97.5t-88 -58t-95 -29.5t-90 -7q-66 0 -180 2q-7 0 -7 9zM196 557v-463q18 -1 70 -1q109 0 170.5 59t61.5 179q0 112 -56 170t-160 58q-68 0 -86 -2z" />
    <glyph glyph-name="E" unicode="E" horiz-adv-x="538" 
d="M505 89l-14 -81q-1 -8 -10 -8h-397q-8 0 -8 9v635q0 8 8 8h385q8 0 9 -6l10 -82q2 -9 -6 -9h-285v-173h257q7 0 7 -7v-84q0 -7 -8 -7h-256v-187h302q7 0 6 -8z" />
    <glyph glyph-name="F" unicode="F" horiz-adv-x="509" 
d="M197 268v-260q0 -8 -8 -8h-107q-6 0 -6 8v637q0 7 7 7h385q8 0 9 -7l9 -81q2 -9 -7 -9h-282v-190h253q8 0 8 -7v-83q0 -7 -8 -7h-253z" />
    <glyph glyph-name="G" unicode="G" horiz-adv-x="679" 
d="M495 252l-111 3q-8 1 -8 9v79q0 6 7 6h225q8 0 8 -8v-296q0 -7 -7 -11q-99 -44 -215 -44q-168 0 -254.5 94t-86.5 237q0 156 98.5 249t256.5 93q117 0 180 -36q6 -2 6 -12v-91q0 -10 -8 -6q-77 41 -175 41q-111 0 -172.5 -61.5t-61.5 -173.5q0 -99 60 -166t171 -67
q51 0 87 16v145z" />
    <glyph glyph-name="H" unicode="H" horiz-adv-x="679" 
d="M596 0h-106q-8 0 -8 8v276h-285v-275q0 -9 -9 -9h-103q-9 0 -9 9v635q0 8 8 8h104q9 0 9 -7v-263h285v263q0 7 8 7h107q6 0 6 -7v-637q0 -8 -7 -8z" />
    <glyph glyph-name="I" unicode="I" horiz-adv-x="273" 
d="M197 645v-636q0 -9 -9 -9h-104q-8 0 -8 9v636q0 7 8 7h105q8 0 8 -7z" />
    <glyph glyph-name="J" unicode="J" horiz-adv-x="390" 
d="M193 162v483q0 7 8 7h106q7 0 7 -6v-486q0 -220 -200 -220q-69 0 -109 20q-6 4 -6 12v88q0 9 8 6q47 -22 94 -22q48 0 70 26t22 92z" />
    <glyph glyph-name="K" unicode="K" horiz-adv-x="628" 
d="M188 0h-103q-9 0 -9 9v636q0 7 7 7h106q8 0 8 -7v-266h61q10 0 17 10q24 34 85 125t91 132q4 6 12 6h113q11 0 5 -10q-117 -173 -219 -299q-4 -5 0 -9q49 -59 251 -323q3 -4 1.5 -7.5t-6.5 -3.5h-123q-11 0 -16 8q-14 18 -198 262q-8 11 -19 11h-55v-272q0 -9 -9 -9z" />
    <glyph glyph-name="L" unicode="L" horiz-adv-x="519" 
d="M471 0h-385q-10 0 -10 10v634q0 8 8 8h106q7 0 7 -7v-548h293q8 0 6 -8l-15 -82q-2 -7 -10 -7z" />
    <glyph glyph-name="M" unicode="M" horiz-adv-x="878" 
d="M130 647q1 5 8 5h157q8 0 9 -6q111 -356 137 -475h1q8 34 35.5 126t61 202.5t44.5 146.5q1 6 8 6h151q6 0 7 -5l67 -639q1 -8 -7 -8h-117q-7 0 -8 7q-34 488 -35 554h-1q-12 -51 -72.5 -261.5t-82.5 -292.5q-3 -7 -10 -7h-95q-9 0 -11 7q-122 429 -152 556h-2
q-3 -106 -46 -556q-1 -7 -8 -7h-100q-9 0 -8 8z" />
    <glyph glyph-name="N" unicode="N" horiz-adv-x="684" 
d="M76 646q0 6 7 6h135q8 0 12 -6q246 -449 265 -494h2q-3 81 -3 168v325q0 7 8 7h97q8 0 8 -8v-635q0 -9 -9 -9h-131q-7 0 -13 7q-27 59 -137.5 265.5t-130.5 253.5h-1q4 -51 4 -197v-321q0 -8 -7 -8h-97q-9 0 -9 9v637z" />
    <glyph glyph-name="O" unicode="O" horiz-adv-x="724" 
d="M363 663q139 0 223 -95t85 -238q0 -158 -85.5 -249t-223.5 -91q-143 0 -226.5 91.5t-83.5 246.5q0 150 86.5 242.5t224.5 92.5zM177 327q0 -106 50.5 -171t138.5 -65q85 0 133 63t48 173q0 106 -50.5 171t-135.5 65q-82 0 -133 -62.5t-51 -173.5z" />
    <glyph glyph-name="P" unicode="P" horiz-adv-x="575" 
d="M76 7v638q0 7 6 7q76 2 189 2q138 0 201 -60.5t64 -156.5q0 -113 -79.5 -170.5t-198.5 -57.5h-62v-201q0 -8 -7 -8h-106q-7 0 -7 7zM196 557v-251q16 -2 65 -2q67 0 111 31t44 100q0 60 -37.5 92t-107.5 32q-59 0 -75 -2z" />
    <glyph glyph-name="Q" unicode="Q" horiz-adv-x="725" 
d="M360 563q-85 0 -134 -64t-49 -171q0 -110 51.5 -173.5t137.5 -63.5q83 -1 132 61t49 174q0 107 -50 172t-137 65zM365 663q136 0 221 -93.5t85 -237.5q0 -114 -41.5 -187.5t-99.5 -106.5q122 -97 202 -150q2 -2 1.5 -8.5t-2.5 -7.5l-129 -11q-8 -2 -13 2q-53 31 -174 134
q-15 -7 -49 -7q-142 0 -228 92.5t-86 242.5q0 155 87 246.5t226 91.5z" />
    <glyph glyph-name="R" unicode="R" horiz-adv-x="614" 
d="M187 0h-103q-8 0 -8 8v636q0 8 6 8q80 3 197 3q119 0 185 -48t66 -140q0 -131 -137 -177q164 -209 210 -279q7 -11 -3 -11h-125q-9 0 -14 5q-40 54 -163 235q-10 18 -32 18h-72v-250q0 -8 -7 -8zM194 354h79q69 0 103 28.5t34 77.5t-36 74.5t-101 25.5t-79 -2v-204z" />
    <glyph glyph-name="S" unicode="S" horiz-adv-x="510" 
d="M237 -10q-123 0 -197 51q-7 5 -7 15v95q0 4 2.5 5.5t5.5 -0.5q92 -65 201 -65q55 0 81 21t26 53q0 33 -24.5 54.5t-103.5 55.5q-103 44 -143 88.5t-40 115.5q0 77 61 130t169 53q101 0 164 -36q6 -5 6 -12v-91q0 -9 -9 -4q-76 46 -163 46q-60 0 -84 -23.5t-24 -51.5
q0 -29 24 -52t95 -53q114 -47 154.5 -93.5t40.5 -114.5q0 -86 -63 -136.5t-172 -50.5z" />
    <glyph glyph-name="T" unicode="T" horiz-adv-x="557" 
d="M213 9v546h-201q-8 0 -6 9l13 81q1 7 9 7h504q8 0 9 -8l9 -79q1 -10 -7 -10h-209v-546q0 -9 -8 -9h-103q-10 -1 -10 9z" />
    <glyph glyph-name="U" unicode="U" horiz-adv-x="678" 
d="M197 645v-405q0 -71 36.5 -110.5t107.5 -39.5q140 0 140 154v400q0 8 8 8h104q9 0 9 -8v-401q0 -130 -72.5 -191.5t-190.5 -61.5q-121 0 -192 62.5t-71 185.5v406q0 8 8 8h105q8 0 8 -7z" />
    <glyph glyph-name="V" unicode="V" horiz-adv-x="644" 
d="M331 122h2q38 133 170 523q2 7 9 7h111q8 0 5 -9l-233 -637q-2 -6 -9 -6h-117q-8 0 -10 6l-240 637q-4 9 6 9h115q7 0 9 -6q161 -442 182 -524z" />
    <glyph glyph-name="W" unicode="W" horiz-adv-x="905" 
d="M528 645l118 -515h1q38 175 117 515q3 7 10 7h105q8 0 7 -9l-173 -637q-2 -6 -10 -6h-112q-9 0 -10 6q-118 498 -124 526h-1q-18 -87 -134 -523q-2 -9 -10 -9h-109q-8 0 -12 9l-172 635q-1 8 7 8h112q9 0 10 -6q109 -435 122 -516h1q27 127 124 515q2 7 11 7h112
q8 0 10 -7z" />
    <glyph glyph-name="X" unicode="X" horiz-adv-x="611" 
d="M579 641l-194 -306l208 -325q6 -8 -4 -10h-123q-11 0 -15 8l-152 250h-1l-147 -250q-5 -8 -13 -8h-117q-5 0 -6 3.5t2 6.5l205 318l-197 316q-5 8 4 8h122q10 0 13 -7l144 -247h1l142 247q4 7 13 7h110q10 0 5 -11z" />
    <glyph glyph-name="Y" unicode="Y" horiz-adv-x="597" 
d="M230 262l-215 381q-5 9 6 9h121q6 0 9 -5q125 -243 154 -308q33 72 149 308q1 5 8 5h116q8 0 4 -7l-216 -386q-8 -13 -8 -31v-219q0 -9 -9 -9h-103q-9 0 -9 9v224q0 16 -7 29z" />
    <glyph glyph-name="Z" unicode="Z" horiz-adv-x="558" 
d="M522 0h-495q-9 0 -9 8v55q0 7 4 12l345 480h-335q-8 0 -7 8l14 82q2 7 9 7h465q6 0 6 -6v-60q0 -8 -5 -15l-336 -474h363q9 0 6 -9l-16 -80q-2 -8 -9 -8z" />
    <glyph glyph-name="bracketleft" unicode="[" horiz-adv-x="320" 
d="M158 684v-783l127 -4q4 0 4 -6v-59q0 -5 -6 -5h-209q-9 0 -9 9v911q0 8 9 8h210q4 0 4 -4v-59q0 -6 -4 -6z" />
    <glyph glyph-name="backslash" unicode="\" horiz-adv-x="365" 
d="M229 -36l-192 733q-2 7 5 7h82q6 0 8 -6l195 -732q3 -9 -6 -9h-83q-7 0 -9 7z" />
    <glyph glyph-name="bracketright" unicode="]" horiz-adv-x="327" 
d="M173 -102v783l-127 4q-4 0 -4 6v58q0 6 5 6h210q8 0 8 -9v-911q0 -8 -8 -8h-210q-4 0 -4 4v59q0 6 4 6z" />
    <glyph glyph-name="asciicircum" unicode="^" horiz-adv-x="516" 
d="M478 233h-80q-9 0 -11 6l-129 295h-1l-126 -294q-3 -8 -9 -7h-79q-9 0 -6 8l167 371q4 6 7 6h91q6 0 9 -6l171 -370q3 -9 -4 -9z" />
    <glyph glyph-name="underscore" unicode="_" horiz-adv-x="517" 
d="M0 -74h517v-49h-517v49z" />
    <glyph glyph-name="grave" unicode="`" 
d="M186 694l83 -147q4 -8 -5 -8h-92q-6 0 -10 6l-106 145q-5 9 4 9h115q7 0 11 -5z" />
    <glyph glyph-name="a" unicode="a" horiz-adv-x="507" 
d="M324 90v139q-95 4 -135 -15.5t-40 -61.5q0 -31 25.5 -51.5t76.5 -20.5q46 0 73 10zM441 303v-198q0 -31 3 -62q0 -4 -3 -5q-102 -48 -209 -48q-89 0 -145 40t-56 120q0 171 293 159v16q0 10 -3.5 20.5t-13.5 23.5t-31.5 21t-51.5 8q-71 0 -137 -33q-8 -2 -8 6v78
q0 8 6 10q74 37 162 37q96 0 145 -53t49 -140z" />
    <glyph glyph-name="b" unicode="b" horiz-adv-x="566" 
d="M73 709h105q9 0 9 -7v-228q56 22 110 22q102 0 162.5 -65t60.5 -164q0 -126 -85.5 -201t-209.5 -75q-81 0 -153 21q-6 3 -6 10v680q0 7 7 7zM396 253q0 71 -35 108.5t-94 37.5q-49 0 -80 -17v-293q19 -6 54 -6q61 0 108 44.5t47 125.5z" />
    <glyph glyph-name="c" unicode="c" horiz-adv-x="447" 
d="M411 102v-81q0 -7 -5 -9q-45 -22 -120 -22q-118 0 -180.5 70t-62.5 181q0 112 73 183.5t190 71.5q65 0 101 -18q5 -2 5 -10l-1 -81q0 -9 -7 -5q-41 18 -90 18q-67 0 -107 -42.5t-40 -113.5q0 -78 41.5 -116.5t102.5 -38.5q53 0 93 18q7 1 7 -5z" />
    <glyph glyph-name="d" unicode="d" horiz-adv-x="563" 
d="M295 -10q-115 0 -183.5 63.5t-68.5 184.5q0 111 76 184.5t201 73.5q33 0 57 -7v213q0 7 6 7h109q5 0 5 -6v-590q0 -16 3 -64q1 -6 -5 -10q-100 -49 -200 -49zM377 96v298q-23 9 -59 9q-69 0 -110 -42t-41 -117q0 -80 40 -119t102 -39q38 0 68 10z" />
    <glyph glyph-name="e" unicode="e" horiz-adv-x="521" 
d="M369 219h-204q2 -60 39.5 -95t110.5 -35q68 0 125 25q6 2 6 -5v-80q0 -8 -6 -11q-52 -26 -150 -28q-66 0 -115.5 21t-77.5 57t-41.5 79.5t-13.5 92.5q0 111 63 183.5t172 72.5q53 0 94 -18.5t64.5 -49t35.5 -65.5t12 -72q0 -59 -9 -66q-14 -6 -105 -6zM165 296h160
q42 0 44 8v11q0 32 -23 63.5t-74 31.5q-47 0 -74 -31.5t-33 -82.5z" />
    <glyph glyph-name="f" unicode="f" horiz-adv-x="282" 
d="M76 395l-61 2q-6 1 -6 8v75q0 6 6 6h61v17q0 97 46.5 156t131.5 59q35 0 62 -9q5 -3 5 -10v-82q0 -7 -7 -6q-17 7 -40 7q-78 0 -78 -108v-24h89q7 0 7 -7v-74q0 -8 -7 -8l-89 -3v-386q0 -8 -8 -8h-104q-8 0 -8 8v387z" />
    <glyph glyph-name="g" unicode="g" horiz-adv-x="523" 
d="M328 329q0 42 -21 65t-62 23q-38 0 -62 -23.5t-24 -63.5t23 -64t63 -24q38 0 60.5 23.5t22.5 63.5zM396 -70q0 39 -37 54.5t-107 15.5q-42 0 -66 -4q-17 -9 -33 -27.5t-16 -38.5q0 -33 33.5 -56t95.5 -23q66 0 98 23.5t32 55.5zM247 495q47 0 82 -6q12 -3 28 -3h138
q6 0 6 -7v-74q0 -6 -7 -6l-77 3q23 -26 23 -77q0 -77 -53 -119t-138 -42q-23 0 -39 4q-9 -14 -9 -37q0 -24 16 -40q18 2 51 2q117 0 180.5 -33.5t63.5 -114.5q0 -77 -68 -128.5t-183 -51.5q-107 0 -170 45t-63 117q0 55 91 125q-23 34 -23 73q0 36 19 66q-69 43 -69 137
q0 73 54.5 120t146.5 47z" />
    <glyph glyph-name="h" unicode="h" horiz-adv-x="559" 
d="M66 8v694q0 7 7 7h107q6 0 6 -7v-252q64 46 140 46q71 0 119 -47.5t48 -156.5v-284q0 -8 -8 -8h-105q-8 0 -8 8v288q0 101 -86 101q-52 0 -100 -38v-352q0 -7 -7 -7h-106q-7 0 -7 8z" />
    <glyph glyph-name="i" unicode="i" horiz-adv-x="253" 
d="M126 552q-30 0 -48.5 17t-18.5 45q0 27 19 44.5t49 17.5t48 -17t18 -45t-18.5 -45t-48.5 -17zM66 9v469q0 8 7 8h106q8 0 8 -8v-470q0 -8 -8 -8h-104q-9 0 -9 9z" />
    <glyph glyph-name="j" unicode="j" horiz-adv-x="252" 
d="M66 -25v503q0 8 8 8h105q8 0 8 -8v-431q0 -100 -10.5 -148t-35.5 -79q-41 -49 -120 -49q-31 0 -41 3q-8 3 -8 10v76q0 8 7 8q51 -2 69 20.5t18 86.5zM127 552q-30 0 -48.5 17t-18.5 45q0 27 19 44.5t49 17.5t48 -17t18 -45t-18.5 -45t-48.5 -17z" />
    <glyph glyph-name="k" unicode="k" horiz-adv-x="527" 
d="M66 702q0 7 8 7h105q7 0 7 -7v-408h39q11 0 17 6q13 20 60.5 89t62.5 91q4 6 11 6h109q11 0 5 -10q-28 -45 -163 -215q-3 -5 0 -9q34 -40 101.5 -123t98.5 -120q1 -2 1 -4t-1.5 -3.5t-4.5 -1.5h-134q-8 0 -12 6q-21 28 -67 89.5t-71 95.5q-7 8 -17 8h-35v-190q0 -9 -7 -9
h-105q-8 0 -8 9v693z" />
    <glyph glyph-name="l" unicode="l" horiz-adv-x="269" 
d="M66 113v588q0 8 8 8h104q8 0 8 -8v-582q0 -38 31 -38q7 0 23 2q2 1 3.5 -0.5t1.5 -4.5v-67q0 -9 -7 -11q-22 -10 -63 -10q-53 0 -81 27.5t-28 95.5z" />
    <glyph glyph-name="m" unicode="m" horiz-adv-x="857" 
d="M627 496q29 0 56 -9.5t52 -30.5t40 -60.5t15 -93.5v-294q0 -8 -9 -8h-103q-8 0 -8 9v289q0 99 -82 99q-52 0 -104 -44q4 -24 4 -52v-292q0 -9 -7 -9h-104q-9 0 -9 8v290q0 99 -82 99q-48 0 -100 -42v-347q0 -8 -7 -8h-106q-7 0 -7 9v370q0 51 -5 99q0 8 8 8h92q5 0 10 -6
q1 -2 8 -42q72 58 148 58q87 0 128 -69q85 69 172 69z" />
    <glyph glyph-name="n" unicode="n" horiz-adv-x="559" 
d="M66 9v362q0 57 -5 107q0 8 7 8h91q9 0 12 -7q5 -15 7 -40q66 57 151 57q31 0 58.5 -9.5t52 -31t39 -63t14.5 -99.5v-285q0 -8 -8 -8h-104q-9 0 -9 9v285q0 103 -86 103q-52 0 -100 -43v-346q0 -8 -8 -8h-105q-7 0 -7 9z" />
    <glyph glyph-name="o" unicode="o" horiz-adv-x="574" 
d="M290 496q113 0 177 -71t64 -180q0 -117 -67.5 -186t-176.5 -69q-121 0 -182.5 74t-61.5 179q0 111 68 182t179 71zM284 407q-53 0 -85.5 -43.5t-32.5 -118.5q0 -76 32.5 -121t91.5 -45q51 0 84.5 40t33.5 122q0 75 -31 120.5t-93 45.5z" />
    <glyph glyph-name="p" unicode="p" horiz-adv-x="563" 
d="M278 496q118 0 180 -66.5t62 -169.5q0 -125 -87 -197t-203 -73q-22 0 -44 4v-196q0 -7 -7 -8l-106 -10q-7 -1 -7 6v603q0 32 -4 58q0 5 4 6q129 43 212 43zM265 399q-37 0 -79 -11v-299q19 -6 48 -6q69 0 115.5 44.5t46.5 126.5q0 71 -36 108t-95 37z" />
    <glyph glyph-name="q" unicode="q" horiz-adv-x="564" 
d="M284 -10q-107 0 -174 64.5t-67 179.5q0 114 79 188t213 74q87 0 164 -29q3 -2 3 -7q-4 -23 -4 -64v-598q0 -7 -7 -8q-56 -5 -108 -10q-6 0 -6 8v217q-41 -15 -93 -15zM377 99v296q-24 8 -56 8q-69 0 -111.5 -43t-42.5 -120q0 -78 42 -116t100 -38q41 0 68 13z" />
    <glyph glyph-name="r" unicode="r" horiz-adv-x="360" 
d="M67 486h94q8 0 11 -8q6 -21 10 -61q27 37 68.5 58t79.5 21q9 0 13 -1q6 -1 6 -10v-93q0 -7 -8 -7q-43 2 -85.5 -14.5t-68.5 -44.5v-318q0 -8 -8 -8h-105q-8 0 -8 8v337q0 80 -5 135q-1 6 6 6z" />
    <glyph glyph-name="s" unicode="s" horiz-adv-x="406" 
d="M345 366q-68 38 -139 38q-62 0 -62 -42q0 -19 16.5 -32t71.5 -35q80 -33 113.5 -66t33.5 -85q0 -73 -51 -113.5t-136 -40.5q-92 0 -155 39q-6 3 -6 10v92q0 4 2.5 5.5t4.5 -0.5q85 -54 162 -54q32 0 47 13t15 32q0 20 -18.5 34t-71.5 36q-78 32 -108.5 65.5t-30.5 88.5
q0 63 48.5 104t134.5 41q81 0 132 -29q6 -5 6 -13v-82q0 -11 -9 -6z" />
    <glyph glyph-name="t" unicode="t" horiz-adv-x="325" 
d="M302 84v-66q0 -9 -6 -11q-35 -17 -90 -17q-130 0 -130 139v266l-62 2q-7 1 -7 9v72q0 8 8 8h61q2 78 11 125q2 7 8 8l100 19q8 2 8 -5q-4 -43 -6 -147h101q7 0 7 -7v-74q0 -7 -6 -8l-103 -2v-245q0 -35 13 -51t44 -16q18 0 43 7q3 1 4.5 -0.5t1.5 -5.5z" />
    <glyph glyph-name="u" unicode="u" horiz-adv-x="553" 
d="M487 479v-369q0 -50 5 -103q1 -7 -7 -7h-93q-8 0 -10 6q-2 7 -5 36q-63 -52 -146 -52q-72 0 -118.5 42.5t-46.5 141.5v304q0 8 8 8h105q7 0 7 -7v-287q0 -104 84 -104q56 0 96 40v350q0 8 8 8h105q8 0 8 -7z" />
    <glyph glyph-name="v" unicode="v" horiz-adv-x="499" 
d="M309 0h-120q-8 0 -10 6q-4 11 -76 212t-92 260q-3 8 5 8h114q8 0 9 -7q103 -328 116 -386h2q16 65 120 387q2 6 9 6h100q9 0 6 -8q-23 -63 -97 -265.5t-75 -205.5q-3 -7 -11 -7z" />
    <glyph glyph-name="w" unicode="w" horiz-adv-x="745" 
d="M581 0h-112q-8 0 -11 8q-63 252 -85 354h-1q-14 -72 -97 -354q-3 -8 -11 -8h-111q-10 0 -13 9l-131 469q-3 8 6 8h107q8 0 9 -6q67 -256 89 -368h2q25 105 95 366q1 8 9 8h107q7 0 8 -6q67 -262 88 -371h2q33 161 93 370q1 7 8 7h99q7 0 6 -7l-145 -471q-3 -8 -11 -8z
" />
    <glyph glyph-name="x" unicode="x" horiz-adv-x="487" 
d="M162 242l-150 235q-4 9 6 9h119q9 0 13 -8l95 -171h2l100 174q3 5 9 5h106q10 0 5 -9q-100 -157 -151 -229q24 -36 85.5 -126t77.5 -114q6 -8 -5 -8h-124q-9 0 -12 8l-103 173h-2l-100 -175q-2 -6 -11 -6h-108q-4 0 -5.5 3t0.5 6q147 224 153 233z" />
    <glyph glyph-name="y" unicode="y" horiz-adv-x="487" 
d="M11 486h117q6 0 9 -7q101 -276 120 -339h1q51 134 107 339q3 7 10 7h99q9 0 7 -9q-48 -202 -164 -447q-85 -174 -145 -246q-6 -7 -16 -7h-114q-5 0 -6.5 3t2.5 7q35 42 83 114.5t68 114.5q5 11 3 17q-19 39 -90 208.5t-97 236.5q-2 8 6 8z" />
    <glyph glyph-name="z" unicode="z" horiz-adv-x="431" 
d="M399 0h-376q-6 0 -6 6v52q0 5 3 10q136 185 240 323h-97h-139q-10 0 -7 9l14 78q2 8 9 8h355q6 0 6 -7v-52q0 -8 -5 -14q-138 -200 -232 -319h115h138q7 0 6 -8l-16 -79q-1 -7 -8 -7z" />
    <glyph glyph-name="braceleft" unicode="{" horiz-adv-x="387" 
d="M33 250q-5 0 -5 6v78q0 5 5 5q66 0 92 20.5t28 68.5q1 23 -3 80t-4 77q0 26 9 52t30 53.5t63 48.5t100 30q7 1 7 -5l1 -74q0 -6 -6 -7q-103 -21 -103 -106q0 -23 3 -76.5t3 -74.5q0 -105 -105 -129v-4q106 -21 108 -132q0 -24 -4.5 -80t-4.5 -80q0 -40 23.5 -65t81.5 -36
q5 -2 5 -7v-76q0 -3 -1.5 -4.5t-3.5 -0.5q-99 10 -152 57.5t-53 122.5q0 28 4.5 80t4.5 78q0 50 -27 75t-96 25z" />
    <glyph glyph-name="bar" unicode="|" horiz-adv-x="236" 
d="M169 -196h-103v980h103v-980z" />
    <glyph glyph-name="braceright" unicode="}" horiz-adv-x="387" 
d="M353 338q5 0 5 -7v-77q0 -5 -5 -5q-67 0 -92.5 -20.5t-27.5 -69.5q0 -21 3.5 -81t3.5 -82q0 -26 -9 -52t-30 -53.5t-63 -48.5t-100 -30q-7 -1 -7 5v75q0 5 5 6q103 21 103 106q0 23 -3 79.5t-3 78.5q0 103 105 129v3q-107 23 -107 132q-1 26 3.5 79t4.5 75q0 40 -23.5 65
t-81.5 36q-5 2 -5 8v75q0 6 5 6q99 -10 152.5 -58t53.5 -123q0 -28 -5 -77t-5 -75q0 -50 27 -74.5t96 -24.5z" />
    <glyph glyph-name="asciitilde" unicode="~" horiz-adv-x="562" 
d="M116 188h-71q-6 1 -6 8q-3 91 33 134t96 43q33 0 59.5 -12t71.5 -44q39 -28 58.5 -38.5t38.5 -10.5q25 0 35.5 19.5t9.5 72.5q0 7 7 7h69q7 0 7 -6q6 -97 -30 -138t-95 -41q-61 0 -132 53q-10 7 -24.5 18t-21 16t-16 10.5t-16.5 7.5t-15 2q-54 0 -52 -94q0 -7 -6 -7z" />
    <glyph glyph-name="uni00A0" unicode="&#xa0;" horiz-adv-x="231" 
 />
    <glyph glyph-name="exclamdown" unicode="&#xa1;" horiz-adv-x="282" 
d="M116 -209q-41 0 -61 9q-6 4 -6 11v72q0 55 8 181t12 164q2 6 8 6h79q6 0 7 -6q19 -266 19 -342v-72q0 -7 -6 -11q-21 -12 -60 -12zM117 462q32 0 51.5 -18t19.5 -49q0 -30 -20 -49.5t-51 -19.5q-32 0 -52 19t-20 50t19.5 49t52.5 18z" />
    <glyph glyph-name="cent" unicode="&#xa2;" horiz-adv-x="546" 
d="M371 98v-88q0 -5 -6 -5h-82q-7 0 -7 6v88q-88 11 -142.5 73t-54.5 155q0 94 56.5 156t141.5 77v86q0 5 6 5h81q7 0 7 -5v-81q50 0 86 -19q5 -4 5 -10v-84q0 -8 -9 -5q-47 21 -108 21q-66 0 -106 -37t-40 -99q0 -69 44.5 -103.5t104.5 -34.5q62 0 111 22q6 2 6 -5v-81
q0 -7 -6 -10q-34 -20 -88 -22z" />
    <glyph glyph-name="sterling" unicode="&#xa3;" horiz-adv-x="546" 
d="M479 0h-436q-5 0 -5 5v69q0 5 5 7q54 17 79.5 64.5t25.5 108.5v26h-86q-6 0 -6 7v71q0 6 7 6h79q0 12 -0.5 34t-0.5 28q0 108 59 172.5t159 64.5q66 0 102 -19q9 -3 9 -13v-80q0 -9 -8 -6q-43 19 -89 19q-111 0 -111 -142v-58h143q6 0 6 -6v-72q0 -6 -6 -6h-141
q-2 -123 -72 -182h303q8 0 7 -7l-15 -85q-1 -6 -8 -6z" />
    <glyph glyph-name="currency" unicode="&#xa4;" horiz-adv-x="546" 
d="M168 327q0 -60 30.5 -89t72.5 -29q43 0 73 27.5t30 90.5q0 50 -27.5 84t-77.5 34q-46 0 -73.5 -32.5t-27.5 -85.5zM79 327q0 59 31 105l-73 71q-5 5 0 9l47 50q6 4 9 -1l73 -71q45 32 104 32t106 -32l73 69q5 5 9 0l47 -47q4 -4 -1 -9l-72 -71q32 -45 32 -106
q0 -60 -32 -106l71 -69q5 -5 0 -9l-47 -46q-5 -6 -10 1l-67 69q-40 -33 -108 -33q-65 0 -109 31l-64 -68q-7 -5 -11 -1l-46 45q-5 4 -1 10l69 69q-30 46 -30 108z" />
    <glyph glyph-name="yen" unicode="&#xa5;" horiz-adv-x="546" 
d="M319 0h-102q-8 1 -8 8v146h-129q-7 0 -7 7v59q0 7 7 7h129v61h-129q-7 0 -7 8v57q0 7 7 7h111l-172 286q-4 6 4 6h119q7 0 9 -4q105 -206 122 -255h2q18 50 118 253q3 6 9 6h115q7 0 4 -6l-169 -286h109q5 0 5 -6v-60q0 -6 -6 -6h-133v-61h133q6 0 6 -5v-61q0 -7 -7 -7
h-132v-147q-1 -7 -8 -7z" />
    <glyph glyph-name="brokenbar" unicode="&#xa6;" horiz-adv-x="236" 
d="M169 392h-102v392h102v-392zM169 196v-392h-103v392h103z" />
    <glyph glyph-name="section" unicode="&#xa7;" horiz-adv-x="498" 
d="M359 -17q51 49 51 122q0 52 -25.5 100.5t-97.5 121.5q-80 81 -103 119.5t-25 82.5q-38 -51 -37 -117q1 -50 27 -96t104 -130q65 -71 89 -115.5t17 -87.5zM72 -90v80q0 9 7 4q77 -56 156 -56q52 0 52 33q0 27 -19 54t-92 106q-74 81 -103.5 137t-29.5 122q0 107 75 190
t184 83q91 0 131 -34q5 -5 5 -9v-77q0 -4 -3.5 -5.5t-5.5 0.5q-60 45 -128 45q-30 0 -47.5 -12t-17.5 -30q0 -20 17.5 -45t90.5 -97q76 -76 112 -134.5t36 -137.5q0 -111 -75 -193.5t-183 -82.5q-52 0 -95 15t-62 33q-5 3 -5 11z" />
    <glyph glyph-name="dieresis" unicode="&#xa8;" 
d="M97 553q-27 0 -43.5 16.5t-16.5 44.5q0 27 17.5 44.5t44.5 17.5q26 0 42.5 -17t16.5 -45t-17 -44.5t-44 -16.5zM292 553q-27 0 -43.5 16.5t-16.5 44.5q0 27 17.5 44.5t43.5 17.5q27 0 43 -17t16 -45t-17 -44.5t-43 -16.5z" />
    <glyph glyph-name="copyright" unicode="&#xa9;" horiz-adv-x="759" 
d="M49 328q0 141 95 235t235 94t234.5 -94t94.5 -235q0 -144 -94.5 -238t-234.5 -94t-235 94.5t-95 237.5zM113 328q0 -119 76.5 -196.5t189.5 -77.5q121 0 193.5 76.5t72.5 197.5q0 118 -76.5 195t-189.5 77q-118 0 -192 -77t-74 -195zM508 237v-58q1 -4 -5 -8
q-37 -22 -102 -22q-86 0 -137.5 51.5t-51.5 125.5q0 79 55.5 131.5t141.5 52.5q59 0 91 -17q5 -3 5 -10l-1 -58q0 -5 -7 -4q-32 16 -79 16q-51 0 -82.5 -30t-31.5 -77q0 -51 33 -80t79 -29q49 0 87 19q5 3 5 -3z" />
    <glyph glyph-name="ordfeminine" unicode="&#xaa;" horiz-adv-x="359" 
d="M172 612q68 0 106 -35.5t38 -93.5v-166q0 -5 -6 -9q-78 -23 -138 -23q-64 0 -105.5 25.5t-41.5 78.5q0 95 203 103v6q0 45 -68 45q-51 0 -96 -19q-6 -2 -6 5v56q0 3 3 5q50 22 111 22zM112 391q0 -41 66 -41q32 0 50 6v80q-116 -3 -116 -45z" />
    <glyph glyph-name="guillemotleft" unicode="&#xab;" horiz-adv-x="673" 
d="M78 213v61q0 5 6 8l227 177q9 5 9 -6v-84q0 -8 -6 -12l-139 -114l140 -115q5 -5 5 -12v-86q0 -11 -10 -6l-227 180q-5 3 -5 9zM343 213v61q0 4 5 6l227 179q9 5 9 -6v-84q0 -7 -6 -12l-139 -114l139 -115q6 -5 6 -12v-86q0 -11 -9 -6l-227 180q-5 2 -5 9z" />
    <glyph glyph-name="logicalnot" unicode="&#xac;" horiz-adv-x="557" 
d="M36 402h484q6 0 6 -7v-280q0 -7 -5 -7h-78q-6 0 -6 7v201h-401q-6 0 -6 7v73q0 6 6 6z" />
    <glyph glyph-name="uni00AD" unicode="&#xad;" horiz-adv-x="354" 
d="M295 201h-235q-7 0 -7 7v87q0 7 7 7h235q6 0 6 -7v-87q0 -7 -6 -7z" />
    <glyph glyph-name="registered" unicode="&#xae;" horiz-adv-x="201" 
d="M117 444q-45 0 -74 29t-29 72q0 42 29 71t74 29q42 0 71 -29t29 -71q0 -43 -28.5 -72t-71.5 -29zM117 465q34 0 54.5 22t20.5 57t-21.5 58t-56.5 23q-33 0 -54 -22.5t-21 -58.5q0 -33 22 -56t56 -23zM101 533v-33q0 -3 -2 -3h-20q-3 0 -3 3v93q0 3 3 3h35q44 0 44 -30
q0 -19 -22 -27q2 -4 14 -19.5t15 -19.5q1 -1 0 -2t-2 -1h-23q-3 0 -5 2q-5 7 -21 31q-2 3 -4 3h-9zM101 576v-25h12q19 0 19 13q0 12 -19 12h-12z" />
    <glyph glyph-name="macron" unicode="&#xaf;" 
d="M56 661h282q6 0 6 -7v-71q0 -7 -7 -7h-282q-7 0 -7 7v71q0 7 8 7z" />
    <glyph glyph-name="degree" unicode="&#xb0;" horiz-adv-x="289" 
d="M146 628q55 0 90 -36.5t35 -91.5q0 -56 -35 -93t-90 -37q-56 0 -92 37.5t-36 92.5q0 54 36 91t92 37zM146 568q-28 0 -46 -19.5t-18 -48.5q0 -30 18 -49.5t46 -19.5q27 0 45 19.5t18 49.5q0 29 -18.5 48.5t-44.5 19.5z" />
    <glyph glyph-name="plusminus" unicode="&#xb1;" horiz-adv-x="557" 
d="M30 79q0 7 8 7h481q8 0 8 -8v-69q0 -9 -9 -9h-478q-10 0 -10 8v71zM241 627h76q7 0 7 -7v-194h196q7 0 7 -8v-71q0 -8 -7 -8h-196v-196q0 -7 -7 -7h-77q-6 0 -6 7v196h-197q-7 0 -7 7v73q0 7 7 7h197v194q0 7 7 7z" />
    <glyph glyph-name="twosuperior" unicode="&#xb2;" horiz-adv-x="339" 
d="M298 453h-267q-5 0 -5 5v42q0 5 2 7q7 5 31 21.5t35.5 24.5t32 24t31.5 27.5t23.5 26t18 29t5.5 28.5q0 27 -18 44.5t-54 17.5q-43 0 -96 -28q-8 -5 -8 3v58q0 7 6 9q52 32 120 32q67 0 102.5 -34t35.5 -87q0 -50 -33.5 -90t-97.5 -88h152q4 0 4 -5l-13 -62q-1 -5 -7 -5z
" />
    <glyph glyph-name="threesuperior" unicode="&#xb3;" horiz-adv-x="336" 
d="M136 606h-35q-5 0 -5 5v51q0 5 5 5h36q64 0 64 43q0 20 -16.5 32.5t-50.5 12.5q-48 0 -92 -24q-6 -2 -6 3v55q0 5 3 6q52 29 115 29q62 0 96 -27t34 -69q0 -59 -62 -81v-1q81 -19 81 -87q0 -56 -43 -84.5t-111 -28.5q-66 0 -113 25q-5 3 -5 9v60q0 5 6 3q52 -29 108 -29
q35 0 52.5 13.5t17.5 32.5q0 46 -79 46z" />
    <glyph glyph-name="acute" unicode="&#xb4;" 
d="M136 546l77 145q4 8 12 8h114q9 0 5 -9l-99 -146q-5 -5 -14 -5h-91q-8 0 -4 7z" />
    <glyph glyph-name="mu" unicode="&#xb5;" horiz-adv-x="573" 
d="M489 480v-352q1 -50 37 -50q12 0 24 2q3 1 4 0t1 -5v-65q0 -6 -4 -8q-24 -12 -63 -12q-89 0 -102 84q0 1 -0.5 7t-0.5 7q-41 -98 -133 -98q-50 0 -73 28q4 -52 4 -216q0 -8 -7 -9q-11 -1 -37.5 -3.5t-44 -4.5t-20.5 -2q-8 0 -8 9v687q0 7 8 7h106q7 0 7 -7v-315
q0 -35 18 -56.5t52 -21.5q47 0 79 43t32 130v221q0 6 6 6h109q6 0 6 -6z" />
    <glyph glyph-name="paragraph" unicode="&#xb6;" horiz-adv-x="494" 
d="M361 -168q-5 -5 -11 -5h-65q-7 0 -5 8q41 71 41 184v16q-54 4 -101 20t-89 45.5t-66.5 82.5t-24.5 123q0 107 72 179.5t206 89.5q4 49 18 78q3 6 9 6h67q6 0 5 -6q-17 -68 -17 -113q0 -95 2 -248t2 -231q0 -169 -43 -229z" />
    <glyph glyph-name="periodcentered" unicode="&#xb7;" horiz-adv-x="292" 
d="M147 183q-33 0 -53 20t-20 53q0 32 20.5 52.5t52.5 20.5t52.5 -20.5t20.5 -52.5q0 -33 -20 -53t-53 -20z" />
    <glyph glyph-name="cedilla" unicode="&#xb8;" 
d="M171 6h73l-35 -47q86 -24 86 -94q0 -42 -33.5 -69t-86.5 -27q-46 0 -72 14q-6 2 -6 11v47q0 8 7 5q31 -13 64 -13q42 0 42 30q0 35 -93 48q-2 2 -2.5 12t1.5 13z" />
    <glyph glyph-name="onesuperior" unicode="&#xb9;" horiz-adv-x="273" 
d="M111 459v283q-31 -12 -68 -20q-5 -2 -5 4v54q0 5 4 5q40 10 92 32q2 2 8 2h59q4 0 4 -5v-355q0 -6 -6 -6h-82q-6 0 -6 6z" />
    <glyph glyph-name="ordmasculine" unicode="&#xba;" horiz-adv-x="409" 
d="M207 612q82 0 127 -45.5t45 -116.5q0 -77 -47 -121t-127 -44q-90 0 -132.5 47t-42.5 116q0 73 47.5 118.5t129.5 45.5zM205 545q-36 0 -57 -25t-21 -70q0 -42 21 -69t59 -27q34 0 55.5 24t21.5 71q0 41 -19 68.5t-60 27.5z" />
    <glyph glyph-name="guillemotright" unicode="&#xbb;" horiz-adv-x="673" 
d="M594 269v-60q0 -6 -5 -8l-228 -177q-9 -5 -9 5v84q0 8 6 12l139 115l-138 114q-7 6 -7 12v87q0 12 10 5l227 -180q5 -2 5 -9zM329 269v-60q0 -5 -5 -7l-227 -178q-9 -5 -9 5v84q0 8 6 12l139 115l-139 114q-6 6 -6 12v87q2 11 10 5l227 -180q4 -3 4 -9z" />
    <glyph glyph-name="onequarter" unicode="&#xbc;" horiz-adv-x="736" 
d="M112 298v283q-35 -13 -68 -20q-5 -1 -5 4v54q0 5 4 5q46 12 91 32q4 2 9 2h58q5 0 5 -5v-355q0 -6 -6 -6h-82q-6 0 -6 6zM215 -11h-72q-7 0 -3 7l354 662q4 5 8 5h72q7 0 3 -6l-354 -662q-3 -6 -8 -6zM395 93v37q0 6 3 9q15 19 83 110t85 112q5 5 10 5h62q6 0 6 -6v-215
h60q4 0 4 -4l-8 -48q-2 -5 -5 -5h-51v-82q0 -7 -5 -7h-74q-5 0 -5 7v82h-161q-4 0 -4 5zM466 145h94q0 74 3 134h-3q-15 -26 -94 -134z" />
    <glyph glyph-name="onehalf" unicode="&#xbd;" horiz-adv-x="754" 
d="M105 298v283q-31 -12 -68 -20q-5 -2 -5 4v54q0 5 4 5q40 10 92 32q2 2 8 2h59q4 0 4 -5v-355q0 -6 -5 -6h-83q-6 0 -6 6zM194 -11h-71q-7 0 -4 7l355 663q3 4 7 4h73q2 0 3 -1.5t-1 -3.5l-353 -663q-5 -6 -9 -6zM710 0h-268q-5 0 -5 5v43q0 3 3 6q8 6 31 21.5t35 24.5
l32 24t31 27t23.5 27t18 29.5t5.5 28.5q0 27 -18 44t-54 17q-46 0 -95 -28q-8 -5 -8 4v58q0 5 5 9q55 31 121 32q66 0 102 -34.5t36 -86.5q0 -51 -33 -90.5t-98 -87.5h152q3 0 3 -5l-12 -63q-3 -5 -7 -5z" />
    <glyph glyph-name="threequarters" unicode="&#xbe;" horiz-adv-x="771" 
d="M145 445h-36q-4 0 -4 5v51q0 5 5 5h36q64 0 64 43q0 20 -16.5 32.5t-50.5 12.5q-48 0 -92 -24q-6 -2 -6 3v55q0 4 3 6q52 29 115 29q61 0 95.5 -27t34.5 -69q0 -59 -62 -81v-1q81 -19 81 -87q0 -56 -43 -84.5t-111 -28.5q-66 0 -113 25q-5 2 -5 9v60q0 5 6 3
q52 -29 108 -29q35 0 52.5 13.5t17.5 32.5q0 46 -79 46zM263 -11h-71q-8 0 -4 7l355 663q3 4 7 4h73q2 0 3 -1.5t-1 -3.5l-354 -663q-3 -6 -8 -6zM434 93v37q0 4 3 9q15 19 84 110t85 112q5 5 10 5h61q7 0 7 -6v-215h60q4 0 3 -4l-7 -48q-2 -5 -6 -5h-50v-83q0 -6 -6 -6h-73
q-6 0 -6 6v83h-160q-5 0 -5 5zM506 145h93q0 74 3 134h-2q-22 -35 -94 -134z" />
    <glyph glyph-name="questiondown" unicode="&#xbf;" horiz-adv-x="418" 
d="M227 -209q-86 0 -138.5 45t-52.5 118q0 37 22 74t48.5 61t48.5 50.5t22 44.5q0 24 -18 53q-4 8 5 8h88q7 0 12 -5q26 -29 26 -68q0 -27 -20.5 -55.5t-45 -49t-45 -49t-20.5 -55.5q0 -31 25 -52t69 -21q62 0 120 25q8 4 8 -4v-79q0 -8 -4 -10q-65 -31 -150 -31zM214 464
q31 0 50.5 -19t19.5 -51q0 -31 -19.5 -50t-50.5 -19t-50.5 19.5t-19.5 49.5q0 32 18.5 51t51.5 19z" />
    <glyph glyph-name="Agrave" unicode="&#xc0;" horiz-adv-x="658" 
d="M438 182h-229l-61 -174q-1 -8 -10 -8h-102q-10 0 -7 10q123 349 209 581q6 20 8 55q0 6 6 6h138q6 0 8 -5q190 -525 231 -638q3 -9 -6 -9h-112q-6 0 -9 6zM235 280h176q-9 30 -43.5 132.5t-45.5 139.5h-1q-7 -30 -20.5 -73t-35 -108t-30.5 -91zM282 817l107 -114
q6 -9 -4 -9h-98q-9 0 -15 6l-128 114q-3 3 -1.5 5.5t5.5 2.5h122q9 0 12 -5z" />
    <glyph glyph-name="Aacute" unicode="&#xc1;" horiz-adv-x="658" 
d="M438 182h-229l-61 -174q-1 -8 -10 -8h-102q-10 0 -7 10q123 349 209 581q6 20 8 55q0 6 6 6h138q6 0 8 -5q190 -525 231 -638q3 -9 -6 -9h-112q-6 0 -9 6zM235 280h176q-9 30 -43.5 132.5t-45.5 139.5h-1q-7 -30 -20.5 -73t-35 -108t-30.5 -91zM253 703l108 116q3 4 11 4
h120q8 0 3 -8l-124 -113q-7 -7 -14 -7h-100q-3 0 -4.5 3t0.5 5z" />
    <glyph glyph-name="Acircumflex" unicode="&#xc2;" horiz-adv-x="658" 
d="M438 182h-229l-61 -174q-1 -8 -10 -8h-102q-10 0 -7 10q123 349 209 581q6 20 8 55q0 6 6 6h138q6 0 8 -5q190 -525 231 -638q3 -9 -6 -9h-112q-6 0 -9 6zM235 280h176q-9 30 -43.5 132.5t-45.5 139.5h-1q-7 -30 -20.5 -73t-35 -108t-30.5 -91zM385 698l-63 65l-63 -65
q-4 -5 -10 -5h-90q-3 0 -4 3t2 5l112 116q4 4 10 4h90q7 0 12 -5l116 -117q6 -6 -4 -6h-96q-7 0 -12 5z" />
    <glyph glyph-name="Atilde" unicode="&#xc3;" horiz-adv-x="658" 
d="M438 182h-229l-61 -174q-1 -8 -10 -8h-102q-10 0 -7 10q123 349 209 581q6 20 8 55q0 6 6 6h138q6 0 8 -5q190 -525 231 -638q3 -9 -6 -9h-112q-6 0 -9 6zM235 280h176q-9 30 -43.5 132.5t-45.5 139.5h-1q-7 -30 -20.5 -73t-35 -108t-30.5 -91zM230 700h-67q-7 0 -8 6
q1 61 30 93.5t72 32.5q36 0 76.5 -25t53.5 -25q26 0 29 41q0 6 6 6h66q7 0 7 -6q-4 -124 -97 -124q-34 0 -74 24.5t-56 24.5q-27 0 -32 -42q0 -6 -6 -6z" />
    <glyph glyph-name="Adieresis" unicode="&#xc4;" horiz-adv-x="658" 
d="M438 182h-229l-61 -174q-1 -8 -10 -8h-102q-10 0 -7 10q123 349 209 581q6 20 8 55q0 6 6 6h138q6 0 8 -5q190 -525 231 -638q3 -9 -6 -9h-112q-6 0 -9 6zM235 280h176q-9 30 -43.5 132.5t-45.5 139.5h-1q-7 -30 -20.5 -73t-35 -108t-30.5 -91zM219 700q-29 0 -46.5 16
t-17.5 43q0 26 18.5 43t47.5 17q28 0 45.5 -17t17.5 -43q0 -27 -18 -43t-47 -16zM426 700q-28 0 -45.5 16t-17.5 43q0 26 18.5 43t46.5 17t46 -17t18 -43q0 -27 -18 -43t-48 -16z" />
    <glyph glyph-name="Aring" unicode="&#xc5;" horiz-adv-x="658" 
d="M438 182h-229l-61 -174q-1 -8 -10 -8h-102q-10 0 -7 10q123 349 209 581q6 20 8 55q0 6 6 6h138q6 0 8 -5q190 -525 231 -638q3 -9 -6 -9h-112q-6 0 -9 6zM235 280h176q-9 30 -43.5 132.5t-45.5 139.5h-1q-7 -30 -20.5 -73t-35 -108t-30.5 -91zM214 762q0 42 30.5 66
t77.5 24q48 0 78.5 -25t30.5 -65q0 -43 -30.5 -67.5t-78.5 -24.5t-78 24.5t-30 67.5zM278 762q0 -19 12 -30t32 -11t32.5 11t12.5 30q0 18 -12.5 29t-32.5 11t-32 -11t-12 -29z" />
    <glyph glyph-name="AE" unicode="&#xc6;" horiz-adv-x="868" 
d="M147 0h-112q-9 0 -6 9l261 586q9 26 15 52q1 5 7 5h453q7 0 8 -6l11 -85q0 -6 -7 -6h-269l22 -183h241q6 0 6 -6v-85q0 -6 -6 -6h-226l21 -178h265q6 0 6 -7l-15 -84q-1 -6 -8 -6h-350q-5 0 -5 4l-25 197h-194l-84 -195q-3 -6 -9 -6zM277 298h145l-21 163q-1 14 -5.5 52
t-6.5 56h-2q-21 -56 -39 -103z" />
    <glyph glyph-name="Ccedilla" unicode="&#xc7;" horiz-adv-x="601" 
d="M550 631v-91q0 -8 -7 -6q-59 25 -134 25q-104 0 -168 -62t-64 -169q0 -64 21.5 -111.5t56.5 -72t72.5 -35.5t78.5 -11q79 0 144 27q7 3 7 -6v-87q0 -10 -7 -12q-49 -25 -141 -30l-23 -31q85 -24 85 -94q0 -43 -33 -69.5t-86 -26.5q-44 0 -74 14q-5 1 -5 8v51q0 7 6 4
q31 -13 65 -13q43 0 43 30q0 35 -94 48q-2 2 -2.5 12t2.5 13l44 57q-124 14 -204 97t-80 235q0 145 97.5 241.5t255.5 96.5q95 0 139 -22q5 -3 5 -10z" />
    <glyph glyph-name="Egrave" unicode="&#xc8;" horiz-adv-x="538" 
d="M505 89l-14 -81q-1 -8 -10 -8h-397q-8 0 -8 9v635q0 8 8 8h385q8 0 9 -6l10 -82q2 -9 -6 -9h-285v-173h257q7 0 7 -7v-84q0 -7 -8 -7h-256v-187h302q7 0 6 -8zM245 825l107 -114q6 -9 -4 -9h-98q-9 0 -15 6l-128 114q-3 3 -2 5.5t6 2.5h122q9 0 12 -5z" />
    <glyph glyph-name="Eacute" unicode="&#xc9;" horiz-adv-x="538" 
d="M505 89l-14 -81q-1 -8 -10 -8h-397q-8 0 -8 9v635q0 8 8 8h385q8 0 9 -6l10 -82q2 -9 -6 -9h-285v-173h257q7 0 7 -7v-84q0 -7 -8 -7h-256v-187h302q7 0 6 -8zM210 707l107 116q4 5 12 5h119q9 0 4 -8l-125 -114q-6 -6 -14 -6h-99q-4 0 -5 2.5t1 4.5z" />
    <glyph glyph-name="Ecircumflex" unicode="&#xca;" horiz-adv-x="538" 
d="M505 89l-14 -81q-1 -8 -10 -8h-397q-8 0 -8 9v635q0 8 8 8h385q8 0 9 -6l10 -82q2 -9 -6 -9h-285v-173h257q7 0 7 -7v-84q0 -7 -8 -7h-256v-187h302q7 0 6 -8zM336 705l-63 65l-62 -64q-6 -6 -11 -6h-90q-3 0 -4 3t2 5l112 117q4 3 10 3h90q9 0 12 -4l116 -118
q6 -6 -4 -6h-96q-7 0 -12 5z" />
    <glyph glyph-name="Edieresis" unicode="&#xcb;" horiz-adv-x="538" 
d="M505 89l-14 -81q-1 -8 -10 -8h-397q-8 0 -8 9v635q0 8 8 8h385q8 0 9 -6l10 -82q2 -9 -6 -9h-285v-173h257q7 0 7 -7v-84q0 -7 -8 -7h-256v-187h302q7 0 6 -8zM171 705q-29 0 -46.5 16t-17.5 43q0 26 18.5 43t47.5 17t46.5 -17t17.5 -43q0 -27 -18.5 -43t-47.5 -16z
M379 705q-28 0 -46 16t-18 43q0 26 19 43t47 17t46 -17t18 -43q0 -27 -18 -43t-48 -16z" />
    <glyph glyph-name="Igrave" unicode="&#xcc;" horiz-adv-x="273" 
d="M197 645v-636q0 -9 -9 -9h-104q-8 0 -8 9v636q0 7 8 7h105q8 0 8 -7zM95 825l107 -115q6 -8 -4 -8h-99q-8 0 -14 5l-128 114q-3 3 -2 6t5 3h123q8 0 12 -5z" />
    <glyph glyph-name="Iacute" unicode="&#xcd;" horiz-adv-x="273" 
d="M197 645v-636q0 -9 -9 -9h-104q-8 0 -8 9v636q0 7 8 7h105q8 0 8 -7zM70 703l107 116q4 5 12 5h119q4 0 4.5 -3t-1.5 -5l-124 -114q-7 -6 -14 -6h-99q-4 0 -5 2.5t1 4.5z" />
    <glyph glyph-name="Icircumflex" unicode="&#xce;" horiz-adv-x="273" 
d="M197 645v-636q0 -9 -9 -9h-104q-8 0 -8 9v636q0 7 8 7h105q8 0 8 -7zM195 701l-63 65l-62 -65q-6 -6 -11 -6h-90q-3 0 -3.5 3.5t1.5 5.5l112 116q4 4 10 4h90q9 0 12 -5l116 -117q2 -2 1 -4.5t-5 -2.5h-96q-6 0 -12 6z" />
    <glyph glyph-name="Idieresis" unicode="&#xcf;" horiz-adv-x="273" 
d="M197 645v-636q0 -9 -9 -9h-104q-8 0 -8 9v636q0 7 8 7h105q8 0 8 -7zM31 704q-29 0 -46.5 16t-17.5 43q0 26 19 43t48 17q28 0 45.5 -17t17.5 -43q0 -27 -18.5 -43t-47.5 -16zM239 704q-28 0 -46 16t-18 43q0 26 19 43t47 17t46 -17t18 -43q0 -28 -18 -43.5t-48 -15.5z
" />
    <glyph glyph-name="Eth" unicode="&#xd0;" horiz-adv-x="687" 
d="M86 9v282h-60q-6 0 -6 7v73q0 5 6 5h60v270q0 6 5 6q70 3 192 3q167 0 258.5 -85t91.5 -235q0 -83 -26 -146t-64 -98.5t-90 -57.5t-95.5 -29t-89.5 -7q-86 0 -174 3q-8 0 -8 9zM207 557v-181h136q6 0 6 -6v-73q0 -6 -6 -6h-136v-196q2 0 23 -1t40 -1q110 0 174.5 59
t64.5 180q0 114 -61 170.5t-165 56.5q-54 0 -76 -2z" />
    <glyph glyph-name="Ntilde" unicode="&#xd1;" horiz-adv-x="684" 
d="M76 646q0 6 7 6h135q8 0 12 -6q246 -449 265 -494h2q-3 81 -3 168v325q0 7 8 7h97q8 0 8 -8v-635q0 -9 -9 -9h-131q-7 0 -13 7q-27 59 -137.5 265.5t-130.5 253.5h-1q4 -51 4 -197v-321q0 -8 -7 -8h-97q-9 0 -9 9v637zM252 708h-67q-7 0 -7 6q0 61 29 93.5t72 32.5
q36 0 76.5 -25.5t53.5 -25.5q26 0 29 42q0 6 6 6h66q7 0 7 -6q-4 -125 -97 -125q-33 0 -73.5 24.5t-56.5 24.5q-28 0 -32 -42q0 -5 -6 -5z" />
    <glyph glyph-name="Ograve" unicode="&#xd2;" horiz-adv-x="724" 
d="M363 663q139 0 223 -95t85 -238q0 -158 -85.5 -249t-223.5 -91q-143 0 -226.5 91.5t-83.5 246.5q0 150 86.5 242.5t224.5 92.5zM177 327q0 -106 50.5 -171t138.5 -65q85 0 133 63t48 173q0 106 -50.5 171t-135.5 65q-82 0 -133 -62.5t-51 -173.5zM324 830l106 -114
q6 -9 -4 -9h-98q-8 0 -14 6l-129 114q-6 8 4 8h122q9 0 13 -5z" />
    <glyph glyph-name="Oacute" unicode="&#xd3;" horiz-adv-x="724" 
d="M363 663q139 0 223 -95t85 -238q0 -158 -85.5 -249t-223.5 -91q-143 0 -226.5 91.5t-83.5 246.5q0 150 86.5 242.5t224.5 92.5zM177 327q0 -106 50.5 -171t138.5 -65q85 0 133 63t48 173q0 106 -50.5 171t-135.5 65q-82 0 -133 -62.5t-51 -173.5zM288 712l108 117
q3 4 11 4h120q8 0 3 -8l-124 -114q-8 -6 -14 -6h-100q-3 0 -4.5 2.5t0.5 4.5z" />
    <glyph glyph-name="Ocircumflex" unicode="&#xd4;" horiz-adv-x="724" 
d="M363 663q139 0 223 -95t85 -238q0 -158 -85.5 -249t-223.5 -91q-143 0 -226.5 91.5t-83.5 246.5q0 150 86.5 242.5t224.5 92.5zM177 327q0 -106 50.5 -171t138.5 -65q85 0 133 63t48 173q0 106 -50.5 171t-135.5 65q-82 0 -133 -62.5t-51 -173.5zM420 709l-63 65l-62 -65
q-5 -5 -11 -5h-89q-4 0 -4.5 3t1.5 5l112 116q4 4 10 4h90q9 0 12 -5l117 -117q4 -6 -4 -6h-97q-7 0 -12 5z" />
    <glyph glyph-name="Otilde" unicode="&#xd5;" horiz-adv-x="724" 
d="M363 663q139 0 223 -95t85 -238q0 -158 -85.5 -249t-223.5 -91q-143 0 -226.5 91.5t-83.5 246.5q0 150 86.5 242.5t224.5 92.5zM177 327q0 -106 50.5 -171t138.5 -65q85 0 133 63t48 173q0 106 -50.5 171t-135.5 65q-82 0 -133 -62.5t-51 -173.5zM267 709h-67q-7 0 -7 6
q0 61 29 93.5t72 32.5q36 0 76.5 -25.5t53.5 -25.5q26 0 29 42q0 6 6 6h66q7 0 7 -6q-4 -125 -97 -125q-33 0 -74 24.5t-56 24.5q-28 0 -32 -42q0 -5 -6 -5z" />
    <glyph glyph-name="Odieresis" unicode="&#xd6;" horiz-adv-x="724" 
d="M363 663q139 0 223 -95t85 -238q0 -158 -85.5 -249t-223.5 -91q-143 0 -226.5 91.5t-83.5 246.5q0 150 86.5 242.5t224.5 92.5zM177 327q0 -106 50.5 -171t138.5 -65q85 0 133 63t48 173q0 106 -50.5 171t-135.5 65q-82 0 -133 -62.5t-51 -173.5zM257 708q-29 0 -46.5 16
t-17.5 42q0 27 18.5 43.5t47.5 16.5q28 0 45.5 -17t17.5 -43t-18 -42t-47 -16zM464 708q-28 0 -45.5 15.5t-17.5 42.5t18.5 43.5t47.5 16.5q28 0 45.5 -17t17.5 -43q0 -27 -18 -42.5t-48 -15.5z" />
    <glyph glyph-name="multiply" unicode="&#xd7;" horiz-adv-x="557" 
d="M41 454l46 47q5 5 12 0l180 -188l181 188q7 5 12 0l45 -48q5 -6 0 -11l-182 -185l183 -186q7 -4 0 -11l-47 -47q-6 -4 -12 2l-180 185l-181 -186q-6 -6 -10 -1l-48 49q-5 5 1 11l181 184l-182 186q-4 4 1 11z" />
    <glyph glyph-name="Oslash" unicode="&#xd8;" horiz-adv-x="724" 
d="M198 34l-22 -30q-1 -4 -8 -4h-71q-9 0 -4 7l49 69q-89 94 -89 251q-1 150 86 243t225 93q88 0 152 -40l18 25q3 4 8 4h71q8 0 5 -6l-44 -66q45 -42 71 -107t26 -143q1 -155 -83.5 -247.5t-221.5 -92.5q-98 0 -168 44zM216 177l241 356q-39 31 -98 31q-79 0 -131 -61
t-52 -175q0 -92 40 -151zM504 480l-239 -359q43 -33 103 -33q86 1 133.5 65t47.5 175q0 100 -45 152z" />
    <glyph glyph-name="Ugrave" unicode="&#xd9;" horiz-adv-x="678" 
d="M197 645v-405q0 -71 36.5 -110.5t107.5 -39.5q140 0 140 154v400q0 8 8 8h104q9 0 9 -8v-401q0 -130 -72.5 -191.5t-190.5 -61.5q-121 0 -192 62.5t-71 185.5v406q0 8 8 8h105q8 0 8 -7zM310 818l106 -114q6 -9 -4 -9h-98q-9 0 -14 5l-129 115q-6 8 4 8h122q9 0 13 -5z
" />
    <glyph glyph-name="Uacute" unicode="&#xda;" horiz-adv-x="678" 
d="M197 645v-405q0 -71 36.5 -110.5t107.5 -39.5q140 0 140 154v400q0 8 8 8h104q9 0 9 -8v-401q0 -130 -72.5 -191.5t-190.5 -61.5q-121 0 -192 62.5t-71 185.5v406q0 8 8 8h105q8 0 8 -7zM273 701l108 116q3 5 11 5h120q8 0 3 -8l-125 -114q-6 -6 -14 -6h-99
q-3 0 -4.5 2.5t0.5 4.5z" />
    <glyph glyph-name="Ucircumflex" unicode="&#xdb;" horiz-adv-x="678" 
d="M197 645v-405q0 -71 36.5 -110.5t107.5 -39.5q140 0 140 154v400q0 8 8 8h104q9 0 9 -8v-401q0 -130 -72.5 -191.5t-190.5 -61.5q-121 0 -192 62.5t-71 185.5v406q0 8 8 8h105q8 0 8 -7zM400 701l-63 65l-62 -64q-5 -6 -11 -6h-89q-4 0 -4.5 3t1.5 5l112 116q4 4 10 4h90
q10 0 12 -5l116 -117q6 -6 -3 -6h-97q-7 0 -12 5z" />
    <glyph glyph-name="Udieresis" unicode="&#xdc;" horiz-adv-x="678" 
d="M197 645v-405q0 -71 36.5 -110.5t107.5 -39.5q140 0 140 154v400q0 8 8 8h104q9 0 9 -8v-401q0 -130 -72.5 -191.5t-190.5 -61.5q-121 0 -192 62.5t-71 185.5v406q0 8 8 8h105q8 0 8 -7zM234 704q-29 0 -47 16t-18 43q0 26 19 43t48 17q28 0 45.5 -17t17.5 -44
q0 -26 -18 -42t-47 -16zM441 704q-28 0 -46 15.5t-18 42.5t19 44t47 17t46 -17.5t18 -43.5q0 -27 -18 -42.5t-48 -15.5z" />
    <glyph glyph-name="Yacute" unicode="&#xdd;" horiz-adv-x="597" 
d="M230 262l-215 381q-5 9 6 9h121q6 0 9 -5q125 -243 154 -308q33 72 149 308q1 5 8 5h116q8 0 4 -7l-216 -386q-8 -13 -8 -31v-219q0 -9 -9 -9h-103q-9 0 -9 9v224q0 16 -7 29zM233 703l108 116q3 4 11 4h120q8 0 3 -8l-125 -113q-6 -7 -14 -7h-99q-4 0 -5 3t1 5z" />
    <glyph glyph-name="Thorn" unicode="&#xde;" horiz-adv-x="570" 
d="M75 7v640q0 5 6 5h107q8 0 8 -6v-116q30 2 82 2q112 0 178 -51t66 -150q0 -107 -72.5 -158t-190.5 -51q-12 0 -35 0.5t-28 0.5v-115q0 -8 -7 -8h-107q-7 0 -7 7zM196 436v-217q28 -2 64 -2q72 0 107.5 29t35.5 82q0 110 -138 110q-43 0 -69 -2z" />
    <glyph glyph-name="germandbls" unicode="&#xdf;" horiz-adv-x="598" 
d="M190 0h-108q-7 0 -7 8v388l-61 2q-5 0 -5 8v73q0 7 5 7h61q4 108 70 170t175 62q59 0 103 -18.5t67.5 -48t34.5 -60t11 -61.5q0 -37 -7 -51q-49 -49 -125 -97q4 -3 28.5 -21t46.5 -35q55 -43 74 -79.5t19 -84.5q0 -74 -53 -123t-141 -49q-84 0 -127 27q-7 5 -7 16v87
q0 9 7 4q59 -35 127 -35q35 0 55.5 19t20.5 46q0 24 -12.5 43t-47.5 47q-55 44 -103 71q-3 3 -3 7v81q0 2 2 6q89 59 128 100q2 10 2 24q0 38 -27 67.5t-76 29.5q-121 0 -121 -157v-465q0 -8 -6 -8z" />
    <glyph glyph-name="agrave" unicode="&#xe0;" horiz-adv-x="507" 
d="M324 90v139q-95 4 -135 -15.5t-40 -61.5q0 -31 25.5 -51.5t76.5 -20.5q46 0 73 10zM441 303v-198q0 -31 3 -62q0 -4 -3 -5q-102 -48 -209 -48q-89 0 -145 40t-56 120q0 171 293 159v16q0 10 -3.5 20.5t-13.5 23.5t-31.5 21t-51.5 8q-71 0 -137 -33q-8 -2 -8 6v78
q0 8 6 10q74 37 162 37q96 0 145 -53t49 -140zM244 694l83 -147q6 -8 -4 -8h-92q-6 0 -10 6l-106 145q-5 9 3 9h116q8 0 10 -5z" />
    <glyph glyph-name="aacute" unicode="&#xe1;" horiz-adv-x="507" 
d="M324 90v139q-95 4 -135 -15.5t-40 -61.5q0 -31 25.5 -51.5t76.5 -20.5q46 0 73 10zM441 303v-198q0 -31 3 -62q0 -4 -3 -5q-102 -48 -209 -48q-89 0 -145 40t-56 120q0 171 293 159v16q0 10 -3.5 20.5t-13.5 23.5t-31.5 21t-51.5 8q-71 0 -137 -33q-8 -2 -8 6v78
q0 8 6 10q74 37 162 37q96 0 145 -53t49 -140zM194 546l77 145q4 8 12 8h114q9 0 5 -9l-99 -146q-5 -5 -14 -5h-91q-8 0 -4 7z" />
    <glyph glyph-name="acircumflex" unicode="&#xe2;" horiz-adv-x="507" 
d="M324 90v139q-95 4 -135 -15.5t-40 -61.5q0 -31 25.5 -51.5t76.5 -20.5q46 0 73 10zM441 303v-198q0 -31 3 -62q0 -4 -3 -5q-102 -48 -209 -48q-89 0 -145 40t-56 120q0 171 293 159v16q0 10 -3.5 20.5t-13.5 23.5t-31.5 21t-51.5 8q-71 0 -137 -33q-8 -2 -8 6v78
q0 8 6 10q74 37 162 37q96 0 145 -53t49 -140zM250 637q-36 -60 -63 -97q-3 -4 -9 -4h-76q-4 0 -4.5 3t1.5 5l100 148q4 4 9 4h89q7 0 9 -5l103 -148q2 -2 1 -4.5t-5 -2.5h-83q-6 0 -10 4q-46 71 -62 97z" />
    <glyph glyph-name="atilde" unicode="&#xe3;" horiz-adv-x="507" 
d="M324 90v139q-95 4 -135 -15.5t-40 -61.5q0 -31 25.5 -51.5t76.5 -20.5q46 0 73 10zM441 303v-198q0 -31 3 -62q0 -4 -3 -5q-102 -48 -209 -48q-89 0 -145 40t-56 120q0 171 293 159v16q0 10 -3.5 20.5t-13.5 23.5t-31.5 21t-51.5 8q-71 0 -137 -33q-8 -2 -8 6v78
q0 8 6 10q74 37 162 37q96 0 145 -53t49 -140zM153 555h-66q-7 0 -7 7q0 64 29 97t74 33q35 0 80 -25t57 -25q28 0 31 43q0 6 6 6h66q7 0 7 -6q-3 -132 -99 -132q-31 0 -75.5 24.5t-61.5 24.5q-32 0 -35 -42q0 -5 -6 -5z" />
    <glyph glyph-name="adieresis" unicode="&#xe4;" horiz-adv-x="507" 
d="M324 90v139q-95 4 -135 -15.5t-40 -61.5q0 -31 25.5 -51.5t76.5 -20.5q46 0 73 10zM441 303v-198q0 -31 3 -62q0 -4 -3 -5q-102 -48 -209 -48q-89 0 -145 40t-56 120q0 171 293 159v16q0 10 -3.5 20.5t-13.5 23.5t-31.5 21t-51.5 8q-71 0 -137 -33q-8 -2 -8 6v78
q0 8 6 10q74 37 162 37q96 0 145 -53t49 -140zM156 553q-26 0 -43 16.5t-17 44.5q0 27 17.5 44.5t44.5 17.5q26 0 42.5 -17t16.5 -45t-17 -44.5t-44 -16.5zM351 553q-27 0 -43.5 16.5t-16.5 44.5q0 27 17.5 44.5t43.5 17.5q27 0 43 -17t16 -45t-16.5 -44.5t-43.5 -16.5z" />
    <glyph glyph-name="aring" unicode="&#xe5;" horiz-adv-x="507" 
d="M324 90v139q-95 4 -135 -15.5t-40 -61.5q0 -31 25.5 -51.5t76.5 -20.5q46 0 73 10zM441 303v-198q0 -31 3 -62q0 -4 -3 -5q-102 -48 -209 -48q-89 0 -145 40t-56 120q0 171 293 159v16q0 10 -3.5 20.5t-13.5 23.5t-31.5 21t-51.5 8q-71 0 -137 -33q-8 -2 -8 6v78
q0 8 6 10q74 37 162 37q96 0 145 -53t49 -140zM146 625q0 42 30 69t78 27t78 -27t30 -69q0 -44 -30 -70.5t-78 -26.5q-49 0 -78.5 26t-29.5 71zM208 625q0 -20 13 -32t33 -12t33 12t13 32t-13.5 32t-32.5 12q-20 0 -33 -12t-13 -32z" />
    <glyph glyph-name="ae" unicode="&#xe6;" horiz-adv-x="800" 
d="M148 149q0 -32 24 -50t67 -18q60 0 108 37q-22 43 -23 102h-62q-52 0 -83 -18t-31 -53zM29 148q0 75 64.5 111t168.5 36h63v24q0 81 -107 81q-66 0 -133 -30q-8 -3 -8 6v76q0 6 5 8q77 36 158 36q116 0 152 -73q59 73 163 73q55 0 96.5 -19.5t64.5 -51t34.5 -66
t11.5 -70.5q0 -64 -10 -67q-26 -7 -106 -7h-210q2 -56 41.5 -91t116.5 -35q64 0 126 25q7 4 7 -4v-79q0 -7 -6 -11q-57 -30 -157 -30q-108 0 -166 60q-80 -60 -182 -60q-34 0 -65.5 8.5t-59.5 26t-45 49.5t-17 74zM549 410q-46 0 -77 -32t-35 -85h176q31 0 33 6q2 5 2 19
q0 31 -24 61.5t-75 30.5z" />
    <glyph glyph-name="ccedilla" unicode="&#xe7;" horiz-adv-x="447" 
d="M412 468l-1 -81q0 -9 -7 -5q-41 18 -90 18q-67 0 -107 -42.5t-40 -113.5q0 -78 41.5 -116.5t102.5 -38.5q53 0 93 18q7 1 7 -5v-81q0 -7 -5 -9q-41 -20 -96 -21l-23 -32q86 -24 86 -94q0 -42 -33.5 -69t-86.5 -27q-46 0 -72 14q-6 2 -6 11v47q0 8 7 5q31 -13 64 -13
q42 0 42 30q0 35 -93 48q-2 2 -2.5 12t1.5 13l45 57q-95 15 -145.5 82t-50.5 166q0 112 73 183.5t190 71.5q65 0 101 -18q5 -2 5 -10z" />
    <glyph glyph-name="egrave" unicode="&#xe8;" horiz-adv-x="521" 
d="M369 219h-204q2 -60 39.5 -95t110.5 -35q68 0 125 25q6 2 6 -5v-80q0 -8 -6 -11q-52 -26 -150 -28q-66 0 -115.5 21t-77.5 57t-41.5 79.5t-13.5 92.5q0 111 63 183.5t172 72.5q53 0 94 -18.5t64.5 -49t35.5 -65.5t12 -72q0 -59 -9 -66q-14 -6 -105 -6zM165 296h160
q42 0 44 8v11q0 32 -23 63.5t-74 31.5q-47 0 -74 -31.5t-33 -82.5zM253 694l83 -147q6 -8 -4 -8h-93q-5 0 -9 6l-106 145q-5 9 3 9h116q6 0 10 -5z" />
    <glyph glyph-name="eacute" unicode="&#xe9;" horiz-adv-x="521" 
d="M369 219h-204q2 -60 39.5 -95t110.5 -35q68 0 125 25q6 2 6 -5v-80q0 -8 -6 -11q-52 -26 -150 -28q-66 0 -115.5 21t-77.5 57t-41.5 79.5t-13.5 92.5q0 111 63 183.5t172 72.5q53 0 94 -18.5t64.5 -49t35.5 -65.5t12 -72q0 -59 -9 -66q-14 -6 -105 -6zM165 296h160
q42 0 44 8v11q0 32 -23 63.5t-74 31.5q-47 0 -74 -31.5t-33 -82.5zM209 546l77 145q4 8 12 8h114q10 0 5 -9l-99 -146q-5 -5 -14 -5h-91q-7 0 -4 7z" />
    <glyph glyph-name="ecircumflex" unicode="&#xea;" horiz-adv-x="521" 
d="M369 219h-204q2 -60 39.5 -95t110.5 -35q68 0 125 25q6 2 6 -5v-80q0 -8 -6 -11q-52 -26 -150 -28q-66 0 -115.5 21t-77.5 57t-41.5 79.5t-13.5 92.5q0 111 63 183.5t172 72.5q53 0 94 -18.5t64.5 -49t35.5 -65.5t12 -72q0 -59 -9 -66q-14 -6 -105 -6zM165 296h160
q42 0 44 8v11q0 32 -23 63.5t-74 31.5q-47 0 -74 -31.5t-33 -82.5zM267 637q-36 -60 -63 -97q-3 -4 -9 -4h-75q-3 0 -4.5 1.5t-1.5 3t2 3.5l100 148q4 4 9 4h89q6 0 9 -5l103 -148q2 -2 1 -4.5t-5 -2.5h-83q-6 0 -10 4q-46 71 -62 97z" />
    <glyph glyph-name="edieresis" unicode="&#xeb;" horiz-adv-x="521" 
d="M369 219h-204q2 -60 39.5 -95t110.5 -35q68 0 125 25q6 2 6 -5v-80q0 -8 -6 -11q-52 -26 -150 -28q-66 0 -115.5 21t-77.5 57t-41.5 79.5t-13.5 92.5q0 111 63 183.5t172 72.5q53 0 94 -18.5t64.5 -49t35.5 -65.5t12 -72q0 -59 -9 -66q-14 -6 -105 -6zM165 296h160
q42 0 44 8v11q0 32 -23 63.5t-74 31.5q-47 0 -74 -31.5t-33 -82.5zM168 553q-26 0 -43 16.5t-17 44.5q0 27 17.5 44.5t44.5 17.5q26 0 42.5 -17t16.5 -45t-17 -44.5t-44 -16.5zM363 553q-27 0 -43.5 16.5t-16.5 44.5q0 27 17.5 44.5t43.5 17.5q27 0 43 -17t16 -45
t-16.5 -44.5t-43.5 -16.5z" />
    <glyph glyph-name="igrave" unicode="&#xec;" horiz-adv-x="253" 
d="M66 9v469q0 8 7 8h106q8 0 8 -8v-470q0 -8 -8 -8h-104q-9 0 -9 9zM100 694l83 -147q4 -8 -5 -8h-92q-5 0 -9 6l-107 145q-4 9 4 9h116q6 0 10 -5z" />
    <glyph glyph-name="iacute" unicode="&#xed;" horiz-adv-x="253" 
d="M66 9v469q0 8 7 8h106q8 0 8 -8v-470q0 -8 -8 -8h-104q-9 0 -9 9zM69 546l77 145q4 8 12 8h114q10 0 5 -9l-99 -146q-5 -5 -14 -5h-91q-7 0 -4 7z" />
    <glyph glyph-name="icircumflex" unicode="&#xee;" horiz-adv-x="253" 
d="M66 9v469q0 8 7 8h106q8 0 8 -8v-470q0 -8 -8 -8h-104q-9 0 -9 9zM123 637q-28 -49 -62 -97q-3 -4 -9 -4h-76q-9 0 -4 8l101 148q3 4 8 4h89q6 0 9 -5l104 -148q2 -2 0.5 -4.5t-4.5 -2.5h-83q-6 0 -10 4q-10 16 -36 56z" />
    <glyph glyph-name="idieresis" unicode="&#xef;" horiz-adv-x="253" 
d="M66 9v469q0 8 7 8h106q8 0 8 -8v-470q0 -8 -8 -8h-104q-9 0 -9 9zM29 553q-27 0 -43.5 16.5t-16.5 44.5q0 27 17.5 44.5t44.5 17.5q26 0 42.5 -17t16.5 -45t-17 -44.5t-44 -16.5zM224 553q-27 0 -43.5 16.5t-16.5 44.5q0 27 17.5 44.5t43.5 17.5q27 0 43 -17t16 -45
t-17 -44.5t-43 -16.5z" />
    <glyph glyph-name="eth" unicode="&#xf0;" horiz-adv-x="577" 
d="M295 375q-54 0 -91.5 -35.5t-37.5 -110.5q0 -66 34 -106t90 -40q52 0 85 42.5t33 132.5q0 37 -8 65q-2 7 -10 15q-37 37 -95 37zM464 638l-72 -39q138 -118 138 -323q0 -137 -69 -211.5t-181 -74.5q-116 0 -176.5 69t-60.5 170q0 106 68.5 170.5t176.5 64.5q54 0 84 -22
q-25 65 -79 102l-141 -73q-7 -5 -7 4v49q0 5 6 8l85 44q-44 28 -133 45q-8 0 -8 9v80q0 8 7 8q13 0 29 -2q122 -21 214 -79l119 65q5 1 5 -3v-52q0 -7 -5 -9z" />
    <glyph glyph-name="ntilde" unicode="&#xf1;" horiz-adv-x="559" 
d="M66 9v362q0 57 -5 107q0 8 7 8h91q9 0 12 -7q5 -15 7 -40q66 57 151 57q31 0 58.5 -9.5t52 -31t39 -63t14.5 -99.5v-285q0 -8 -8 -8h-104q-9 0 -9 9v285q0 103 -86 103q-52 0 -100 -43v-346q0 -8 -8 -8h-105q-7 0 -7 9zM177 555h-66q-7 0 -7 7q0 64 29 97t74 33
q35 0 80 -25t56 -25q28 0 31 43q0 6 6 6h66q7 0 7 -6q-1 -132 -99 -132q-31 0 -75 24.5t-62 24.5q-31 0 -35 -42q0 -5 -5 -5z" />
    <glyph glyph-name="ograve" unicode="&#xf2;" horiz-adv-x="574" 
d="M290 496q113 0 177 -71t64 -180q0 -117 -67.5 -186t-176.5 -69q-121 0 -182.5 74t-61.5 179q0 111 68 182t179 71zM284 407q-53 0 -85.5 -43.5t-32.5 -118.5q0 -76 32.5 -121t91.5 -45q51 0 84.5 40t33.5 122q0 75 -31 120.5t-93 45.5zM271 694l83 -147q6 -8 -4 -8h-93
q-5 0 -9 6l-106 145q-5 9 3 9h116q6 0 10 -5z" />
    <glyph glyph-name="oacute" unicode="&#xf3;" horiz-adv-x="574" 
d="M290 496q113 0 177 -71t64 -180q0 -117 -67.5 -186t-176.5 -69q-121 0 -182.5 74t-61.5 179q0 111 68 182t179 71zM284 407q-53 0 -85.5 -43.5t-32.5 -118.5q0 -76 32.5 -121t91.5 -45q51 0 84.5 40t33.5 122q0 75 -31 120.5t-93 45.5zM221 546l77 145q4 8 12 8h114
q10 0 5 -9l-99 -146q-5 -5 -14 -5h-91q-7 0 -4 7z" />
    <glyph glyph-name="ocircumflex" unicode="&#xf4;" horiz-adv-x="574" 
d="M290 496q113 0 177 -71t64 -180q0 -117 -67.5 -186t-176.5 -69q-121 0 -182.5 74t-61.5 179q0 111 68 182t179 71zM284 407q-53 0 -85.5 -43.5t-32.5 -118.5q0 -76 32.5 -121t91.5 -45q51 0 84.5 40t33.5 122q0 75 -31 120.5t-93 45.5zM283 637q-28 -49 -62 -97
q-3 -4 -9 -4h-76q-9 0 -4 8l101 148q3 4 8 4h89q6 0 10 -5l103 -148q2 -2 0.5 -4.5t-4.5 -2.5h-83q-6 0 -10 4q-10 16 -36 56z" />
    <glyph glyph-name="otilde" unicode="&#xf5;" horiz-adv-x="574" 
d="M290 496q113 0 177 -71t64 -180q0 -117 -67.5 -186t-176.5 -69q-121 0 -182.5 74t-61.5 179q0 111 68 182t179 71zM284 407q-53 0 -85.5 -43.5t-32.5 -118.5q0 -76 32.5 -121t91.5 -45q51 0 84.5 40t33.5 122q0 75 -31 120.5t-93 45.5zM187 555h-66q-7 0 -7 7q0 64 29 97
t74 33q35 0 80 -25t56 -25q28 0 31 43q0 6 6 6h66q7 0 7 -6q-1 -132 -99 -132q-31 0 -75 24.5t-62 24.5q-31 0 -35 -42q0 -5 -5 -5z" />
    <glyph glyph-name="odieresis" unicode="&#xf6;" horiz-adv-x="574" 
d="M290 496q113 0 177 -71t64 -180q0 -117 -67.5 -186t-176.5 -69q-121 0 -182.5 74t-61.5 179q0 111 68 182t179 71zM284 407q-53 0 -85.5 -43.5t-32.5 -118.5q0 -76 32.5 -121t91.5 -45q51 0 84.5 40t33.5 122q0 75 -31 120.5t-93 45.5zM189 553q-27 0 -43.5 16.5
t-16.5 44.5q0 27 17.5 44.5t44.5 17.5q26 0 42.5 -17t16.5 -45t-17 -44.5t-44 -16.5zM384 553q-27 0 -43.5 16.5t-16.5 44.5q0 27 17.5 44.5t43.5 17.5q27 0 43 -17t16 -45t-17 -44.5t-43 -16.5z" />
    <glyph glyph-name="divide" unicode="&#xf7;" horiz-adv-x="558" 
d="M278 378q-26 0 -41.5 16.5t-14.5 42.5q0 26 16 42t41 16t41 -16t16 -42q0 -27 -15.5 -43t-42.5 -16zM278 28q-25 0 -41 16.5t-15 41.5q0 27 15.5 43.5t41.5 16.5t41.5 -16.5t15.5 -43.5q0 -25 -16 -41.5t-42 -16.5zM30 297q0 8 7 8h483q7 0 7 -7v-71q0 -8 -7 -8h-482
q-8 0 -8 9v69z" />
    <glyph glyph-name="oslash" unicode="&#xf8;" horiz-adv-x="579" 
d="M185 154l177 233q-30 24 -74 24q-56 0 -91 -43.5t-35 -122.5q0 -57 23 -91zM160 24l-20 -26q-3 -4 -12 -4h-60q-9 0 -3 8l45 57q-67 73 -67 182q0 112 68 183.5t179 71.5q76 0 130 -34l16 20q3 4 8 4h62q10 0 3 -7l-42 -54q68 -65 68 -182q0 -116 -67.5 -184.5
t-176.5 -68.5q-78 0 -131 34zM395 332l-175 -232q31 -24 73 -24q52 0 88.5 40t36.5 123q0 59 -23 93z" />
    <glyph glyph-name="ugrave" unicode="&#xf9;" horiz-adv-x="553" 
d="M487 479v-369q0 -50 5 -103q1 -7 -7 -7h-93q-8 0 -10 6q-2 7 -5 36q-63 -52 -146 -52q-72 0 -118.5 42.5t-46.5 141.5v304q0 8 8 8h105q7 0 7 -7v-287q0 -104 84 -104q56 0 96 40v350q0 8 8 8h105q8 0 8 -7zM265 694l84 -147q4 -8 -5 -8h-92q-6 0 -10 6l-106 145
q-5 9 4 9h115q7 0 10 -5z" />
    <glyph glyph-name="uacute" unicode="&#xfa;" horiz-adv-x="553" 
d="M487 479v-369q0 -50 5 -103q1 -7 -7 -7h-93q-8 0 -10 6q-2 7 -5 36q-63 -52 -146 -52q-72 0 -118.5 42.5t-46.5 141.5v304q0 8 8 8h105q7 0 7 -7v-287q0 -104 84 -104q56 0 96 40v350q0 8 8 8h105q8 0 8 -7zM215 546l77 145q4 8 12 8h114q10 0 5 -9l-99 -146
q-5 -5 -14 -5h-91q-7 0 -4 7z" />
    <glyph glyph-name="ucircumflex" unicode="&#xfb;" horiz-adv-x="553" 
d="M487 479v-369q0 -50 5 -103q1 -7 -7 -7h-93q-8 0 -10 6q-2 7 -5 36q-63 -52 -146 -52q-72 0 -118.5 42.5t-46.5 141.5v304q0 8 8 8h105q7 0 7 -7v-287q0 -104 84 -104q56 0 96 40v350q0 8 8 8h105q8 0 8 -7zM274 637q-28 -49 -62 -97q-3 -4 -9 -4h-76q-9 0 -4 8l101 148
q3 4 8 4h89q7 0 9 -5l104 -148q2 -2 0.5 -4.5t-4.5 -2.5h-83q-6 0 -10 4q-10 16 -37 56z" />
    <glyph glyph-name="udieresis" unicode="&#xfc;" horiz-adv-x="553" 
d="M487 479v-369q0 -50 5 -103q1 -7 -7 -7h-93q-8 0 -10 6q-2 7 -5 36q-63 -52 -146 -52q-72 0 -118.5 42.5t-46.5 141.5v304q0 8 8 8h105q7 0 7 -7v-287q0 -104 84 -104q56 0 96 40v350q0 8 8 8h105q8 0 8 -7zM182 553q-26 0 -43 16.5t-17 44.5q0 27 17.5 44.5t44.5 17.5
q26 0 42.5 -17t16.5 -45t-17 -44.5t-44 -16.5zM377 553q-27 0 -43.5 16.5t-16.5 44.5q0 27 17.5 44.5t43.5 17.5q27 0 43 -17t16 -45t-16.5 -44.5t-43.5 -16.5z" />
    <glyph glyph-name="yacute" unicode="&#xfd;" horiz-adv-x="487" 
d="M11 486h117q6 0 9 -7q101 -276 120 -339h1q51 134 107 339q3 7 10 7h99q9 0 7 -9q-48 -202 -164 -447q-85 -174 -145 -246q-6 -7 -16 -7h-114q-5 0 -6.5 3t2.5 7q35 42 83 114.5t68 114.5q5 11 3 17q-19 39 -90 208.5t-97 236.5q-2 8 6 8zM182 546l77 145q4 8 12 8h114
q9 0 5 -9l-99 -146q-5 -5 -14 -5h-91q-8 0 -4 7z" />
    <glyph glyph-name="thorn" unicode="&#xfe;" horiz-adv-x="561" 
d="M288 496q107 0 168 -71.5t61 -172.5q0 -118 -72.5 -190t-181.5 -72q-46 0 -77 13v-204q0 -7 -6 -9l-106 -10q-8 0 -8 9v912q0 8 7 8h105q8 0 8 -8v-225q40 20 102 20zM259 402q-37 0 -73 -19v-286q26 -15 73 -15q54 0 94 41.5t40 124.5q0 75 -37 114.5t-97 39.5z" />
    <glyph glyph-name="ydieresis" unicode="&#xff;" horiz-adv-x="487" 
d="M11 486h117q6 0 9 -7q101 -276 120 -339h1q51 134 107 339q3 7 10 7h99q9 0 7 -9q-48 -202 -164 -447q-85 -174 -145 -246q-6 -7 -16 -7h-114q-5 0 -6.5 3t2.5 7q35 42 83 114.5t68 114.5q5 11 3 17q-19 39 -90 208.5t-97 236.5q-2 8 6 8zM147 553q-27 0 -44 16.5
t-17 44.5q0 27 17.5 44.5t44.5 17.5q26 0 42.5 -17t16.5 -45t-17 -44.5t-43 -16.5zM341 553q-27 0 -43.5 16.5t-16.5 44.5q0 27 17.5 44.5t43.5 17.5q27 0 43.5 -17t16.5 -45q0 -27 -17 -44t-44 -17z" />
    <glyph glyph-name="Amacron" unicode="&#x100;" horiz-adv-x="658" 
d="M438 182h-229l-61 -174q-1 -8 -10 -8h-102q-10 0 -7 10q123 349 209 581q6 20 8 55q0 6 6 6h138q6 0 8 -5q190 -525 231 -638q3 -9 -6 -9h-112q-6 0 -9 6zM235 280h176q-9 30 -43.5 132.5t-45.5 139.5h-1q-7 -30 -20.5 -73t-35 -108t-30.5 -91zM188 811h276q6 0 6 -7v-75
q0 -8 -6 -8h-273q-9 0 -9 8v75q0 7 6 7z" />
    <glyph glyph-name="amacron" unicode="&#x101;" horiz-adv-x="507" 
d="M324 90v139q-95 4 -135 -15.5t-40 -61.5q0 -31 25.5 -51.5t76.5 -20.5q46 0 73 10zM441 303v-198q0 -31 3 -62q0 -4 -3 -5q-102 -48 -209 -48q-89 0 -145 40t-56 120q0 171 293 159v16q0 10 -3.5 20.5t-13.5 23.5t-31.5 21t-51.5 8q-71 0 -137 -33q-8 -2 -8 6v78
q0 8 6 10q74 37 162 37q96 0 145 -53t49 -140zM111 661h282q6 0 6 -7v-71q0 -7 -7 -7h-282q-7 0 -7 7v71q0 7 8 7z" />
    <glyph glyph-name="Abreve" unicode="&#x102;" horiz-adv-x="658" 
d="M438 182h-229l-61 -174q-1 -8 -10 -8h-102q-10 0 -7 10q123 349 209 581q6 20 8 55q0 6 6 6h138q6 0 8 -5q190 -525 231 -638q3 -9 -6 -9h-112q-6 0 -9 6zM235 280h176q-9 30 -43.5 132.5t-45.5 139.5h-1q-7 -30 -20.5 -73t-35 -108t-30.5 -91zM164 845h81q5 0 8 -7
q18 -50 70 -50q55 0 73 51q2 6 8 6h81q6 0 6 -8q-8 -63 -56 -101t-112 -38q-67 0 -113.5 36t-52.5 104q0 7 7 7z" />
    <glyph glyph-name="abreve" unicode="&#x103;" horiz-adv-x="507" 
d="M324 90v139q-95 4 -135 -15.5t-40 -61.5q0 -31 25.5 -51.5t76.5 -20.5q46 0 73 10zM441 303v-198q0 -31 3 -62q0 -4 -3 -5q-102 -48 -209 -48q-89 0 -145 40t-56 120q0 171 293 159v16q0 10 -3.5 20.5t-13.5 23.5t-31.5 21t-51.5 8q-71 0 -137 -33q-8 -2 -8 6v78
q0 8 6 10q74 37 162 37q96 0 145 -53t49 -140zM87 684h81q5 0 6 -4q19 -51 72 -51q58 0 74 51q1 4 5 4h81q5 0 5 -5q-11 -65 -54.5 -100t-111.5 -35q-67 0 -110 33.5t-53 100.5q-1 6 5 6z" />
    <glyph glyph-name="Aogonek" unicode="&#x104;" horiz-adv-x="658" 
d="M235 280h176q-9 30 -43.5 132.5t-45.5 139.5h-1q-7 -30 -20.5 -73t-35 -108t-30.5 -91zM438 182h-229l-61 -174q-1 -8 -10 -8h-102q-10 0 -7 10q123 349 209 581q6 20 8 55q0 6 6 6h138q6 0 8 -5q214 -594 229 -633q4 -11 -5 -14q-74 -42 -74 -89q0 -20 14.5 -32.5
t41.5 -12.5q25 0 44 7q9 1 9 -6v-63q0 -10 -7 -14q-30 -15 -83 -15t-92.5 25.5t-39.5 79.5q0 66 76 122q-8 1 -12 10z" />
    <glyph glyph-name="aogonek" unicode="&#x105;" horiz-adv-x="507" 
d="M324 90v139q-95 4 -135 -15.5t-40 -61.5q0 -31 25.5 -51.5t76.5 -20.5q46 0 73 10zM441 303v-198q0 -46 2 -67q1 -7 -5 -9q-114 -60 -114 -114q0 -21 15.5 -34t42.5 -13q28 0 49 7q9 3 9 -6v-63q0 -10 -7 -14q-30 -15 -86 -15q-53 0 -92 25t-39 79q0 33 22.5 63t59.5 50
q-38 -4 -66 -4q-89 0 -145 40t-56 120q0 171 293 159v13q0 12 -3.5 23t-13 23.5t-31 20.5t-52.5 8q-70 0 -137 -32q-8 -4 -8 5v79q0 8 6 10q74 37 162 37q96 0 145 -53t49 -140z" />
    <glyph glyph-name="Cacute" unicode="&#x106;" horiz-adv-x="601" 
d="M53 325q0 145 97.5 241.5t255.5 96.5q95 0 139 -22q5 -3 5 -10v-91q0 -8 -7 -6q-59 25 -134 25q-104 0 -168 -62t-64 -169q0 -64 21.5 -111.5t56.5 -72t72.5 -35.5t78.5 -11q79 0 144 27q7 3 7 -6v-87q0 -10 -7 -12q-58 -30 -165 -30q-66 0 -124 19.5t-105.5 58t-75 105
t-27.5 152.5zM275 708l108 116q4 5 12 5h119q4 0 4.5 -3t-1.5 -5l-124 -114q-6 -6 -14 -6h-99q-4 0 -5.5 2.5t0.5 4.5z" />
    <glyph glyph-name="cacute" unicode="&#x107;" horiz-adv-x="447" 
d="M411 102v-81q0 -7 -5 -9q-45 -22 -120 -22q-118 0 -180.5 70t-62.5 181q0 112 73 183.5t190 71.5q65 0 101 -18q5 -2 5 -10l-1 -81q0 -9 -7 -5q-41 18 -90 18q-67 0 -107 -42.5t-40 -113.5q0 -78 41.5 -116.5t102.5 -38.5q53 0 93 18q7 1 7 -5zM234 546l77 145q4 8 11 8
h115q10 0 4 -9l-99 -146q-4 -5 -13 -5h-92q-7 0 -3 7z" />
    <glyph glyph-name="Ccircumflex" unicode="&#x108;" horiz-adv-x="601" 
d="M53 325q0 145 97.5 241.5t255.5 96.5q95 0 139 -22q5 -3 5 -10v-91q0 -8 -7 -6q-59 25 -134 25q-104 0 -168 -62t-64 -169q0 -64 21.5 -111.5t56.5 -72t72.5 -35.5t78.5 -11q79 0 144 27q7 3 7 -6v-87q0 -10 -7 -12q-58 -30 -165 -30q-66 0 -124 19.5t-105.5 58t-75 105
t-27.5 152.5zM400 706l-63 65l-62 -64q-5 -6 -11 -6h-89q-4 0 -4.5 3t1.5 5l113 116q4 4 9 4h90q9 0 12 -5l117 -117q4 -6 -4 -6h-97q-7 0 -12 5z" />
    <glyph glyph-name="ccircumflex" unicode="&#x109;" horiz-adv-x="447" 
d="M411 102v-81q0 -7 -5 -9q-45 -22 -120 -22q-118 0 -180.5 70t-62.5 181q0 112 73 183.5t190 71.5q65 0 101 -18q5 -2 5 -10l-1 -81q0 -9 -7 -5q-41 18 -90 18q-67 0 -107 -42.5t-40 -113.5q0 -78 41.5 -116.5t102.5 -38.5q53 0 93 18q7 1 7 -5zM264 639q-28 -49 -62 -97
q-3 -4 -9 -4h-76q-9 0 -4 8l101 148q3 4 8 4h89q7 0 9 -5l104 -148q2 -2 0.5 -4.5t-4.5 -2.5h-83q-6 0 -10 4q-8 11 -20.5 30.5t-25.5 40t-17 26.5z" />
    <glyph glyph-name="Cdotaccent" unicode="&#x10a;" horiz-adv-x="601" 
d="M53 325q0 145 97.5 241.5t255.5 96.5q95 0 139 -22q5 -3 5 -10v-91q0 -8 -7 -6q-59 25 -134 25q-104 0 -168 -62t-64 -169q0 -64 21.5 -111.5t56.5 -72t72.5 -35.5t78.5 -11q79 0 144 27q7 3 7 -6v-87q0 -10 -7 -12q-58 -30 -165 -30q-66 0 -124 19.5t-105.5 58t-75 105
t-27.5 152.5zM355 709q-30 0 -48.5 16.5t-18.5 43.5q0 26 19 43t50 17q30 0 48.5 -16.5t18.5 -43.5t-18.5 -43.5t-50.5 -16.5z" />
    <glyph glyph-name="cdotaccent" unicode="&#x10b;" horiz-adv-x="447" 
d="M411 102v-81q0 -7 -5 -9q-45 -22 -120 -22q-118 0 -180.5 70t-62.5 181q0 112 73 183.5t190 71.5q65 0 101 -18q5 -2 5 -10l-1 -81q0 -9 -7 -5q-41 18 -90 18q-67 0 -107 -42.5t-40 -113.5q0 -78 41.5 -116.5t102.5 -38.5q53 0 93 18q7 1 7 -5zM276 552q-30 0 -48 17
t-18 45t19 45t48 17q30 0 48 -17t18 -45t-18 -45t-49 -17z" />
    <glyph glyph-name="Ccaron" unicode="&#x10c;" horiz-adv-x="601" 
d="M53 325q0 145 97.5 241.5t255.5 96.5q95 0 139 -22q5 -3 5 -10v-91q0 -8 -7 -6q-59 25 -134 25q-104 0 -168 -62t-64 -169q0 -64 21.5 -111.5t56.5 -72t72.5 -35.5t78.5 -11q79 0 144 27q7 3 7 -6v-87q0 -10 -7 -12q-58 -30 -165 -30q-66 0 -124 19.5t-105.5 58t-75 105
t-27.5 152.5zM292 821l63 -64l62 64q6 6 11 6h90q3 0 4 -3t-2 -5l-112 -117q-4 -3 -10 -3h-90q-9 0 -12 4l-116 118q-6 6 4 6h96q8 0 12 -6z" />
    <glyph glyph-name="ccaron" unicode="&#x10d;" horiz-adv-x="447" 
d="M411 102v-81q0 -7 -5 -9q-45 -22 -120 -22q-118 0 -180.5 70t-62.5 181q0 112 73 183.5t190 71.5q65 0 101 -18q5 -2 5 -10l-1 -81q0 -9 -7 -5q-41 18 -90 18q-67 0 -107 -42.5t-40 -113.5q0 -78 41.5 -116.5t102.5 -38.5q53 0 93 18q7 1 7 -5zM285 595q32 52 63 98
q3 3 9 3h76q4 0 4.5 -3t-1.5 -5l-100 -147q-4 -5 -9 -5h-89q-6 0 -9 5l-103 148q-2 2 -1 4.5t5 2.5h83q6 0 10 -4q46 -71 62 -97z" />
    <glyph glyph-name="Dcaron" unicode="&#x10e;" horiz-adv-x="676" 
d="M75 9v636q0 6 7 7q90 3 200 3q165 0 252.5 -86.5t87.5 -234.5q0 -82 -25 -144t-62 -97.5t-88 -58t-95 -29.5t-90 -7q-66 0 -180 2q-7 0 -7 9zM196 557v-463q18 -1 70 -1q109 0 170.5 59t61.5 179q0 112 -56 170t-160 58q-68 0 -86 -2zM243 818l63 -64l62 64q6 6 11 6h89
q4 0 4.5 -3t-1.5 -6l-112 -116q-5 -3 -10 -3h-90q-9 0 -12 4l-116 118q-6 6 3 6h97q7 0 12 -6z" />
    <glyph glyph-name="dcaron" unicode="&#x10f;" horiz-adv-x="630" 
d="M559 487l-2 227q0 8 7 8h77q7 0 6 -8l-14 -226q0 -9 -7 -9h-60q-7 0 -7 8zM295 -10q-115 0 -183.5 63.5t-68.5 184.5q0 111 76 184.5t201 73.5q34 0 56 -7v213q0 7 7 7h108q6 0 6 -6v-590q0 -16 3 -64q1 -6 -5 -10q-100 -49 -200 -49zM376 96v298q-21 9 -58 9
q-69 0 -110 -42t-41 -117q0 -80 40 -119t102 -39q39 0 67 10z" />
    <glyph glyph-name="Dcroat" unicode="&#x110;" horiz-adv-x="687" 
d="M86 9v282h-60q-6 0 -6 7v73q0 5 6 5h60v270q0 6 5 6q70 3 192 3q167 0 258.5 -85t91.5 -235q0 -83 -26 -146t-64 -98.5t-90 -57.5t-95.5 -29t-89.5 -7q-86 0 -174 3q-8 0 -8 9zM207 557v-181h136q6 0 6 -6v-73q0 -6 -6 -6h-136v-196q2 0 23 -1t40 -1q110 0 174.5 59
t64.5 180q0 114 -61 170.5t-165 56.5q-54 0 -76 -2z" />
    <glyph glyph-name="dcroat" unicode="&#x111;" horiz-adv-x="561" 
d="M495 621h64q5 0 5 -5v-57q0 -6 -6 -6h-63v-449q0 -32 3 -67q0 -5 -6 -8q-97 -39 -189 -39q-120 0 -190 63t-70 180q0 104 74.5 173.5t197.5 69.5q41 0 59 -7v84h-105q-7 0 -7 7v55q0 6 6 6h106v80q0 8 9 8h105q7 0 7 -8v-80zM374 92v289q-22 9 -56 9q-67 0 -109 -41.5
t-42 -113.5q0 -78 42 -116t103 -38q40 0 62 11z" />
    <glyph glyph-name="Emacron" unicode="&#x112;" horiz-adv-x="538" 
d="M505 89l-14 -81q-1 -8 -10 -8h-397q-8 0 -8 9v635q0 8 8 8h385q8 0 9 -6l10 -82q2 -9 -6 -9h-285v-173h257q7 0 7 -7v-84q0 -7 -8 -7h-256v-187h302q7 0 6 -8zM139 809h277q6 0 6 -7v-75q0 -8 -7 -8h-273q-9 0 -9 7v76q0 7 6 7z" />
    <glyph glyph-name="emacron" unicode="&#x113;" horiz-adv-x="521" 
d="M369 219h-204q2 -60 39.5 -95t110.5 -35q68 0 125 25q6 2 6 -5v-80q0 -8 -6 -11q-52 -26 -150 -28q-66 0 -115.5 21t-77.5 57t-41.5 79.5t-13.5 92.5q0 111 63 183.5t172 72.5q53 0 94 -18.5t64.5 -49t35.5 -65.5t12 -72q0 -59 -9 -66q-14 -6 -105 -6zM165 296h160
q42 0 44 8v11q0 32 -23 63.5t-74 31.5q-47 0 -74 -31.5t-33 -82.5zM131 661h282q6 0 6 -7v-71q0 -7 -7 -7h-282q-7 0 -7 7v71q0 7 8 7z" />
    <glyph glyph-name="Ebreve" unicode="&#x114;" horiz-adv-x="538" 
d="M505 89l-14 -81q-1 -8 -10 -8h-397q-8 0 -8 9v635q0 8 8 8h385q8 0 9 -6l10 -82q2 -9 -6 -9h-285v-173h257q7 0 7 -7v-84q0 -7 -8 -7h-256v-187h302q7 0 6 -8zM118 847h81q5 0 8 -7q18 -50 70 -50q55 0 73 51q2 6 8 6h81q6 0 6 -9q-8 -63 -56 -100.5t-112 -37.5
q-67 0 -113.5 35.5t-52.5 103.5q0 8 7 8z" />
    <glyph glyph-name="ebreve" unicode="&#x115;" horiz-adv-x="521" 
d="M369 219h-204q2 -60 39.5 -95t110.5 -35q68 0 125 25q6 2 6 -5v-80q0 -8 -6 -11q-52 -26 -150 -28q-66 0 -115.5 21t-77.5 57t-41.5 79.5t-13.5 92.5q0 111 63 183.5t172 72.5q53 0 94 -18.5t64.5 -49t35.5 -65.5t12 -72q0 -59 -9 -66q-14 -6 -105 -6zM165 296h160
q42 0 44 8v11q0 32 -23 63.5t-74 31.5q-47 0 -74 -31.5t-33 -82.5zM110 684h81q5 0 6 -4q19 -51 72 -51q58 0 74 51q1 4 5 4h81q5 0 5 -5q-11 -65 -54.5 -100t-111.5 -35q-67 0 -110 33.5t-53 100.5q-1 6 5 6z" />
    <glyph glyph-name="Edotaccent" unicode="&#x116;" horiz-adv-x="538" 
d="M505 89l-14 -81q-1 -8 -10 -8h-397q-8 0 -8 9v635q0 8 8 8h385q8 0 9 -6l10 -82q2 -9 -6 -9h-285v-173h257q7 0 7 -7v-84q0 -7 -8 -7h-256v-187h302q7 0 6 -8zM280 705q-30 0 -48.5 16.5t-18.5 43.5t19 43.5t50 16.5q30 0 48 -16.5t18 -43.5t-18.5 -43.5t-49.5 -16.5z
" />
    <glyph glyph-name="edotaccent" unicode="&#x117;" horiz-adv-x="521" 
d="M369 219h-204q2 -60 39.5 -95t110.5 -35q68 0 125 25q6 2 6 -5v-80q0 -8 -6 -11q-52 -26 -150 -28q-66 0 -115.5 21t-77.5 57t-41.5 79.5t-13.5 92.5q0 111 63 183.5t172 72.5q53 0 94 -18.5t64.5 -49t35.5 -65.5t12 -72q0 -59 -9 -66q-14 -6 -105 -6zM165 296h160
q42 0 44 8v11q0 32 -23 63.5t-74 31.5q-47 0 -74 -31.5t-33 -82.5zM270 552q-30 0 -48.5 17t-18.5 45t19 45t49 17t48 -17t18 -45t-18.5 -45t-48.5 -17z" />
    <glyph glyph-name="Eogonek" unicode="&#x118;" horiz-adv-x="538" 
d="M481 0h-24q-63 -44 -63 -87q0 -21 14.5 -33.5t38.5 -12.5q29 0 50 7q6 2 6 -4v-68q0 -8 -4 -11q-30 -15 -87 -15q-53 0 -92.5 25.5t-39.5 79.5q0 62 77 119h-273q-8 0 -8 9v635q0 8 8 8h385q8 0 9 -6l10 -82q2 -9 -6 -9h-285v-173h257q7 0 7 -7v-84q0 -7 -8 -7h-256v-187
h302q7 0 6 -8l-14 -81q-1 -8 -10 -8z" />
    <glyph glyph-name="eogonek" unicode="&#x119;" horiz-adv-x="521" 
d="M369 219h-204q-2 -56 36 -93t114 -37q70 0 131 27q9 3 9 -6l-1 -72q0 -10 -7 -14q-114 -51 -114 -111q0 -21 16 -33.5t43 -12.5q26 0 47 7q9 3 9 -6v-63q0 -10 -8 -13q-27 -16 -83 -16q-53 0 -91.5 25t-38.5 79q0 29 19.5 59t50.5 53q-129 -5 -192 68t-63 180
q0 111 63 183.5t172 72.5q53 0 94 -18.5t64.5 -49t35.5 -65.5t12 -72q0 -59 -9 -66q-14 -6 -105 -6zM165 296h160q42 0 44 8v11q0 31 -23 63t-74 32q-46 0 -73.5 -32t-33.5 -82z" />
    <glyph glyph-name="Ecaron" unicode="&#x11a;" horiz-adv-x="538" 
d="M505 89l-14 -81q-1 -8 -10 -8h-397q-8 0 -8 9v635q0 8 8 8h385q8 0 9 -6l10 -82q2 -9 -6 -9h-285v-173h257q7 0 7 -7v-84q0 -7 -8 -7h-256v-187h302q7 0 6 -8zM217 821l63 -65l62 64q5 6 11 6h89q4 0 4.5 -3t-1.5 -5l-112 -116q-5 -4 -10 -4h-90q-9 0 -12 5l-117 117
q-4 6 4 6h97q7 0 12 -5z" />
    <glyph glyph-name="ecaron" unicode="&#x11b;" horiz-adv-x="521" 
d="M369 219h-204q2 -60 39.5 -95t110.5 -35q68 0 125 25q6 2 6 -5v-80q0 -8 -6 -11q-52 -26 -150 -28q-66 0 -115.5 21t-77.5 57t-41.5 79.5t-13.5 92.5q0 111 63 183.5t172 72.5q53 0 94 -18.5t64.5 -49t35.5 -65.5t12 -72q0 -59 -9 -66q-14 -6 -105 -6zM165 296h160
q42 0 44 8v11q0 32 -23 63.5t-74 31.5q-47 0 -74 -31.5t-33 -82.5zM266 595q23 41 62 98q3 3 9 3h76q9 0 4 -8l-101 -147q-2 -5 -8 -5h-89q-7 0 -9 5l-104 148q-2 2 -0.5 4.5t4.5 2.5h83q7 0 10 -4q8 -11 20.5 -30.5t25.5 -40t17 -26.5z" />
    <glyph glyph-name="Gcircumflex" unicode="&#x11c;" horiz-adv-x="679" 
d="M495 252l-111 3q-8 1 -8 9v79q0 6 7 6h225q8 0 8 -8v-296q0 -7 -7 -11q-99 -44 -215 -44q-168 0 -254.5 94t-86.5 237q0 156 98.5 249t256.5 93q117 0 180 -36q6 -2 6 -12v-91q0 -10 -8 -6q-77 41 -175 41q-111 0 -172.5 -61.5t-61.5 -173.5q0 -99 60 -166t171 -67
q51 0 87 16v145zM420 705l-63 65l-62 -65q-6 -6 -11 -6h-90q-3 0 -4 3.5t2 5.5l112 116q4 4 10 4h90q9 0 12 -5l116 -117q2 -2 1 -4.5t-5 -2.5h-96q-6 0 -12 6z" />
    <glyph glyph-name="gcircumflex" unicode="&#x11d;" horiz-adv-x="523" 
d="M328 329q0 42 -21 65t-62 23q-38 0 -62 -23.5t-24 -63.5t23 -64t63 -24q38 0 60.5 23.5t22.5 63.5zM396 -70q0 39 -37 54.5t-107 15.5q-42 0 -66 -4q-17 -9 -33 -27.5t-16 -38.5q0 -33 33.5 -56t95.5 -23q66 0 98 23.5t32 55.5zM247 495q47 0 82 -6q12 -3 28 -3h138
q6 0 6 -7v-74q0 -6 -7 -6l-77 3q23 -26 23 -77q0 -77 -53 -119t-138 -42q-23 0 -39 4q-9 -14 -9 -37q0 -24 16 -40q18 2 51 2q117 0 180.5 -33.5t63.5 -114.5q0 -77 -68 -128.5t-183 -51.5q-107 0 -170 45t-63 117q0 55 91 125q-23 34 -23 73q0 36 19 66q-69 43 -69 137
q0 73 54.5 120t146.5 47zM259 637q-28 -49 -62 -97q-3 -4 -9 -4h-76q-9 0 -4 8l101 148q3 4 8 4h89q6 0 9 -5l104 -148q2 -2 0.5 -4.5t-4.5 -2.5h-83q-7 0 -10 4q-10 16 -36 56z" />
    <glyph glyph-name="Gbreve" unicode="&#x11e;" horiz-adv-x="679" 
d="M495 252l-111 3q-8 1 -8 9v79q0 6 7 6h225q8 0 8 -8v-296q0 -7 -7 -11q-99 -44 -215 -44q-168 0 -254.5 94t-86.5 237q0 156 98.5 249t256.5 93q117 0 180 -36q6 -2 6 -12v-91q0 -10 -8 -6q-77 41 -175 41q-111 0 -172.5 -61.5t-61.5 -173.5q0 -99 60 -166t171 -67
q51 0 87 16v145zM206 849h82q6 0 7 -7q20 -50 71 -50q55 0 73 51q2 6 8 6h81q6 0 6 -8q-8 -63 -56 -101t-112 -38q-67 0 -113.5 35.5t-52.5 103.5q0 8 6 8z" />
    <glyph glyph-name="gbreve" unicode="&#x11f;" horiz-adv-x="523" 
d="M328 329q0 42 -21 65t-62 23q-38 0 -62 -23.5t-24 -63.5t23 -64t63 -24q38 0 60.5 23.5t22.5 63.5zM396 -70q0 39 -37 54.5t-107 15.5q-42 0 -66 -4q-17 -9 -33 -27.5t-16 -38.5q0 -33 33.5 -56t95.5 -23q66 0 98 23.5t32 55.5zM247 495q47 0 82 -6q12 -3 28 -3h138
q6 0 6 -7v-74q0 -6 -7 -6l-77 3q23 -26 23 -77q0 -77 -53 -119t-138 -42q-23 0 -39 4q-9 -14 -9 -37q0 -24 16 -40q18 2 51 2q117 0 180.5 -33.5t63.5 -114.5q0 -77 -68 -128.5t-183 -51.5q-107 0 -170 45t-63 117q0 55 91 125q-23 34 -23 73q0 36 19 66q-69 43 -69 137
q0 73 54.5 120t146.5 47zM101 684h81q5 0 6 -4q19 -51 72 -51q58 0 74 51q1 4 5 4h81q5 0 5 -5q-11 -65 -54.5 -100t-111.5 -35q-67 0 -110 33.5t-53 100.5q-1 6 5 6z" />
    <glyph glyph-name="Gdotaccent" unicode="&#x120;" horiz-adv-x="679" 
d="M495 252l-111 3q-8 1 -8 9v79q0 6 7 6h225q8 0 8 -8v-296q0 -7 -7 -11q-99 -44 -215 -44q-168 0 -254.5 94t-86.5 237q0 156 98.5 249t256.5 93q117 0 180 -36q6 -2 6 -12v-91q0 -10 -8 -6q-77 41 -175 41q-111 0 -172.5 -61.5t-61.5 -173.5q0 -99 60 -166t171 -67
q51 0 87 16v145zM376 710q-31 0 -49 16.5t-18 43.5q0 26 19 43t50 17q30 0 48 -17t18 -43q0 -27 -18.5 -43.5t-49.5 -16.5z" />
    <glyph glyph-name="gdotaccent" unicode="&#x121;" horiz-adv-x="523" 
d="M328 329q0 42 -21 65t-62 23q-38 0 -62 -23.5t-24 -63.5t23 -64t63 -24q38 0 60.5 23.5t22.5 63.5zM396 -70q0 39 -37 54.5t-107 15.5q-42 0 -66 -4q-17 -9 -33 -27.5t-16 -38.5q0 -33 33.5 -56t95.5 -23q66 0 98 23.5t32 55.5zM247 495q47 0 82 -6q12 -3 28 -3h138
q6 0 6 -7v-74q0 -6 -7 -6l-77 3q23 -26 23 -77q0 -77 -53 -119t-138 -42q-23 0 -39 4q-9 -14 -9 -37q0 -24 16 -40q18 2 51 2q117 0 180.5 -33.5t63.5 -114.5q0 -77 -68 -128.5t-183 -51.5q-107 0 -170 45t-63 117q0 55 91 125q-23 34 -23 73q0 36 19 66q-69 43 -69 137
q0 73 54.5 120t146.5 47zM251 552q-30 0 -48.5 17t-18.5 45t19 45t49 17t48 -17t18 -45t-18.5 -45t-48.5 -17z" />
    <glyph glyph-name="uni0122" unicode="&#x122;" horiz-adv-x="679" 
d="M495 252l-111 3q-8 1 -8 9v79q0 6 7 6h225q8 0 8 -8v-296q0 -7 -7 -11q-99 -44 -215 -44q-168 0 -254.5 94t-86.5 237q0 156 98.5 249t256.5 93q117 0 180 -36q6 -2 6 -12v-91q0 -10 -8 -6q-77 41 -175 41q-111 0 -172.5 -61.5t-61.5 -173.5q0 -99 60 -166t171 -67
q51 0 87 16v145zM392 -227h-92q-9 0 -4 7q37 55 37 110q0 23 -15 63q-4 6 4 6h100q5 0 9 -6q16 -24 16 -57q0 -66 -45 -120q-3 -3 -10 -3z" />
    <glyph glyph-name="uni0123" unicode="&#x123;" horiz-adv-x="523" 
d="M234 717h93q8 0 3 -7q-37 -58 -37 -110q0 -25 15 -63q3 -6 -4 -6h-100q-6 0 -9 5q-16 26 -16 58q0 66 45 120q3 3 10 3zM328 329q0 42 -21 65t-62 23q-38 0 -62 -23.5t-24 -63.5t23 -64t63 -24q38 0 60.5 23.5t22.5 63.5zM396 -70q0 39 -37 54.5t-107 15.5q-42 0 -66 -4
q-17 -9 -33 -27.5t-16 -38.5q0 -33 33.5 -56t95.5 -23q66 0 98 23.5t32 55.5zM247 495q47 0 82 -6q12 -3 28 -3h138q6 0 6 -7v-74q0 -6 -7 -6l-77 3q23 -26 23 -77q0 -77 -53 -119t-138 -42q-23 0 -39 4q-9 -14 -9 -37q0 -24 16 -40q18 2 51 2q117 0 180.5 -33.5
t63.5 -114.5q0 -77 -68 -128.5t-183 -51.5q-107 0 -170 45t-63 117q0 55 91 125q-23 34 -23 73q0 36 19 66q-69 43 -69 137q0 73 54.5 120t146.5 47z" />
    <glyph glyph-name="Hcircumflex" unicode="&#x124;" horiz-adv-x="679" 
d="M596 0h-106q-8 0 -8 8v276h-285v-275q0 -9 -9 -9h-103q-9 0 -9 9v635q0 8 8 8h104q9 0 9 -7v-263h285v263q0 7 8 7h107q6 0 6 -7v-637q0 -8 -7 -8zM398 702l-63 65l-63 -65q-4 -6 -10 -6h-90q-3 0 -4 3.5t1 5.5l113 116q4 4 10 4h90q7 0 12 -5l116 -117q2 -2 1 -4.5
t-5 -2.5h-96q-6 0 -12 6z" />
    <glyph glyph-name="hcircumflex" unicode="&#x125;" horiz-adv-x="559" 
d="M188 726l-63 48l-58 -48q-5 -4 -13 -4h-90q-11 0 -4 7l116 99q4 4 9 4h85q8 0 12 -6l118 -97q3 -2 2 -4.5t-5 -2.5h-95q-6 0 -14 4zM66 8v694q0 7 7 7h107q6 0 6 -7v-252q64 46 140 46q71 0 119 -47.5t48 -156.5v-284q0 -8 -8 -8h-105q-8 0 -8 8v288q0 101 -86 101
q-52 0 -100 -38v-352q0 -7 -7 -7h-106q-7 0 -7 8z" />
    <glyph glyph-name="Hbar" unicode="&#x126;" horiz-adv-x="679" 
d="M197 346h285v93h-285v-93zM76 646q0 6 7 6h108q6 0 6 -6v-126h285v125q0 7 7 7h108q6 0 6 -7v-125h45q6 0 6 -6v-69q0 -6 -7 -6h-44v-431q0 -8 -7 -8h-106q-8 0 -8 7v241h-285v-241q0 -7 -7 -7h-107q-7 0 -7 8v431h-49q-6 0 -6 7v68q0 6 5 6h50v126z" />
    <glyph glyph-name="hbar" unicode="&#x127;" horiz-adv-x="563" 
d="M179 0h-103q-9 0 -9 9v535h-62q-8 0 -8 7v70q0 7 6 7h64v72q0 9 9 9h103q8 0 9 -8v-73h123q6 0 6 -6v-70q0 -8 -7 -8h-122v-127q67 48 140 48q70 0 119.5 -48t49.5 -149v-260q0 -8 -8 -8h-105q-8 0 -8 7v259q0 102 -88 102q-55 0 -100 -38v-321q0 -9 -9 -9z" />
    <glyph glyph-name="Itilde" unicode="&#x128;" horiz-adv-x="273" 
d="M197 645v-636q0 -9 -9 -9h-104q-8 0 -8 9v636q0 7 8 7h105q8 0 8 -7zM42 703h-67q-8 0 -8 6q1 61 30 93.5t72 32.5q36 0 76 -25.5t54 -25.5q26 0 29 42q0 6 6 6h66q7 0 7 -6q-4 -125 -97 -125q-34 0 -74 24.5t-56 24.5q-28 0 -32 -42q0 -5 -6 -5z" />
    <glyph glyph-name="itilde" unicode="&#x129;" horiz-adv-x="253" 
d="M66 9v469q0 8 7 8h106q8 0 8 -8v-470q0 -8 -8 -8h-104q-9 0 -9 9zM27 555h-66q-7 0 -7 7q0 64 29 97t74 33q35 0 80 -25t56 -25q28 0 31 43q0 6 6 6h66q7 0 7 -6q-1 -132 -99 -132q-31 0 -75 24.5t-62 24.5q-31 0 -35 -42q0 -5 -5 -5z" />
    <glyph glyph-name="Imacron" unicode="&#x12a;" horiz-adv-x="273" 
d="M197 645v-636q0 -9 -9 -9h-104q-8 0 -8 9v636q0 7 8 7h105q8 0 8 -7zM-1 809h276q7 0 7 -7v-75q0 -8 -7 -8h-273q-9 0 -9 7v76q0 7 6 7z" />
    <glyph glyph-name="imacron" unicode="&#x12b;" horiz-adv-x="253" 
d="M66 9v469q0 8 7 8h106q8 0 8 -8v-470q0 -8 -8 -8h-104q-9 0 -9 9zM-12 661h282q6 0 6 -7v-71q0 -7 -7 -7h-282q-7 0 -7 7v71q0 7 8 7z" />
    <glyph glyph-name="Ibreve" unicode="&#x12c;" horiz-adv-x="273" 
d="M197 645v-636q0 -9 -9 -9h-104q-8 0 -8 9v636q0 7 8 7h105q8 0 8 -7zM-24 845h81q7 0 8 -7q18 -50 71 -50q55 0 72 51q4 6 8 6h81q7 0 7 -8q-8 -63 -56 -101t-112 -38q-68 0 -114.5 35.5t-51.5 103.5q-2 8 6 8z" />
    <glyph glyph-name="ibreve" unicode="&#x12d;" horiz-adv-x="253" 
d="M66 9v469q0 8 7 8h106q8 0 8 -8v-470q0 -8 -8 -8h-104q-9 0 -9 9zM-32 684h81q5 0 6 -4q19 -51 72 -51q58 0 74 51q1 4 5 4h81q5 0 5 -5q-11 -65 -54.5 -100t-111.5 -35q-67 0 -110 33.5t-53 100.5q-1 6 5 6z" />
    <glyph glyph-name="Iogonek" unicode="&#x12e;" horiz-adv-x="273" 
d="M76 14v632q0 6 7 6h107q7 0 7 -5v-637q0 -6 -4 -9q-70 -49 -70 -96q0 -24 16.5 -37.5t42.5 -13.5t51 7q2 1 3.5 -0.5t1.5 -5.5v-66q0 -9 -6 -11q-26 -15 -85 -15q-56 0 -94.5 27.5t-38.5 82.5q0 60 69 129q-7 3 -7 12z" />
    <glyph glyph-name="iogonek" unicode="&#x12f;" horiz-adv-x="253" 
d="M74 -1q-8 3 -8 12v467q0 8 8 8h105q8 0 8 -8v-469q0 -5 -7 -9q-53 -40 -53 -82q0 -22 15 -36t43 -14t47 7q8 1 8 -6v-67q0 -7 -7 -10q-27 -15 -85 -15q-54 0 -93 26t-39 81t58 115zM127 551q-30 0 -48.5 17.5t-18.5 45.5t19 45t49 17t48 -17t18 -45t-18.5 -45.5
t-48.5 -17.5z" />
    <glyph glyph-name="Idotaccent" unicode="&#x130;" horiz-adv-x="273" 
d="M197 645v-636q0 -9 -9 -9h-104q-8 0 -8 9v636q0 7 8 7h105q8 0 8 -7zM135 704q-30 0 -48.5 16.5t-18.5 43.5q0 26 19 43t50 17q30 0 48.5 -16.5t18.5 -43.5t-19 -43.5t-50 -16.5z" />
    <glyph glyph-name="dotlessi" unicode="&#x131;" horiz-adv-x="253" 
d="M66 9v469q0 8 7 8h106q8 0 8 -8v-470q0 -8 -8 -8h-104q-9 0 -9 9z" />
    <glyph glyph-name="IJ" unicode="&#x132;" horiz-adv-x="548" 
d="M197 645v-636q0 -9 -9 -9h-104q-8 0 -8 9v636q0 7 8 7h105q8 0 8 -7zM359 652h106q7 0 7 -6v-618q0 -100 -47.5 -150.5t-132.5 -50.5q-44 0 -68 11q-6 2 -6 11v87q0 10 8 6q23 -10 55 -10q70 0 70 97v616q0 7 8 7z" />
    <glyph glyph-name="ij" unicode="&#x133;" horiz-adv-x="506" 
d="M126 552q-30 0 -48.5 17t-18.5 45q0 27 19 44.5t49 17.5t48 -17t18 -45t-18.5 -45t-48.5 -17zM66 9v469q0 8 7 8h106q8 0 8 -8v-470q0 -8 -8 -8h-104q-9 0 -9 9zM318 -25v503q0 8 9 8h104q8 0 8 -8v-431q0 -99 -10.5 -147.5t-34.5 -79.5q-41 -49 -121 -49q-31 0 -41 3
q-8 3 -8 10v76q0 8 8 8q50 -2 68 20.5t18 86.5zM379 552q-30 0 -48 17t-18 45t19 45t49 17t47.5 -17t17.5 -45t-18 -45t-49 -17z" />
    <glyph glyph-name="Jcircumflex" unicode="&#x134;" horiz-adv-x="390" 
d="M193 162v483q0 7 8 7h106q7 0 7 -6v-486q0 -220 -200 -220q-69 0 -109 20q-6 4 -6 12v88q0 9 8 6q47 -22 94 -22q48 0 70 26t22 92zM307 701l-63 65l-63 -64q-6 -6 -11 -6h-89q-3 0 -4 3t1 5l113 117q5 3 10 3h90q8 0 12 -5l116 -117q6 -6 -4 -6h-96q-7 0 -12 5z" />
    <glyph glyph-name="jcircumflex" unicode="&#x135;" horiz-adv-x="252" 
d="M66 -25v503q0 8 8 8h105q8 0 8 -8v-431q0 -100 -10.5 -148t-35.5 -79q-41 -49 -120 -49q-31 0 -41 3q-8 3 -8 10v76q0 8 7 8q51 -2 69 20.5t18 86.5zM123 637q-28 -49 -62 -97q-3 -4 -9 -4h-76q-4 0 -5 3t1 5l101 148q3 4 8 4h89q6 0 9 -5l104 -148q2 -2 0.5 -4.5
t-4.5 -2.5h-83q-7 0 -10 4q-10 16 -36 56z" />
    <glyph glyph-name="uni0136" unicode="&#x136;" horiz-adv-x="628" 
d="M188 0h-103q-9 0 -9 9v636q0 7 7 7h106q8 0 8 -7v-266h61q10 0 17 10q24 34 85 125t91 132q4 6 12 6h113q11 0 5 -10q-117 -173 -219 -299q-4 -5 0 -9q49 -59 251 -323q3 -4 1.5 -7.5t-6.5 -3.5h-123q-11 0 -16 8q-14 18 -198 262q-8 11 -19 11h-55v-272q0 -9 -9 -9z
M340 -225h-92q-9 0 -4 7q37 55 37 110q0 23 -15 63q-4 6 4 6h100q5 0 9 -6q16 -26 16 -57q0 -66 -45 -120q-3 -3 -10 -3z" />
    <glyph glyph-name="uni0137" unicode="&#x137;" horiz-adv-x="527" 
d="M66 702q0 7 8 7h105q7 0 7 -7v-408h39q11 0 17 6q13 20 60.5 89t62.5 91q4 6 11 6h109q11 0 5 -10q-28 -45 -163 -215q-3 -5 0 -9q34 -40 101.5 -123t98.5 -120q1 -2 1 -4t-1.5 -3.5t-4.5 -1.5h-134q-8 0 -12 6q-21 28 -67 89.5t-71 95.5q-7 8 -17 8h-35v-190q0 -9 -7 -9
h-105q-8 0 -8 9v693zM277 -223h-92q-7 0 -3 6q37 58 37 111q0 20 -16 63q-2 6 4 6h100q6 0 10 -6q15 -24 15 -57q0 -67 -45 -121q-4 -2 -10 -2z" />
    <glyph glyph-name="kgreenlandic" unicode="&#x138;" horiz-adv-x="531" 
d="M66 475q0 7 6 7h108q6 0 6 -7v-191h50q8 0 14 8q98 147 123 185q3 5 11 5h111q10 0 4 -8q-20 -31 -77.5 -106.5t-87.5 -112.5q41 -47 199 -246q1 -2 1 -4t-1.5 -3.5t-4.5 -1.5h-134q-8 0 -13 6q-5 4 -67.5 94t-66.5 94q-8 7 -17 7h-44v-194q0 -7 -7 -7h-106q-7 0 -7 7
v468z" />
    <glyph glyph-name="Lacute" unicode="&#x139;" horiz-adv-x="519" 
d="M471 0h-385q-10 0 -10 10v634q0 8 8 8h106q7 0 7 -7v-548h293q8 0 6 -8l-15 -82q-2 -7 -10 -7zM87 703l108 116q3 4 12 4h119q4 0 4.5 -3t-1.5 -5l-124 -113q-7 -7 -14 -7h-99q-9 0 -5 8z" />
    <glyph glyph-name="lacute" unicode="&#x13a;" horiz-adv-x="269" 
d="M71 739l92 84q7 6 16 6h111q4 0 5 -3.5t-3 -6.5l-107 -84q-8 -5 -16 -5h-94q-11 0 -4 9zM66 113v588q0 8 8 8h104q8 0 8 -8v-582q0 -38 31 -38q7 0 23 2q2 1 3.5 -0.5t1.5 -4.5v-67q0 -9 -7 -11q-22 -10 -63 -10q-53 0 -81 27.5t-28 95.5z" />
    <glyph glyph-name="uni013B" unicode="&#x13b;" horiz-adv-x="519" 
d="M471 0h-385q-10 0 -10 10v634q0 8 8 8h106q7 0 7 -7v-548h293q8 0 6 -8l-15 -82q-2 -7 -10 -7zM296 -225h-92q-6 0 -4 7q37 55 37 110q0 23 -15 63q-2 6 4 6h100q4 0 10 -6q15 -23 15 -57q0 -66 -45 -120q-3 -3 -10 -3z" />
    <glyph glyph-name="uni013C" unicode="&#x13c;" horiz-adv-x="269" 
d="M66 113v588q0 8 8 8h104q8 0 8 -8v-582q0 -38 31 -38q7 0 23 2q2 1 3.5 -0.5t1.5 -4.5v-67q0 -9 -7 -11q-22 -10 -63 -10q-53 0 -81 27.5t-28 95.5zM164 -225h-92q-8 0 -3 7q37 57 37 110q0 22 -16 63q-2 6 5 6h99q7 0 10 -6q15 -23 15 -57q0 -68 -45 -120q-2 -3 -10 -3z
" />
    <glyph glyph-name="Lcaron" unicode="&#x13d;" horiz-adv-x="519" 
d="M471 0h-385q-10 0 -10 10v634q0 8 8 8h106q7 0 7 -7v-548h293q8 0 6 -8l-15 -82q-2 -7 -10 -7zM370 444l-1 228q0 7 7 7h89q7 0 6 -6l-18 -230q-1 -6 -7 -6h-69q-7 0 -7 7z" />
    <glyph glyph-name="lcaron" unicode="&#x13e;" horiz-adv-x="319" 
d="M249 487l-1 227q0 8 6 8h77q7 0 7 -8l-14 -226q-2 -9 -8 -9h-60q-7 0 -7 8zM66 113v588q0 8 8 8h104q8 0 8 -8v-582q0 -38 31 -38q7 0 23 2q2 1 3.5 -0.5t1.5 -4.5v-67q0 -9 -7 -11q-22 -10 -63 -10q-53 0 -81 27.5t-28 95.5z" />
    <glyph glyph-name="Ldot" unicode="&#x13f;" horiz-adv-x="519" 
d="M471 0h-385q-10 0 -10 10v634q0 8 8 8h106q7 0 7 -7v-548h293q8 0 6 -8l-15 -82q-2 -7 -10 -7zM407 295q-30 0 -48.5 16.5t-18.5 43.5q0 26 19 43t50 17q30 0 48.5 -17t18.5 -44t-18.5 -43t-50.5 -16z" />
    <glyph glyph-name="ldot" unicode="&#x140;" horiz-adv-x="298" 
d="M276 339q-26 0 -40 18t-14 50t14 50t40 18q54 0 54 -68t-54 -68zM66 113v588q0 8 8 8h104q8 0 8 -8v-582q0 -38 31 -38q7 0 23 2q2 1 3.5 -0.5t1.5 -4.5v-67q0 -9 -7 -11q-22 -10 -63 -10q-53 0 -81 27.5t-28 95.5z" />
    <glyph glyph-name="Lslash" unicode="&#x141;" horiz-adv-x="530" 
d="M481 0h-387q-8 0 -8 7v234l-66 -28q-6 -3 -6 4v72q0 4 5 7l67 30v320q0 6 7 6h107q7 0 7 -7v-267l139 61q8 3 8 -5v-67q0 -9 -7 -11l-140 -62v-197h294q8 0 6 -7l-16 -82q-3 -8 -10 -8z" />
    <glyph glyph-name="lslash" unicode="&#x142;" horiz-adv-x="279" 
d="M196 394v-276q0 -39 32 -39q3 0 8.5 0.5t8.5 0.5q7 0 7 -7v-63q0 -9 -6 -11q-22 -9 -61 -9q-53 0 -81 27.5t-28 95.5v224l-61 -29q-7 -4 -7 4v67q0 5 5 8l63 30v286q0 6 6 6h108q6 0 6 -6v-229l74 35q7 3 7 -4v-55q0 -17 -5 -20z" />
    <glyph glyph-name="Nacute" unicode="&#x143;" horiz-adv-x="684" 
d="M76 646q0 6 7 6h135q8 0 12 -6q246 -449 265 -494h2q-3 81 -3 168v325q0 7 8 7h97q8 0 8 -8v-635q0 -9 -9 -9h-131q-7 0 -13 7q-27 59 -137.5 265.5t-130.5 253.5h-1q4 -51 4 -197v-321q0 -8 -7 -8h-97q-9 0 -9 9v637zM258 706l108 116q3 4 12 4h119q9 0 3 -8l-124 -113
q-7 -7 -14 -7h-99q-4 0 -5.5 3t0.5 5z" />
    <glyph glyph-name="nacute" unicode="&#x144;" horiz-adv-x="559" 
d="M66 9v362q0 57 -5 107q0 8 7 8h91q9 0 12 -7q5 -15 7 -40q66 57 151 57q31 0 58.5 -9.5t52 -31t39 -63t14.5 -99.5v-285q0 -8 -8 -8h-104q-9 0 -9 9v285q0 103 -86 103q-52 0 -100 -43v-346q0 -8 -8 -8h-105q-7 0 -7 9zM228 546l77 145q4 8 12 8h114q9 0 5 -9l-99 -146
q-5 -5 -14 -5h-91q-8 0 -4 7z" />
    <glyph glyph-name="uni0145" unicode="&#x145;" horiz-adv-x="684" 
d="M76 646q0 6 7 6h135q8 0 12 -6q246 -449 265 -494h2q-3 81 -3 168v325q0 7 8 7h97q8 0 8 -8v-635q0 -9 -9 -9h-131q-7 0 -13 7q-27 59 -137.5 265.5t-130.5 253.5h-1q4 -51 4 -197v-321q0 -8 -7 -8h-97q-9 0 -9 9v637zM356 -224h-92q-8 0 -3 7q37 57 37 110q0 26 -16 63
q-2 6 5 6h99q7 0 10 -6q16 -24 16 -57q0 -66 -46 -120q-2 -3 -10 -3z" />
    <glyph glyph-name="uni0146" unicode="&#x146;" horiz-adv-x="559" 
d="M66 9v362q0 57 -5 107q0 8 7 8h91q9 0 12 -7q5 -15 7 -40q66 57 151 57q31 0 58.5 -9.5t52 -31t39 -63t14.5 -99.5v-285q0 -8 -8 -8h-104q-9 0 -9 9v285q0 103 -86 103q-52 0 -100 -43v-346q0 -8 -8 -8h-105q-7 0 -7 9zM295 -223h-92q-8 0 -3 7q36 55 36 110q0 25 -15 63
q-1 6 4 6h100q5 0 10 -6q15 -23 15 -57q0 -66 -45 -120q-3 -3 -10 -3z" />
    <glyph glyph-name="Ncaron" unicode="&#x147;" horiz-adv-x="684" 
d="M76 646q0 6 7 6h135q8 0 12 -6q246 -449 265 -494h2q-3 81 -3 168v325q0 7 8 7h97q8 0 8 -8v-635q0 -9 -9 -9h-131q-7 0 -13 7q-27 59 -137.5 265.5t-130.5 253.5h-1q4 -51 4 -197v-321q0 -8 -7 -8h-97q-9 0 -9 9v637zM283 819l64 -64l62 64q6 6 11 6h89q3 0 4 -3t-1 -6
l-113 -116q-5 -3 -10 -3h-90q-8 0 -11 4l-117 118q-6 6 4 6h96q9 0 12 -6z" />
    <glyph glyph-name="ncaron" unicode="&#x148;" horiz-adv-x="559" 
d="M66 9v362q0 57 -5 107q0 8 7 8h91q9 0 12 -7q5 -15 7 -40q66 57 151 57q31 0 58.5 -9.5t52 -31t39 -63t14.5 -99.5v-285q0 -8 -8 -8h-104q-9 0 -9 9v285q0 103 -86 103q-52 0 -100 -43v-346q0 -8 -8 -8h-105q-7 0 -7 9zM276 595q32 52 63 98q3 3 9 3h75q3 0 4.5 -1.5
t1.5 -3t-2 -3.5l-100 -147q-4 -5 -9 -5h-89q-7 0 -9 5l-103 148q-2 2 -1 4.5t5 2.5h83q6 0 10 -4q46 -71 62 -97z" />
    <glyph glyph-name="napostrophe" unicode="&#x149;" horiz-adv-x="559" 
d="M67 521l-1 228q0 8 7 8h89q7 0 6 -7l-18 -230q0 -6 -7 -6h-69q-7 0 -7 7zM66 9v362q0 57 -5 107q0 8 7 8h91q9 0 12 -7q5 -15 7 -40q66 57 151 57q31 0 58.5 -9.5t52 -31t39 -63t14.5 -99.5v-285q0 -8 -8 -8h-104q-9 0 -9 9v285q0 103 -86 103q-52 0 -100 -43v-346
q0 -8 -8 -8h-105q-7 0 -7 9z" />
    <glyph glyph-name="Eng" unicode="&#x14a;" horiz-adv-x="684" 
d="M183 0h-100q-7 0 -7 7v639q0 6 7 6h137q6 0 10 -7l185 -322q62 -115 81 -158h1q-3 69 -3 169v311q0 7 7 7h100q6 0 6 -5v-596q0 -102 -10.5 -149t-34.5 -78q-41 -49 -121 -49q-29 0 -42 4q-6 1 -6 10l1 77q0 9 6 9q51 -1 70 21t18 82l-221 381q-60 107 -81 164h-1
q4 -50 4 -198v-318q0 -7 -6 -7z" />
    <glyph glyph-name="eng" unicode="&#x14b;" horiz-adv-x="559" 
d="M176 0h-101q-9 0 -9 9v361q0 74 -5 109q0 7 7 7h91q9 0 12 -7q4 -9 8 -39q75 56 153 56q29 0 55 -9t51 -30t40 -63t15 -101v-251q0 -99 -10.5 -145.5t-36.5 -77.5q-39 -48 -119 -48q-25 0 -36 3q-7 1 -7 9l1 67q0 9 6 9q48 2 64.5 22.5t16.5 83.5v332q0 100 -86 100
q-54 0 -100 -43v-344q0 -10 -10 -10z" />
    <glyph glyph-name="Omacron" unicode="&#x14c;" horiz-adv-x="724" 
d="M363 663q139 0 223 -95t85 -238q0 -158 -85.5 -249t-223.5 -91q-143 0 -226.5 91.5t-83.5 246.5q0 150 86.5 242.5t224.5 92.5zM177 327q0 -106 50.5 -171t138.5 -65q85 0 133 63t48 173q0 106 -50.5 171t-135.5 65q-82 0 -133 -62.5t-51 -173.5zM224 809h276q6 0 6 -7
v-75q0 -7 -6 -7h-273q-10 0 -10 7v75q0 7 7 7z" />
    <glyph glyph-name="omacron" unicode="&#x14d;" horiz-adv-x="574" 
d="M290 496q113 0 177 -71t64 -180q0 -117 -67.5 -186t-176.5 -69q-121 0 -182.5 74t-61.5 179q0 111 68 182t179 71zM284 407q-53 0 -85.5 -43.5t-32.5 -118.5q0 -76 32.5 -121t91.5 -45q51 0 84.5 40t33.5 122q0 75 -31 120.5t-93 45.5zM148 661h282q6 0 6 -7v-71
q0 -7 -7 -7h-282q-7 0 -7 7v71q0 7 8 7z" />
    <glyph glyph-name="Obreve" unicode="&#x14e;" horiz-adv-x="724" 
d="M363 663q139 0 223 -95t85 -238q0 -158 -85.5 -249t-223.5 -91q-143 0 -226.5 91.5t-83.5 246.5q0 150 86.5 242.5t224.5 92.5zM177 327q0 -106 50.5 -171t138.5 -65q85 0 133 63t48 173q0 106 -50.5 171t-135.5 65q-82 0 -133 -62.5t-51 -173.5zM201 851h81q7 0 8 -7
q20 -50 71 -50q55 0 72 51q4 6 8 6h82q6 0 6 -8q-8 -63 -56 -101t-112 -38q-67 0 -113.5 35.5t-52.5 104.5q-2 7 6 7z" />
    <glyph glyph-name="obreve" unicode="&#x14f;" horiz-adv-x="574" 
d="M290 496q113 0 177 -71t64 -180q0 -117 -67.5 -186t-176.5 -69q-121 0 -182.5 74t-61.5 179q0 111 68 182t179 71zM284 407q-53 0 -85.5 -43.5t-32.5 -118.5q0 -76 32.5 -121t91.5 -45q51 0 84.5 40t33.5 122q0 75 -31 120.5t-93 45.5zM128 684h81q5 0 6 -4
q19 -51 72 -51q58 0 74 51q1 4 5 4h81q5 0 5 -5q-11 -65 -54.5 -100t-111.5 -35q-67 0 -110 33.5t-53 100.5q-1 6 5 6z" />
    <glyph glyph-name="Ohungarumlaut" unicode="&#x150;" horiz-adv-x="724" 
d="M363 663q139 0 223 -95t85 -238q0 -158 -85.5 -249t-223.5 -91q-143 0 -226.5 91.5t-83.5 246.5q0 150 86.5 242.5t224.5 92.5zM177 327q0 -106 50.5 -171t138.5 -65q85 0 133 63t48 173q0 106 -50.5 171t-135.5 65q-82 0 -133 -62.5t-51 -173.5zM211 705l72 115
q2 6 10 6h100q7 0 3 -8l-88 -115q-4 -5 -10 -5h-83q-7 0 -4 7zM398 706l70 114q6 7 13 7h99q9 0 4 -10l-87 -112q-4 -7 -12 -7h-83q-9 0 -4 8z" />
    <glyph glyph-name="ohungarumlaut" unicode="&#x151;" horiz-adv-x="574" 
d="M290 496q113 0 177 -71t64 -180q0 -117 -67.5 -186t-176.5 -69q-121 0 -182.5 74t-61.5 179q0 111 68 182t179 71zM284 407q-53 0 -85.5 -43.5t-32.5 -118.5q0 -76 32.5 -121t91.5 -45q51 0 84.5 40t33.5 122q0 75 -31 120.5t-93 45.5zM144 553l66 130q4 8 15 8h86
q5 0 7 -3.5t-1 -6.5l-82 -134q-6 -8 -14 -8h-71q-13 0 -6 14zM327 553l66 131q4 8 12 8h89q5 0 6.5 -3.5t-0.5 -7.5l-83 -133q-5 -8 -16 -8h-68q-6 0 -7.5 4t1.5 9z" />
    <glyph glyph-name="OE" unicode="&#x152;" horiz-adv-x="947" 
d="M484 94v461q-27 6 -83 6q-102 0 -163.5 -61t-61.5 -173q0 -116 61 -176.5t166 -60.5q45 0 81 4zM892 0h-360q-76 -6 -141 -6q-159 0 -249 87t-90 243t96.5 245t250.5 89q35 0 131 -6h350q5 0 7 -5l10 -85q1 -7 -6 -7h-286v-173h259q6 0 6 -7v-84q0 -7 -7 -7h-258v-187
h304q6 0 5 -7l-14 -84q-1 -6 -8 -6z" />
    <glyph glyph-name="oe" unicode="&#x153;" horiz-adv-x="889" 
d="M43 241q0 114 68 184.5t176 70.5q127 0 182 -99q56 99 176 99q53 0 93.5 -19t64 -50.5t35 -66.5t11.5 -71q0 -58 -10 -64q-16 -6 -106 -6h-202q1 -58 37.5 -94t111.5 -36q69 0 125 24q4 1 5.5 -0.5t1.5 -6.5v-74q0 -11 -5 -14q-51 -26 -149 -28q-140 0 -191 95
q-59 -95 -181 -95q-119 0 -181 74t-62 177zM286 403q-55 0 -87.5 -41t-32.5 -117q0 -72 33 -115t91 -43q50 0 84 38t34 114q0 75 -30.5 119.5t-91.5 44.5zM531 296h160q42 0 44 7v10q0 33 -23 65t-74 32q-46 0 -73 -31.5t-34 -82.5z" />
    <glyph glyph-name="Racute" unicode="&#x154;" horiz-adv-x="614" 
d="M187 0h-103q-8 0 -8 8v636q0 8 6 8q80 3 197 3q119 0 185 -48t66 -140q0 -131 -137 -177q164 -209 210 -279q7 -11 -3 -11h-125q-9 0 -14 5q-40 54 -163 235q-10 18 -32 18h-72v-250q0 -8 -7 -8zM194 354h79q69 0 103 28.5t34 77.5t-36 74.5t-101 25.5t-79 -2v-204z
M204 704l107 116q5 5 12 5h119q9 0 4 -8l-125 -114q-5 -6 -14 -6h-99q-4 0 -5 2.5t1 4.5z" />
    <glyph glyph-name="racute" unicode="&#x155;" horiz-adv-x="360" 
d="M67 486h94q8 0 11 -8q6 -21 10 -61q27 37 68.5 58t79.5 21q9 0 13 -1q6 -1 6 -10v-93q0 -7 -8 -7q-43 2 -85.5 -14.5t-68.5 -44.5v-318q0 -8 -8 -8h-105q-8 0 -8 8v337q0 80 -5 135q-1 6 6 6zM121 546l77 145q4 8 12 8h114q10 0 5 -9l-99 -146q-5 -5 -14 -5h-91
q-7 0 -4 7z" />
    <glyph glyph-name="uni0156" unicode="&#x156;" horiz-adv-x="614" 
d="M187 0h-103q-8 0 -8 8v636q0 8 6 8q80 3 197 3q119 0 185 -48t66 -140q0 -131 -137 -177q164 -209 210 -279q7 -11 -3 -11h-125q-9 0 -14 5q-40 54 -163 235q-10 18 -32 18h-72v-250q0 -8 -7 -8zM194 354h79q69 0 103 28.5t34 77.5t-36 74.5t-101 25.5t-79 -2v-204z
M323 -221h-92q-8 0 -3 7q37 57 37 110q0 26 -16 63q-1 6 5 6h99q7 0 10 -6q16 -24 16 -57q0 -66 -46 -120q-1 -3 -10 -3z" />
    <glyph glyph-name="uni0157" unicode="&#x157;" horiz-adv-x="360" 
d="M67 486h94q8 0 11 -8q6 -21 10 -61q27 37 68.5 58t79.5 21q9 0 13 -1q6 -1 6 -10v-93q0 -7 -8 -7q-43 2 -85.5 -14.5t-68.5 -44.5v-318q0 -8 -8 -8h-105q-8 0 -8 8v337q0 80 -5 135q-1 6 6 6zM144 -218h-92q-8 0 -3 7q37 57 37 110q0 20 -16 63q-2 6 5 6h99q6 0 10 -6
q15 -23 15 -57q0 -67 -45 -120q-2 -3 -10 -3z" />
    <glyph glyph-name="Rcaron" unicode="&#x158;" horiz-adv-x="614" 
d="M187 0h-103q-8 0 -8 8v636q0 8 6 8q80 3 197 3q119 0 185 -48t66 -140q0 -131 -137 -177q164 -209 210 -279q7 -11 -3 -11h-125q-9 0 -14 5q-40 54 -163 235q-10 18 -32 18h-72v-250q0 -8 -7 -8zM194 354h79q69 0 103 28.5t34 77.5t-36 74.5t-101 25.5t-79 -2v-204z
M220 819l64 -64l62 64q6 6 11 6h89q3 0 4 -3t-1 -5l-113 -117q-4 -3 -10 -3h-90q-8 0 -12 4l-116 118q-6 6 4 6h96q8 0 12 -6z" />
    <glyph glyph-name="rcaron" unicode="&#x159;" horiz-adv-x="360" 
d="M67 486h94q8 0 11 -8q6 -21 10 -61q27 37 68.5 58t79.5 21q9 0 13 -1q6 -1 6 -10v-93q0 -7 -8 -7q-43 2 -85.5 -14.5t-68.5 -44.5v-318q0 -8 -8 -8h-105q-8 0 -8 8v337q0 80 -5 135q-1 6 6 6zM193 595q32 52 63 98q3 3 9 3h75q4 0 5 -3t-1 -5l-100 -147q-4 -5 -9 -5h-89
q-6 0 -9 5l-103 148q-2 2 -1 4.5t5 2.5h83q6 0 10 -4q46 -71 62 -97z" />
    <glyph glyph-name="Sacute" unicode="&#x15a;" horiz-adv-x="510" 
d="M237 -10q-123 0 -197 51q-7 5 -7 15v95q0 4 2.5 5.5t5.5 -0.5q92 -65 201 -65q55 0 81 21t26 53q0 33 -24.5 54.5t-103.5 55.5q-103 44 -143 88.5t-40 115.5q0 77 61 130t169 53q101 0 164 -36q6 -5 6 -12v-91q0 -9 -9 -4q-76 46 -163 46q-60 0 -84 -23.5t-24 -51.5
q0 -29 24 -52t95 -53q114 -47 154.5 -93.5t40.5 -114.5q0 -86 -63 -136.5t-172 -50.5zM183 713l108 116q3 4 11 4h120q7 0 3 -8l-125 -113q-5 -6 -14 -6h-99q-3 0 -4.5 2.5t0.5 4.5z" />
    <glyph glyph-name="sacute" unicode="&#x15b;" horiz-adv-x="406" 
d="M345 366q-68 38 -139 38q-62 0 -62 -42q0 -19 16.5 -32t71.5 -35q80 -33 113.5 -66t33.5 -85q0 -73 -51 -113.5t-136 -40.5q-92 0 -155 39q-6 3 -6 10v92q0 4 2.5 5.5t4.5 -0.5q85 -54 162 -54q32 0 47 13t15 32q0 20 -18.5 34t-71.5 36q-78 32 -108.5 65.5t-30.5 88.5
q0 63 48.5 104t134.5 41q81 0 132 -29q6 -5 6 -13v-82q0 -11 -9 -6zM131 546l77 145q4 8 12 8h114q10 0 5 -9l-99 -146q-5 -5 -14 -5h-91q-7 0 -4 7z" />
    <glyph glyph-name="Scircumflex" unicode="&#x15c;" horiz-adv-x="510" 
d="M237 -10q-123 0 -197 51q-7 5 -7 15v95q0 4 2.5 5.5t5.5 -0.5q92 -65 201 -65q55 0 81 21t26 53q0 33 -24.5 54.5t-103.5 55.5q-103 44 -143 88.5t-40 115.5q0 77 61 130t169 53q101 0 164 -36q6 -5 6 -12v-91q0 -9 -9 -4q-76 46 -163 46q-60 0 -84 -23.5t-24 -51.5
q0 -29 24 -52t95 -53q114 -47 154.5 -93.5t40.5 -114.5q0 -86 -63 -136.5t-172 -50.5zM314 711l-63 65l-62 -65q-5 -5 -11 -5h-89q-3 0 -4 3t1 5l113 116q4 4 10 4h90q8 0 11 -5l117 -117q6 -6 -4 -6h-96q-8 0 -13 5z" />
    <glyph glyph-name="scircumflex" unicode="&#x15d;" horiz-adv-x="406" 
d="M345 366q-68 38 -139 38q-62 0 -62 -42q0 -19 16.5 -32t71.5 -35q80 -33 113.5 -66t33.5 -85q0 -73 -51 -113.5t-136 -40.5q-92 0 -155 39q-6 3 -6 10v92q0 4 2.5 5.5t4.5 -0.5q85 -54 162 -54q32 0 47 13t15 32q0 20 -18.5 34t-71.5 36q-78 32 -108.5 65.5t-30.5 88.5
q0 63 48.5 104t134.5 41q81 0 132 -29q6 -5 6 -13v-82q0 -11 -9 -6zM198 637q-28 -49 -62 -97q-3 -4 -9 -4h-76q-9 0 -4 8l101 148q3 4 8 4h89q7 0 9 -5l104 -148q2 -2 0.5 -4.5t-4.5 -2.5h-83q-6 0 -10 4q-10 16 -37 56z" />
    <glyph glyph-name="uni015E" unicode="&#x15e;" horiz-adv-x="510" 
d="M438 614v-91q0 -9 -9 -4q-76 46 -163 46q-60 0 -84 -23.5t-24 -51.5q0 -29 24 -52t95 -53q114 -47 154.5 -93.5t40.5 -114.5q0 -76 -49.5 -124.5t-137.5 -59.5l-25 -34q86 -23 86 -94q0 -42 -33 -69t-86 -27q-47 0 -73 14q-6 2 -6 11v47q0 8 7 5q31 -13 64 -13
q43 0 43 30q0 35 -94 48q-2 2 -2.5 12t1.5 13l43 55q-106 5 -170 50q-7 5 -7 15v95q0 4 2.5 5.5t5.5 -0.5q92 -65 201 -65q55 0 81 21t26 53q0 33 -24.5 54.5t-103.5 55.5q-103 44 -143 88.5t-40 115.5q0 77 61 130t169 53q101 0 164 -36q6 -5 6 -12z" />
    <glyph glyph-name="uni015F" unicode="&#x15f;" horiz-adv-x="406" 
d="M354 454v-82q0 -11 -9 -6q-68 38 -139 38q-62 0 -62 -42q0 -19 16.5 -32t71.5 -35q80 -33 113.5 -66t33.5 -85q0 -62 -37 -100.5t-101 -49.5l-25 -35q86 -24 86 -94q0 -42 -33.5 -69t-86.5 -27q-47 0 -73 14q-6 2 -6 11v47q0 8 8 5q29 -13 63 -13q43 0 43 30q0 35 -94 48
q-2 2 -2.5 12t2.5 13l42 55q-79 7 -128 38q-6 3 -6 10v92q0 4 2.5 5.5t4.5 -0.5q85 -54 162 -54q32 0 47 13t15 32q0 20 -18.5 34t-71.5 36q-78 32 -108.5 65.5t-30.5 88.5q0 63 48.5 104t134.5 41q81 0 132 -29q6 -5 6 -13z" />
    <glyph glyph-name="Scaron" unicode="&#x160;" horiz-adv-x="510" 
d="M237 -10q-123 0 -197 51q-7 5 -7 15v95q0 4 2.5 5.5t5.5 -0.5q92 -65 201 -65q55 0 81 21t26 53q0 33 -24.5 54.5t-103.5 55.5q-103 44 -143 88.5t-40 115.5q0 77 61 130t169 53q101 0 164 -36q6 -5 6 -12v-91q0 -9 -9 -4q-76 46 -163 46q-60 0 -84 -23.5t-24 -51.5
q0 -29 24 -52t95 -53q114 -47 154.5 -93.5t40.5 -114.5q0 -86 -63 -136.5t-172 -50.5zM198 826l63 -64l62 64q6 6 11 6h89q4 0 4.5 -3t-1.5 -6l-112 -116q-6 -3 -10 -3h-90q-9 0 -12 4l-117 118q-4 6 4 6h97q8 0 12 -6z" />
    <glyph glyph-name="scaron" unicode="&#x161;" horiz-adv-x="406" 
d="M345 366q-68 38 -139 38q-62 0 -62 -42q0 -19 16.5 -32t71.5 -35q80 -33 113.5 -66t33.5 -85q0 -73 -51 -113.5t-136 -40.5q-92 0 -155 39q-6 3 -6 10v92q0 4 2.5 5.5t4.5 -0.5q85 -54 162 -54q32 0 47 13t15 32q0 20 -18.5 34t-71.5 36q-78 32 -108.5 65.5t-30.5 88.5
q0 63 48.5 104t134.5 41q81 0 132 -29q6 -5 6 -13v-82q0 -11 -9 -6zM209 595q23 41 62 98q3 3 9 3h76q9 0 4 -8l-101 -147q-3 -5 -8 -5h-89q-6 0 -10 5l-103 148q-2 2 -0.5 4.5t4.5 2.5h83q6 0 10 -4q8 -11 20.5 -30.5t25.5 -40t17 -26.5z" />
    <glyph glyph-name="uni0162" unicode="&#x162;" horiz-adv-x="557" 
d="M192 -64l49 64h-20q-8 0 -8 8v547h-201q-8 0 -6 9l13 81q1 7 9 7h504q8 0 9 -8l9 -79q1 -10 -7 -10h-209v-547q0 -8 -7 -8h-13l-29 -41q85 -25 85 -96q0 -42 -32.5 -68t-85.5 -26q-50 0 -74 13q-6 4 -6 11v47q0 8 8 6q29 -13 63 -13q43 0 43 29q0 36 -94 48
q-2 2 -2.5 12.5t2.5 13.5z" />
    <glyph glyph-name="uni0163" unicode="&#x163;" horiz-adv-x="325" 
d="M197 486h101q7 0 7 -7v-79q0 -7 -6 -7l-103 -2v-235q0 -35 13 -51t44 -16q22 0 43 7q3 1 4.5 -0.5t1.5 -5.5v-72q0 -9 -6 -11q-27 -14 -72 -17l-23 -31q85 -23 85 -94q0 -42 -33 -69t-86 -27q-47 0 -73 14q-6 2 -6 11v47q0 8 8 5q29 -13 63 -13q43 0 43 30q0 35 -94 48
q-2 2 -2.5 12t2.5 13l48 60q-80 24 -80 133v262l-62 1q-7 1 -7 10v76q0 8 8 8h61q2 78 11 125q2 7 8 8l100 19q8 2 8 -5q-4 -43 -6 -147z" />
    <glyph glyph-name="Tcaron" unicode="&#x164;" horiz-adv-x="557" 
d="M213 9v546h-201q-8 0 -6 9l13 81q1 7 9 7h504q8 0 9 -8l9 -79q1 -10 -7 -10h-209v-546q0 -9 -8 -9h-103q-10 -1 -10 9zM220 822l63 -65l62 65q5 5 11 5h89q4 0 4.5 -3t-1.5 -5l-113 -116q-4 -4 -9 -4h-90q-9 0 -12 5l-117 117q-4 6 4 6h97q7 0 12 -5z" />
    <glyph glyph-name="tcaron" unicode="&#x165;" horiz-adv-x="343" 
d="M276 557l-1 177q0 7 7 7h75q9 0 9 -8l-19 -176q0 -8 -8 -8h-56q-7 0 -7 8zM302 84v-66q0 -9 -6 -11q-35 -17 -90 -17q-130 0 -130 139v266l-62 2q-7 1 -7 9v72q0 8 8 8h61q2 78 11 125q2 7 8 8l100 19q8 2 8 -5q-4 -43 -6 -147h101q7 0 7 -7v-74q0 -7 -6 -8l-103 -2v-245
q0 -35 13 -51t44 -16q18 0 43 7q3 1 4.5 -0.5t1.5 -5.5z" />
    <glyph glyph-name="Tbar" unicode="&#x166;" horiz-adv-x="557" 
d="M541 644l9 -79q1 -10 -7 -10h-209v-199h102q7 0 7 -5v-69q0 -6 -7 -6h-102v-267q0 -9 -8 -9h-103q-10 -1 -10 9v267h-94q-7 0 -7 7v67q0 6 6 6h95v199h-201q-8 0 -6 9l13 81q1 7 9 7h504q8 0 9 -8z" />
    <glyph glyph-name="tbar" unicode="&#x167;" horiz-adv-x="325" 
d="M197 486h101q7 0 7 -7v-74q0 -7 -6 -8l-103 -2v-106h79q6 0 6 -6v-57q0 -7 -6 -7h-79v-69q0 -35 13 -51t44 -16q18 0 43 7q3 1 4.5 -0.5t1.5 -5.5v-66q0 -9 -6 -11q-35 -17 -90 -17q-130 0 -130 139v90h-58q-6 0 -6 7v57q0 6 6 6h58v106l-62 2q-7 1 -7 9v72q0 8 8 8h61
q2 78 11 125q2 7 8 8l100 19q8 2 8 -5q-4 -43 -6 -147z" />
    <glyph glyph-name="Utilde" unicode="&#x168;" horiz-adv-x="678" 
d="M197 645v-405q0 -71 36.5 -110.5t107.5 -39.5q140 0 140 154v400q0 8 8 8h104q9 0 9 -8v-401q0 -130 -72.5 -191.5t-190.5 -61.5q-121 0 -192 62.5t-71 185.5v406q0 8 8 8h105q8 0 8 -7zM244 710h-67q-7 0 -7 6q0 61 29 93t72 32q36 0 76.5 -25t53.5 -25q26 0 29 42
q0 6 6 6h67q6 0 6 -7q-4 -124 -97 -124q-33 0 -73.5 24.5t-56.5 24.5q-28 0 -32 -42q0 -5 -6 -5z" />
    <glyph glyph-name="utilde" unicode="&#x169;" horiz-adv-x="553" 
d="M487 479v-369q0 -50 5 -103q1 -7 -7 -7h-93q-8 0 -10 6q-2 7 -5 36q-63 -52 -146 -52q-72 0 -118.5 42.5t-46.5 141.5v304q0 8 8 8h105q7 0 7 -7v-287q0 -104 84 -104q56 0 96 40v350q0 8 8 8h105q8 0 8 -7zM177 555h-66q-7 0 -7 7q0 64 29 97t74 33q35 0 80 -25t56 -25
q28 0 31 43q0 6 6 6h66q7 0 7 -6q-1 -132 -99 -132q-31 0 -75 24.5t-62 24.5q-31 0 -35 -42q0 -5 -5 -5z" />
    <glyph glyph-name="Umacron" unicode="&#x16a;" horiz-adv-x="678" 
d="M197 645v-405q0 -71 36.5 -110.5t107.5 -39.5q140 0 140 154v400q0 8 8 8h104q9 0 9 -8v-401q0 -130 -72.5 -191.5t-190.5 -61.5q-121 0 -192 62.5t-71 185.5v406q0 8 8 8h105q8 0 8 -7zM202 810h276q6 0 6 -7v-75q0 -8 -7 -8h-273q-9 0 -9 7v76q0 7 7 7z" />
    <glyph glyph-name="umacron" unicode="&#x16b;" horiz-adv-x="553" 
d="M487 479v-369q0 -50 5 -103q1 -7 -7 -7h-93q-8 0 -10 6q-2 7 -5 36q-63 -52 -146 -52q-72 0 -118.5 42.5t-46.5 141.5v304q0 8 8 8h105q7 0 7 -7v-287q0 -104 84 -104q56 0 96 40v350q0 8 8 8h105q8 0 8 -7zM139 661h282q6 0 6 -7v-71q0 -7 -7 -7h-282q-7 0 -7 7v71
q0 7 8 7z" />
    <glyph glyph-name="Ubreve" unicode="&#x16c;" horiz-adv-x="678" 
d="M197 645v-405q0 -71 36.5 -110.5t107.5 -39.5q140 0 140 154v400q0 8 8 8h104q9 0 9 -8v-401q0 -130 -72.5 -191.5t-190.5 -61.5q-121 0 -192 62.5t-71 185.5v406q0 8 8 8h105q8 0 8 -7zM179 840h81q7 0 8 -6q20 -50 71 -50q55 0 72 51q3 5 8 5h82q6 0 6 -8
q-8 -63 -56 -100.5t-112 -37.5q-67 0 -113.5 35.5t-52.5 103.5q-2 7 6 7z" />
    <glyph glyph-name="ubreve" unicode="&#x16d;" horiz-adv-x="553" 
d="M487 479v-369q0 -50 5 -103q1 -7 -7 -7h-93q-8 0 -10 6q-2 7 -5 36q-63 -52 -146 -52q-72 0 -118.5 42.5t-46.5 141.5v304q0 8 8 8h105q7 0 7 -7v-287q0 -104 84 -104q56 0 96 40v350q0 8 8 8h105q8 0 8 -7zM119 684h81q5 0 6 -4q19 -51 72 -51q58 0 74 51q1 4 5 4h81
q5 0 5 -5q-11 -65 -54.5 -100t-111.5 -35q-67 0 -110 33.5t-53 100.5q-1 6 5 6z" />
    <glyph glyph-name="Uring" unicode="&#x16e;" horiz-adv-x="678" 
d="M197 645v-405q0 -71 36.5 -110.5t107.5 -39.5q140 0 140 154v400q0 8 8 8h104q9 0 9 -8v-401q0 -130 -72.5 -191.5t-190.5 -61.5q-121 0 -192 62.5t-71 185.5v406q0 8 8 8h105q8 0 8 -7zM228 777q0 42 31 66.5t78 24.5q48 0 78.5 -25t30.5 -66q0 -42 -30.5 -67t-78.5 -25
t-78.5 24.5t-30.5 67.5zM292 777q0 -18 12.5 -29t32.5 -11t32.5 10.5t12.5 29.5q0 18 -12.5 29t-32.5 11t-32.5 -11t-12.5 -29z" />
    <glyph glyph-name="uring" unicode="&#x16f;" horiz-adv-x="553" 
d="M487 479v-369q0 -50 5 -103q1 -7 -7 -7h-93q-8 0 -10 6q-2 7 -5 36q-63 -52 -146 -52q-72 0 -118.5 42.5t-46.5 141.5v304q0 8 8 8h105q7 0 7 -7v-287q0 -104 84 -104q56 0 96 40v350q0 8 8 8h105q8 0 8 -7zM170 625q0 42 30 69t78 27t78 -27t30 -69q0 -44 -30 -70.5
t-78 -26.5q-49 0 -78.5 26t-29.5 71zM232 625q0 -20 13 -32t33 -12t33 12t13 32t-13.5 32t-32.5 12q-20 0 -33 -12t-13 -32z" />
    <glyph glyph-name="Uhungarumlaut" unicode="&#x170;" horiz-adv-x="678" 
d="M197 645v-405q0 -71 36.5 -110.5t107.5 -39.5q140 0 140 154v400q0 8 8 8h104q9 0 9 -8v-401q0 -130 -72.5 -191.5t-190.5 -61.5q-121 0 -192 62.5t-71 185.5v406q0 8 8 8h105q8 0 8 -7zM184 704l72 115q4 6 10 6h100q4 0 4.5 -3t-1.5 -6l-87 -115q-7 -5 -11 -5h-83
q-7 0 -4 8zM371 704l71 115q4 6 12 6h99q9 0 4 -9l-87 -112q-4 -7 -12 -7h-83q-8 0 -4 7z" />
    <glyph glyph-name="uhungarumlaut" unicode="&#x171;" horiz-adv-x="553" 
d="M487 479v-369q0 -50 5 -103q1 -7 -7 -7h-93q-8 0 -10 6q-2 7 -5 36q-63 -52 -146 -52q-72 0 -118.5 42.5t-46.5 141.5v304q0 8 8 8h105q7 0 7 -7v-287q0 -104 84 -104q56 0 96 40v350q0 8 8 8h105q8 0 8 -7zM137 553l65 130q4 8 15 8h87q5 0 6.5 -3.5t-1.5 -6.5l-82 -134
q-6 -8 -14 -8h-70q-13 0 -6 14zM319 553l66 131q4 8 13 8h89q5 0 6.5 -3.5t-0.5 -7.5l-83 -133q-5 -8 -17 -8h-67q-14 0 -7 13z" />
    <glyph glyph-name="Uogonek" unicode="&#x172;" horiz-adv-x="678" 
d="M505 -132v-62q0 -10 -7 -14q-30 -16 -82 -16q-51 0 -88.5 25.5t-37.5 79.5q0 59 64 111q-12 -2 -23 -2q-116 2 -185.5 64t-69.5 184v406q0 8 8 8h105q8 0 8 -7v-405q0 -71 36.5 -110.5t107.5 -39.5q140 0 140 154v400q0 8 8 8h104q9 0 9 -8v-403q0 -159 -120 -221
q-90 -55 -90 -106q0 -21 15.5 -34t42.5 -13t46 7q9 1 9 -6z" />
    <glyph glyph-name="uogonek" unicode="&#x173;" horiz-adv-x="553" 
d="M376 43q-60 -53 -143 -53q-73 0 -120 43t-47 141v305q0 7 8 7h106q6 0 6 -7v-288q0 -103 83 -103q58 0 97 39v351q0 8 8 8h106q7 0 7 -7v-369q0 -68 5 -98q2 -10 -4 -11q-81 -43 -81 -90q0 -43 52 -43q24 0 43 7q9 3 9 -6v-63q0 -10 -7 -14q-30 -15 -80 -15
q-52 0 -89 25.5t-37 80.5q0 62 81 133q-3 15 -3 27z" />
    <glyph glyph-name="Wcircumflex" unicode="&#x174;" horiz-adv-x="905" 
d="M528 645l118 -515h1q38 175 117 515q3 7 10 7h105q8 0 7 -9l-173 -637q-2 -6 -10 -6h-112q-9 0 -10 6q-118 498 -124 526h-1q-18 -87 -134 -523q-2 -9 -10 -9h-109q-8 0 -12 9l-172 635q-1 8 7 8h112q9 0 10 -6q109 -435 122 -516h1q27 127 124 515q2 7 11 7h112
q8 0 10 -7zM519 708l-64 65l-62 -65q-6 -6 -11 -6h-89q-3 0 -4 3.5t1 5.5l113 116q4 4 10 4h90q7 0 12 -5l116 -117q2 -2 1 -4.5t-5 -2.5h-96q-8 0 -12 6z" />
    <glyph glyph-name="wcircumflex" unicode="&#x175;" horiz-adv-x="745" 
d="M581 0h-112q-8 0 -11 8q-63 252 -85 354h-1q-14 -72 -97 -354q-3 -8 -11 -8h-111q-10 0 -13 9l-131 469q-3 8 6 8h107q8 0 9 -6q67 -256 89 -368h2q25 105 95 366q1 8 9 8h107q7 0 8 -6q67 -262 88 -371h2q33 161 93 370q1 7 8 7h99q7 0 6 -7l-145 -471q-3 -8 -11 -8z
M373 637q-36 -60 -63 -97q-3 -4 -9 -4h-76q-4 0 -4.5 3t1.5 5l100 148q4 4 9 4h89q6 0 9 -5l103 -148q2 -2 0.5 -4.5t-4.5 -2.5h-83q-6 0 -10 4q-46 71 -62 97z" />
    <glyph glyph-name="Ycircumflex" unicode="&#x176;" horiz-adv-x="597" 
d="M230 262l-215 381q-5 9 6 9h121q6 0 9 -5q125 -243 154 -308q33 72 149 308q1 5 8 5h116q8 0 4 -7l-216 -386q-8 -13 -8 -31v-219q0 -9 -9 -9h-103q-9 0 -9 9v224q0 16 -7 29zM357 709l-63 65l-62 -65q-5 -5 -11 -5h-89q-4 0 -4.5 3t1.5 5l113 116q4 4 9 4h90q9 0 12 -5
l117 -117q4 -6 -4 -6h-97q-7 0 -12 5z" />
    <glyph glyph-name="ycircumflex" unicode="&#x177;" horiz-adv-x="487" 
d="M11 486h117q6 0 9 -7q101 -276 120 -339h1q51 134 107 339q3 7 10 7h99q9 0 7 -9q-48 -202 -164 -447q-85 -174 -145 -246q-6 -7 -16 -7h-114q-5 0 -6.5 3t2.5 7q35 42 83 114.5t68 114.5q5 11 3 17q-19 39 -90 208.5t-97 236.5q-2 8 6 8zM241 637q-28 -49 -62 -97
q-3 -4 -9 -4h-76q-9 0 -4 8l101 148q3 4 8 4h89q6 0 9 -5l104 -148q2 -2 0.5 -4.5t-4.5 -2.5h-83q-6 0 -10 4q-10 16 -36 56z" />
    <glyph glyph-name="Ydieresis" unicode="&#x178;" horiz-adv-x="597" 
d="M230 262l-215 381q-5 9 6 9h121q6 0 9 -5q125 -243 154 -308q33 72 149 308q1 5 8 5h116q8 0 4 -7l-216 -386q-8 -13 -8 -31v-219q0 -9 -9 -9h-103q-9 0 -9 9v224q0 16 -7 29zM194 700q-29 0 -47 16t-18 42q0 27 19 43.5t48 16.5q28 0 45.5 -17t17.5 -43q0 -27 -18 -42.5
t-47 -15.5zM401 700q-28 0 -46 15.5t-18 42.5q0 26 19 43t47 17t46 -17t18 -43q0 -27 -18 -42.5t-48 -15.5z" />
    <glyph glyph-name="Zacute" unicode="&#x179;" horiz-adv-x="558" 
d="M522 0h-495q-9 0 -9 8v55q0 7 4 12l345 480h-335q-8 0 -7 8l14 82q2 7 9 7h465q6 0 6 -6v-60q0 -8 -5 -15l-336 -474h363q9 0 6 -9l-16 -80q-2 -8 -9 -8zM203 715l108 116q4 4 12 4h119q4 0 4.5 -3t-1.5 -5l-124 -113q-7 -7 -14 -7h-99q-4 0 -5.5 3t0.5 5z" />
    <glyph glyph-name="zacute" unicode="&#x17a;" horiz-adv-x="431" 
d="M399 0h-376q-6 0 -6 6v52q0 5 3 10q136 185 240 323h-97h-139q-10 0 -7 9l14 78q2 8 9 8h355q6 0 6 -7v-52q0 -8 -5 -14q-138 -200 -232 -319h115h138q7 0 6 -8l-16 -79q-1 -7 -8 -7zM151 546l77 145q4 8 12 8h114q10 0 5 -9l-99 -146q-5 -5 -14 -5h-91q-7 0 -4 7z" />
    <glyph glyph-name="Zdotaccent" unicode="&#x17b;" horiz-adv-x="558" 
d="M522 0h-495q-9 0 -9 8v55q0 7 4 12l345 480h-335q-8 0 -7 8l14 82q2 7 9 7h465q6 0 6 -6v-60q0 -8 -5 -15l-336 -474h363q9 0 6 -9l-16 -80q-2 -8 -9 -8zM277 714q-30 0 -48.5 16.5t-18.5 43.5q0 26 19 43t50 17q30 0 48 -17t18 -44t-18.5 -43t-49.5 -16z" />
    <glyph glyph-name="zdotaccent" unicode="&#x17c;" horiz-adv-x="431" 
d="M399 0h-376q-6 0 -6 6v52q0 5 3 10q136 185 240 323h-97h-139q-10 0 -7 9l14 78q2 8 9 8h355q6 0 6 -7v-52q0 -8 -5 -14q-138 -200 -232 -319h115h138q7 0 6 -8l-16 -79q-1 -7 -8 -7zM216 552q-30 0 -48 17t-18 45t19 45t49 17t48 -17t18 -45t-18.5 -45t-49.5 -17z" />
    <glyph glyph-name="Zcaron" unicode="&#x17d;" horiz-adv-x="558" 
d="M522 0h-495q-9 0 -9 8v55q0 7 4 12l345 480h-335q-8 0 -7 8l14 82q2 7 9 7h465q6 0 6 -6v-60q0 -8 -5 -15l-336 -474h363q9 0 6 -9l-16 -80q-2 -8 -9 -8zM221 827l63 -65l62 65q6 6 11 6h89q3 0 4 -3.5t-1 -5.5l-113 -116q-6 -4 -10 -4h-90q-8 0 -11 5l-117 118q-4 6 4 6
h96q7 0 13 -6z" />
    <glyph glyph-name="zcaron" unicode="&#x17e;" horiz-adv-x="431" 
d="M399 0h-376q-6 0 -6 6v52q0 5 3 10q136 185 240 323h-97h-139q-10 0 -7 9l14 78q2 8 9 8h355q6 0 6 -7v-52q0 -8 -5 -14q-138 -200 -232 -319h115h138q7 0 6 -8l-16 -79q-1 -7 -8 -7zM221 595q23 41 62 98q3 3 9 3h76q9 0 4 -8l-101 -147q-3 -5 -8 -5h-89q-6 0 -10 5
l-103 148q-2 2 -0.5 4.5t4.5 2.5h83q6 0 10 -4q8 -11 20.5 -30.5t25.5 -40t17 -26.5z" />
    <glyph glyph-name="longs" unicode="&#x17f;" horiz-adv-x="260" 
d="M15 486h61v17q0 97 46.5 156t131.5 59q35 0 62 -9q5 -3 5 -10v-84q0 -7 -7 -6q-16 8 -41 8q-77 0 -77 -107v-502q0 -8 -8 -8h-104q-8 0 -8 8v386l-61 2q-6 1 -6 8v76q0 6 6 6z" />
    <glyph glyph-name="uni018F" unicode="&#x18f;" horiz-adv-x="689" 
d="M59 348q9 5 159 5h294v12q-2 75 -54.5 132.5t-151.5 57.5q-112 0 -209 -55q-8 -4 -8 6v91q0 9 5 11q95 55 226 55q80 0 142 -28t99 -76t56 -107t19 -124q0 -151 -81.5 -244.5t-224.5 -93.5q-93 0 -159 41.5t-94.5 103t-28.5 134.5t11 79zM509 255h-251q-75 0 -81 -2v-18
q0 -53 41 -98.5t121 -45.5q73 0 117 44.5t53 119.5z" />
    <glyph glyph-name="florin" unicode="&#x192;" horiz-adv-x="546" 
d="M119 314v66q0 7 7 7h91l10 69q5 40 17.5 76t35 70.5t60 55t85.5 20.5q50 0 76 -13q6 -2 6 -9v-79q0 -8 -8 -5q-22 11 -57 11q-78 0 -96 -126l-8 -70h106q6 0 6 -6v-67q0 -7 -5 -7h-117l-29 -224q-14 -103 -56.5 -156.5t-126.5 -53.5q-61 0 -92 19q-5 2 -5 13v78q0 8 8 6
q34 -19 72 -19q39 0 56 26.5t24 87.5l29 223h-82q-7 0 -7 7z" />
    <glyph glyph-name="uni019F" unicode="&#x19f;" horiz-adv-x="723" 
d="M365 663q137 0 221 -95t84 -237q1 -158 -84.5 -249.5t-221.5 -91.5q-144 0 -227.5 90.5t-84.5 246.5q0 151 87 243.5t226 92.5zM179 382h366q-7 79 -56 130.5t-129 51.5q-77 0 -126.5 -49t-54.5 -133zM546 284h-369q6 -84 55.5 -139.5t134.5 -55.5q80 0 127 53.5
t52 141.5z" />
    <glyph glyph-name="Ohorn" unicode="&#x1a0;" horiz-adv-x="723" 
d="M694 670q0 -51 -28 -80t-70 -37q74 -87 74 -222q0 -158 -84 -249.5t-222 -91.5q-144 0 -227.5 90t-84.5 247q0 150 87.5 243t224.5 93q90 0 165 -47q58 -2 58 54q0 18 -4 48q-1 6 5 6h92q6 0 9 -5q5 -22 5 -49zM177 327q0 -109 50 -176.5t140 -67.5q84 0 131.5 65
t47.5 179q0 111 -50.5 177t-136.5 66q-81 0 -131.5 -64t-50.5 -179z" />
    <glyph glyph-name="ohorn" unicode="&#x1a1;" horiz-adv-x="574" 
d="M291 496q75 0 133 -37q45 4 45 56q0 25 -5 44q-2 7 6 7h90q8 0 10 -7q6 -19 6 -47q0 -46 -24 -76t-65 -38q44 -59 44 -154q0 -114 -66 -184t-177 -70q-83 0 -140 38t-81 93t-24 120q0 112 67.5 183.5t180.5 71.5zM285 407q-54 0 -86.5 -43.5t-32.5 -117.5
q0 -77 31.5 -122t92.5 -45q51 0 84.5 40.5t33.5 122.5q0 74 -30 119.5t-93 45.5z" />
    <glyph glyph-name="Uhorn" unicode="&#x1af;" horiz-adv-x="678" 
d="M490 652h43q25 1 38 13t13 41q0 25 -4 45q-2 9 6 9h89q8 0 10 -8q6 -18 6 -47q0 -45 -23.5 -74.5t-65.5 -37.5v-350q0 -129 -74 -191t-189 -62q-121 0 -192 62.5t-71 185.5v406q0 8 8 8h105q8 0 8 -7v-412q0 -71 36.5 -110.5t107.5 -39.5q140 0 140 154v407q0 8 9 8z" />
    <glyph glyph-name="uhorn" unicode="&#x1b0;" horiz-adv-x="556" 
d="M465 593h89q9 0 10 -8q6 -19 6 -46q0 -88 -82 -112v-317q0 -58 6 -100q0 -9 -8 -10h-90q-12 0 -13 7q-4 14 -6 37q-60 -54 -146 -54q-30 0 -56.5 8.5t-52.5 27.5t-41.5 56.5t-15.5 90.5v304q0 9 11 9h102q8 0 8 -8v-288q0 -102 88 -102q51 0 93 39v351q0 8 8 8h33
q32 0 43 14t11 39t-3 47q0 7 6 7z" />
    <glyph glyph-name="uni01C4" unicode="&#x1c4;" horiz-adv-x="1234" 
d="M75 9v636q0 6 7 7q90 3 200 3q165 0 252.5 -86.5t87.5 -234.5q0 -82 -25 -144t-62 -97.5t-88 -58t-95 -29.5t-90 -7q-66 0 -180 2q-7 0 -7 9zM196 557v-463q18 -1 70 -1q109 0 170.5 59t61.5 179q0 112 -56 170t-160 58q-68 0 -86 -2zM1198 0h-495q-8 0 -8 8v55q0 6 3 12
l345 480h-334q-9 0 -8 8l15 82q1 7 9 7h464q6 0 6 -6v-60q0 -8 -5 -15l-336 -474h364q8 0 6 -9l-17 -80q-2 -8 -9 -8zM897 827l63 -65l62 65q6 6 11 6h90q3 0 3.5 -3.5t-1.5 -5.5l-112 -116q-6 -4 -10 -4h-90q-9 0 -12 5l-116 118q-6 6 3 6h97q6 0 12 -6z" />
    <glyph glyph-name="uni01C5" unicode="&#x1c5;" horiz-adv-x="1108" 
d="M75 9v636q0 6 7 7q90 3 200 3q165 0 252.5 -86.5t87.5 -234.5q0 -82 -25 -144t-62 -97.5t-88 -58t-95 -29.5t-90 -7q-66 0 -180 2q-7 0 -7 9zM196 557v-463q18 -1 70 -1q109 0 170.5 59t61.5 179q0 112 -56 170t-160 58q-68 0 -86 -2zM1076 0h-377q-6 0 -6 6v52q0 4 4 10
q37 50 132 178.5t107 144.5h-97h-139q-8 0 -7 9l14 78q2 8 9 8h355q6 0 7 -7v-52q0 -6 -5 -14q-116 -166 -232 -319h115h137q8 0 6 -8l-15 -79q-1 -7 -8 -7zM897 595q3 5 62 98q3 3 9 3h76q4 0 5 -3t-1 -5l-101 -147q-3 -5 -8 -5h-89q-6 0 -9 5l-104 148q-2 2 -0.5 4.5
t4.5 2.5h84q6 0 9 -4q8 -11 20.5 -30.5t25.5 -40t17 -26.5z" />
    <glyph glyph-name="uni01C6" unicode="&#x1c6;" horiz-adv-x="995" 
d="M295 -10q-115 0 -183.5 63.5t-68.5 184.5q0 111 76 184.5t201 73.5q33 0 57 -7v213q0 7 6 7h109q5 0 5 -6v-590q0 -16 3 -64q1 -6 -5 -10q-100 -49 -200 -49zM377 96v298q-23 9 -59 9q-69 0 -110 -42t-41 -117q0 -80 40 -119t102 -39q38 0 68 10zM963 0h-377q-6 0 -6 6
v52q0 4 4 10q37 50 132 178.5t107 144.5h-97h-139q-9 0 -7 9l14 78q2 8 9 8h355q6 0 7 -7v-52q0 -6 -5 -14q-116 -166 -232 -319h115h137q8 0 6 -8l-15 -79q-1 -7 -8 -7zM784 595q3 5 62 98q3 3 9 3h76q4 0 5 -3t-1 -5l-101 -147q-2 -5 -8 -5h-89q-7 0 -9 5l-104 148
q-2 2 -0.5 4.5t4.5 2.5h83q7 0 10 -4q8 -11 20.5 -30.5t25.5 -40t17 -26.5z" />
    <glyph glyph-name="uni01C7" unicode="&#x1c7;" horiz-adv-x="909" 
d="M471 0h-385q-10 0 -10 10v634q0 8 8 8h106q7 0 7 -7v-548h293q8 0 6 -8l-15 -82q-2 -7 -10 -7zM711 162v483q0 7 8 7h107q6 0 6 -6v-486q0 -220 -200 -220q-70 0 -108 20q-6 4 -6 12v88q0 9 8 6q47 -22 94 -22q48 0 69.5 26t21.5 92z" />
    <glyph glyph-name="uni01C8" unicode="&#x1c8;" horiz-adv-x="771" 
d="M471 0h-385q-10 0 -10 10v634q0 8 8 8h106q7 0 7 -7v-548h293q8 0 6 -8l-15 -82q-2 -7 -10 -7zM585 -25v503q0 8 8 8h105q8 0 8 -8v-431q0 -100 -10.5 -148t-35.5 -79q-41 -49 -120 -49q-31 0 -41 3q-8 2 -8 10v76q0 8 7 8q51 -2 69 20.5t18 86.5zM646 552
q-30 0 -48.5 17t-18.5 45t19 45t49 17t48 -17t18 -45t-18.5 -45t-48.5 -17z" />
    <glyph glyph-name="uni01C9" unicode="&#x1c9;" horiz-adv-x="522" 
d="M66 113v588q0 8 8 8h104q8 0 8 -8v-582q0 -38 31 -38q7 0 23 2q2 1 3.5 -0.5t1.5 -4.5v-67q0 -9 -7 -11q-22 -10 -63 -10q-53 0 -81 27.5t-28 95.5zM335 -25v503q0 8 9 8h104q8 0 8 -8v-431q0 -100 -10.5 -148t-35.5 -79q-40 -49 -120 -49q-31 0 -41 3q-8 3 -8 10v76
q0 8 8 8q50 -2 68 20.5t18 86.5zM396 552q-30 0 -48 17t-18 45t19 45t49 17t47.5 -17t17.5 -45t-18 -45t-49 -17z" />
    <glyph glyph-name="uni01CA" unicode="&#x1ca;" horiz-adv-x="958" 
d="M769 652h107q6 0 6 -6v-618q0 -100 -47.5 -150.5t-131.5 -50.5q-46 0 -68 11q-7 2 -7 11v87q0 11 8 6q23 -10 55 -10q70 0 70 97v616q0 7 8 7zM76 646q0 6 7 6h135q8 0 12 -6q246 -449 265 -494h2q-3 81 -3 168v325q0 7 8 7h97q8 0 8 -8v-635q0 -9 -9 -9h-131q-7 0 -13 7
q-27 59 -137.5 265.5t-130.5 253.5h-1q4 -51 4 -197v-321q0 -8 -7 -8h-97q-9 0 -9 9v637z" />
    <glyph glyph-name="uni01CB" unicode="&#x1cb;" horiz-adv-x="936" 
d="M76 646q0 6 7 6h135q8 0 12 -6q246 -449 265 -494h2q-3 81 -3 168v325q0 7 8 7h97q8 0 8 -8v-635q0 -9 -9 -9h-131q-7 0 -13 7q-27 59 -137.5 265.5t-130.5 253.5h-1q4 -51 4 -197v-321q0 -8 -7 -8h-97q-9 0 -9 9v637zM750 -25v503q0 8 8 8h105q7 0 7 -8v-431
q0 -100 -10.5 -148t-34.5 -79q-41 -49 -120 -49q-31 0 -42 3q-7 2 -7 10v76q0 8 7 8q50 -2 68.5 20.5t18.5 86.5zM811 552q-30 0 -48.5 17t-18.5 45t19 45t49 17t48 -17t18 -45t-18.5 -45t-48.5 -17z" />
    <glyph glyph-name="uni01CC" unicode="&#x1cc;" horiz-adv-x="811" 
d="M66 9v362q0 57 -5 107q0 8 7 8h91q9 0 12 -7q5 -15 7 -40q66 57 151 57q31 0 58.5 -9.5t52 -31t39 -63t14.5 -99.5v-285q0 -8 -8 -8h-104q-9 0 -9 9v285q0 103 -86 103q-52 0 -100 -43v-346q0 -8 -8 -8h-105q-7 0 -7 9zM625 -25v503q0 8 8 8h105q8 0 8 -8v-431
q0 -100 -10.5 -148t-35.5 -79q-41 -49 -120 -49q-31 0 -41 3q-8 3 -8 10v76q0 8 7 8q51 -2 69 20.5t18 86.5zM686 552q-30 0 -48.5 17t-18.5 45q0 27 19 44.5t49 17.5t48 -17t18 -45t-18.5 -45t-48.5 -17z" />
    <glyph glyph-name="uni01CD" unicode="&#x1cd;" horiz-adv-x="658" 
d="M438 182h-229l-61 -174q-1 -8 -10 -8h-102q-10 0 -7 10q123 349 209 581q6 20 8 55q0 6 6 6h138q6 0 8 -5q190 -525 231 -638q3 -9 -6 -9h-112q-6 0 -9 6zM235 280h176q-9 30 -43.5 132.5t-45.5 139.5h-1q-7 -30 -20.5 -73t-35 -108t-30.5 -91zM265 819l63 -65l62 64
q6 6 11 6h89q3 0 4 -3t-1 -5l-113 -116q-4 -4 -10 -4h-90q-8 0 -11 5l-117 117q-4 6 4 6h96q8 0 13 -5z" />
    <glyph glyph-name="uni01CE" unicode="&#x1ce;" horiz-adv-x="507" 
d="M324 90v139q-95 4 -135 -15.5t-40 -61.5q0 -31 25.5 -51.5t76.5 -20.5q46 0 73 10zM441 303v-198q0 -31 3 -62q0 -4 -3 -5q-102 -48 -209 -48q-89 0 -145 40t-56 120q0 171 293 159v16q0 10 -3.5 20.5t-13.5 23.5t-31.5 21t-51.5 8q-71 0 -137 -33q-8 -2 -8 6v78
q0 8 6 10q74 37 162 37q96 0 145 -53t49 -140zM258 595q23 41 62 98q3 3 9 3h76q9 0 4 -8l-101 -147q-2 -5 -8 -5h-89q-6 0 -10 5l-103 148q-2 2 -0.5 4.5t4.5 2.5h83q6 0 10 -4q8 -11 20.5 -30.5t25.5 -40t17 -26.5z" />
    <glyph glyph-name="uni01CF" unicode="&#x1cf;" horiz-adv-x="273" 
d="M197 645v-636q0 -9 -9 -9h-104q-8 0 -8 9v636q0 7 8 7h105q8 0 8 -7zM78 819l63 -65l63 64q4 6 10 6h90q3 0 4 -3t-1 -5l-113 -116q-4 -4 -10 -4h-90q-8 0 -12 5l-116 117q-6 6 4 6h96q7 0 12 -5z" />
    <glyph glyph-name="uni01D0" unicode="&#x1d0;" horiz-adv-x="253" 
d="M66 9v469q0 8 7 8h106q8 0 8 -8v-470q0 -8 -8 -8h-104q-9 0 -9 9zM132 595q23 41 62 98q3 3 9 3h76q9 0 4 -8l-101 -147q-2 -5 -8 -5h-89q-6 0 -10 5l-103 148q-2 2 -0.5 4.5t4.5 2.5h83q6 0 10 -4q8 -11 20.5 -30.5t25.5 -40t17 -26.5z" />
    <glyph glyph-name="uni01D1" unicode="&#x1d1;" horiz-adv-x="724" 
d="M363 663q139 0 223 -95t85 -238q0 -158 -85.5 -249t-223.5 -91q-143 0 -226.5 91.5t-83.5 246.5q0 150 86.5 242.5t224.5 92.5zM177 327q0 -106 50.5 -171t138.5 -65q85 0 133 63t48 173q0 106 -50.5 171t-135.5 65q-82 0 -133 -62.5t-51 -173.5zM296 819l64 -65l62 64
q6 6 11 6h89q3 0 4 -3t-1 -5l-113 -116q-4 -4 -10 -4h-90q-8 0 -12 5l-116 117q-6 6 4 6h96q9 0 12 -5z" />
    <glyph glyph-name="uni01D2" unicode="&#x1d2;" horiz-adv-x="574" 
d="M290 496q113 0 177 -71t64 -180q0 -117 -67.5 -186t-176.5 -69q-121 0 -182.5 74t-61.5 179q0 111 68 182t179 71zM284 407q-53 0 -85.5 -43.5t-32.5 -118.5q0 -76 32.5 -121t91.5 -45q51 0 84.5 40t33.5 122q0 75 -31 120.5t-93 45.5zM289 595q23 41 62 98q3 3 9 3h76
q9 0 4 -8l-101 -147q-3 -5 -8 -5h-89q-6 0 -10 5l-103 148q-2 2 -0.5 4.5t4.5 2.5h83q6 0 10 -4q8 -11 20.5 -30.5t25.5 -40t17 -26.5z" />
    <glyph glyph-name="uni01D3" unicode="&#x1d3;" horiz-adv-x="678" 
d="M197 645v-405q0 -71 36.5 -110.5t107.5 -39.5q140 0 140 154v400q0 8 8 8h104q9 0 9 -8v-401q0 -130 -72.5 -191.5t-190.5 -61.5q-121 0 -192 62.5t-71 185.5v406q0 8 8 8h105q8 0 8 -7zM280 819l63 -65l62 64q6 6 11 6h89q4 0 4.5 -3t-1.5 -5l-112 -116q-4 -4 -10 -4
h-90q-10 0 -12 5l-116 117q-6 6 3 6h97q7 0 12 -5z" />
    <glyph glyph-name="uni01D4" unicode="&#x1d4;" horiz-adv-x="553" 
d="M487 479v-369q0 -50 5 -103q1 -7 -7 -7h-93q-8 0 -10 6q-2 7 -5 36q-63 -52 -146 -52q-72 0 -118.5 42.5t-46.5 141.5v304q0 8 8 8h105q7 0 7 -7v-287q0 -104 84 -104q56 0 96 40v350q0 8 8 8h105q8 0 8 -7zM281 595q23 41 62 98q3 3 9 3h76q9 0 4 -8l-101 -147
q-3 -5 -8 -5h-89q-6 0 -10 5l-103 148q-2 2 -0.5 4.5t4.5 2.5h83q6 0 10 -4q8 -11 20.5 -30.5t25.5 -40t17 -26.5z" />
    <glyph glyph-name="uni01D5" unicode="&#x1d5;" horiz-adv-x="678" 
d="M197 645v-405q0 -71 36.5 -110.5t107.5 -39.5q140 0 140 154v400q0 8 8 8h104q9 0 9 -8v-401q0 -130 -72.5 -191.5t-190.5 -61.5q-121 0 -192 62.5t-71 185.5v406q0 8 8 8h105q8 0 8 -7zM200 886h278q6 0 6 -7v-61q0 -7 -7 -7h-278q-6 0 -6 7v61q0 7 7 7zM236 687
q-23 0 -37 11.5t-14 30.5q0 20 15 32t37 12t35.5 -12t13.5 -32q0 -19 -14 -30.5t-36 -11.5zM441 687q-22 0 -35.5 11.5t-13.5 30.5q0 20 14.5 32t36.5 12t35.5 -12t13.5 -32q0 -19 -14 -30.5t-37 -11.5z" />
    <glyph glyph-name="uni01D6" unicode="&#x1d6;" horiz-adv-x="553" 
d="M487 479v-369q0 -50 5 -103q1 -7 -7 -7h-93q-8 0 -10 6q-2 7 -5 36q-63 -52 -146 -52q-72 0 -118.5 42.5t-46.5 141.5v304q0 8 8 8h105q7 0 7 -7v-287q0 -104 84 -104q56 0 96 40v350q0 8 8 8h105q8 0 8 -7zM186 537q-22 0 -36 12t-14 33t14.5 34t36.5 13t36 -13t14 -34
t-14.5 -33t-36.5 -12zM365 537q-22 0 -36 12t-14 33t14.5 34t36.5 13t36 -13.5t14 -33.5t-14 -32.5t-37 -12.5zM139 752h278q6 0 6 -7v-65q0 -7 -7 -7h-278q-7 0 -7 7v65q0 7 8 7z" />
    <glyph glyph-name="uni01D7" unicode="&#x1d7;" horiz-adv-x="678" 
d="M197 645v-405q0 -71 36.5 -110.5t107.5 -39.5q140 0 140 154v400q0 8 8 8h104q9 0 9 -8v-401q0 -130 -72.5 -191.5t-190.5 -61.5q-121 0 -192 62.5t-71 185.5v406q0 8 8 8h105q8 0 8 -7zM285 799l69 84q3 6 9 6h102q7 0 3 -7l-80 -85q-3 -5 -9 -5h-90q-7 0 -4 7zM236 687
q-23 0 -37 12t-14 31t15 31t37 12t35.5 -12t13.5 -31t-14.5 -31t-35.5 -12zM441 687q-22 0 -35.5 12t-13.5 31t14.5 31t35.5 12q22 0 36 -12t14 -31t-14 -31t-37 -12z" />
    <glyph glyph-name="uni01D8" unicode="&#x1d8;" horiz-adv-x="553" 
d="M487 479v-369q0 -50 5 -103q1 -7 -7 -7h-93q-8 0 -10 6q-2 7 -5 36q-63 -52 -146 -52q-72 0 -118.5 42.5t-46.5 141.5v304q0 8 8 8h105q7 0 7 -7v-287q0 -104 84 -104q56 0 96 40v350q0 8 8 8h105q8 0 8 -7zM218 655l71 91q3 6 9 6h102q6 0 3 -7l-81 -92q-4 -4 -10 -4
h-90q-7 0 -4 6zM187 530q-23 0 -37 12.5t-14 32.5q0 21 14.5 34t37.5 13q22 0 35.5 -13t13.5 -34t-14 -33t-36 -12zM365 530q-22 0 -35.5 12t-13.5 33t14.5 34t35.5 13q22 0 36 -13t14 -34q0 -20 -14 -32.5t-37 -12.5z" />
    <glyph glyph-name="uni01D9" unicode="&#x1d9;" horiz-adv-x="678" 
d="M197 645v-405q0 -71 36.5 -110.5t107.5 -39.5q140 0 140 154v400q0 8 8 8h104q9 0 9 -8v-401q0 -130 -72.5 -191.5t-190.5 -61.5q-121 0 -192 62.5t-71 185.5v406q0 8 8 8h105q8 0 8 -7zM340 836q5 4 25 21.5t27 23.5q3 3 10 3h84q9 0 3 -8l-89 -74q-4 -5 -11 -5h-103
q-7 0 -11 5l-93 75q-5 7 3 7h92q6 0 11 -4q3 -3 23.5 -20t28.5 -24zM236 688q-23 0 -37 12t-14 31t14.5 31t37.5 12q22 0 35.5 -12t13.5 -32q0 -18 -14.5 -30t-35.5 -12zM442 688q-22 0 -36 12t-14 31t14.5 31t36.5 12t35.5 -12t13.5 -32q0 -19 -14 -30.5t-36 -11.5z" />
    <glyph glyph-name="uni01DA" unicode="&#x1da;" horiz-adv-x="553" 
d="M487 479v-369q0 -50 5 -103q1 -7 -7 -7h-93q-8 0 -10 6q-2 7 -5 36q-63 -52 -146 -52q-72 0 -118.5 42.5t-46.5 141.5v304q0 8 8 8h105q7 0 7 -7v-287q0 -104 84 -104q56 0 96 40v350q0 8 8 8h105q8 0 8 -7zM187 530q-23 0 -37 12.5t-14 32.5q0 21 14.5 34t37.5 13
q22 0 35.5 -13t13.5 -34t-14 -33t-36 -12zM365 530q-22 0 -35.5 12t-13.5 33t14.5 34t35.5 13q22 0 36 -13t14 -34q0 -20 -14 -32.5t-37 -12.5zM275 695q24 24 52 50q3 3 10 3h83q9 0 3 -8l-91 -86q-4 -5 -11 -5h-98q-7 0 -11 4l-94 88q-2 2 -0.5 4.5t4.5 2.5h91q7 0 11 -4
q41 -38 51 -49z" />
    <glyph glyph-name="uni01DB" unicode="&#x1db;" horiz-adv-x="678" 
d="M197 645v-405q0 -71 36.5 -110.5t107.5 -39.5q140 0 140 154v400q0 8 8 8h104q9 0 9 -8v-401q0 -130 -72.5 -191.5t-190.5 -61.5q-121 0 -192 62.5t-71 185.5v406q0 8 8 8h105q8 0 8 -7zM332 883l69 -84q3 -7 -4 -7h-90q-7 0 -10 5l-79 85q-4 7 3 7h102q5 0 9 -6z
M236 687q-23 0 -37 12t-14 31t15 31t37 12t35.5 -12t13.5 -31t-14.5 -31t-35.5 -12zM441 687q-22 0 -35.5 12t-13.5 31t14.5 31t35.5 12q22 0 36 -12t14 -31t-14 -31t-37 -12z" />
    <glyph glyph-name="uni01DC" unicode="&#x1dc;" horiz-adv-x="553" 
d="M487 479v-369q0 -50 5 -103q1 -7 -7 -7h-93q-8 0 -10 6q-2 7 -5 36q-63 -52 -146 -52q-72 0 -118.5 42.5t-46.5 141.5v304q0 8 8 8h105q7 0 7 -7v-287q0 -104 84 -104q56 0 96 40v350q0 8 8 8h105q8 0 8 -7zM265 746l71 -91q3 -6 -4 -6h-90q-6 0 -10 4l-81 92q-3 7 3 7
h102q6 0 9 -6zM187 530q-23 0 -37 12.5t-14 32.5q0 21 14.5 34t37.5 13q22 0 35.5 -13t13.5 -34t-14 -33t-36 -12zM365 530q-22 0 -35.5 12t-13.5 33t14.5 34t35.5 13q22 0 36 -13t14 -34q0 -20 -14 -32.5t-37 -12.5z" />
    <glyph glyph-name="Gcaron" unicode="&#x1e6;" horiz-adv-x="679" 
d="M495 252l-111 3q-8 1 -8 9v79q0 6 7 6h225q8 0 8 -8v-296q0 -7 -7 -11q-99 -44 -215 -44q-168 0 -254.5 94t-86.5 237q0 156 98.5 249t256.5 93q117 0 180 -36q6 -2 6 -12v-91q0 -10 -8 -6q-77 41 -175 41q-111 0 -172.5 -61.5t-61.5 -173.5q0 -99 60 -166t171 -67
q51 0 87 16v145zM312 819l64 -65l62 64q6 6 11 6h89q3 0 4 -3t-1 -5l-113 -116q-4 -4 -10 -4h-90q-8 0 -12 5l-116 117q-6 6 4 6h96q9 0 12 -5z" />
    <glyph glyph-name="gcaron" unicode="&#x1e7;" horiz-adv-x="523" 
d="M328 329q0 42 -21 65t-62 23q-38 0 -62 -23.5t-24 -63.5t23 -64t63 -24q38 0 60.5 23.5t22.5 63.5zM396 -70q0 39 -37 54.5t-107 15.5q-42 0 -66 -4q-17 -9 -33 -27.5t-16 -38.5q0 -33 33.5 -56t95.5 -23q66 0 98 23.5t32 55.5zM247 495q47 0 82 -6q12 -3 28 -3h138
q6 0 6 -7v-74q0 -6 -7 -6l-77 3q23 -26 23 -77q0 -77 -53 -119t-138 -42q-23 0 -39 4q-9 -14 -9 -37q0 -24 16 -40q18 2 51 2q117 0 180.5 -33.5t63.5 -114.5q0 -77 -68 -128.5t-183 -51.5q-107 0 -170 45t-63 117q0 55 91 125q-23 34 -23 73q0 36 19 66q-69 43 -69 137
q0 73 54.5 120t146.5 47zM255 595q23 41 62 98q3 3 9 3h76q9 0 4 -8l-101 -147q-3 -5 -8 -5h-89q-6 0 -10 5l-103 148q-2 2 -0.5 4.5t4.5 2.5h83q6 0 10 -4q8 -11 20.5 -30.5t25.5 -40t17 -26.5z" />
    <glyph glyph-name="uni01F1" unicode="&#x1f1;" horiz-adv-x="1234" 
d="M75 9v636q0 6 7 7q90 3 200 3q165 0 252.5 -86.5t87.5 -234.5q0 -82 -25 -144t-62 -97.5t-88 -58t-95 -29.5t-90 -7q-66 0 -180 2q-7 0 -7 9zM196 557v-463q18 -1 70 -1q109 0 170.5 59t61.5 179q0 112 -56 170t-160 58q-68 0 -86 -2zM1198 0h-495q-8 0 -8 8v55q0 6 3 12
l345 480h-334q-9 0 -8 8l15 82q1 7 9 7h464q6 0 6 -6v-60q0 -8 -5 -15l-336 -474h364q8 0 6 -9l-17 -80q-2 -8 -9 -8z" />
    <glyph glyph-name="uni01F2" unicode="&#x1f2;" horiz-adv-x="1108" 
d="M75 9v636q0 6 7 7q90 3 200 3q165 0 252.5 -86.5t87.5 -234.5q0 -82 -25 -144t-62 -97.5t-88 -58t-95 -29.5t-90 -7q-66 0 -180 2q-7 0 -7 9zM196 557v-463q18 -1 70 -1q109 0 170.5 59t61.5 179q0 112 -56 170t-160 58q-68 0 -86 -2zM1076 0h-377q-6 0 -6 6v52q0 4 4 10
q37 50 132 178.5t107 144.5h-97h-139q-8 0 -7 9l14 78q2 8 9 8h355q6 0 7 -7v-52q0 -6 -5 -14q-116 -166 -232 -319h115h137q8 0 6 -8l-15 -79q-1 -7 -8 -7z" />
    <glyph glyph-name="uni01F3" unicode="&#x1f3;" horiz-adv-x="995" 
d="M295 -10q-115 0 -183.5 63.5t-68.5 184.5q0 111 76 184.5t201 73.5q33 0 57 -7v213q0 7 6 7h109q5 0 5 -6v-590q0 -16 3 -64q1 -6 -5 -10q-100 -49 -200 -49zM377 96v298q-23 9 -59 9q-69 0 -110 -42t-41 -117q0 -80 40 -119t102 -39q38 0 68 10zM963 0h-377q-6 0 -6 6
v52q0 4 4 10q37 50 132 178.5t107 144.5h-97h-139q-9 0 -7 9l14 78q2 8 9 8h355q6 0 7 -7v-52q0 -6 -5 -14q-116 -166 -232 -319h115h137q8 0 6 -8l-15 -79q-1 -7 -8 -7z" />
    <glyph glyph-name="Aringacute" unicode="&#x1fa;" horiz-adv-x="658" 
d="M213 732q0 29 28 48.5t80 19.5q56 0 82.5 -18.5t26.5 -49.5t-29.5 -51t-79.5 -20q-108 0 -108 71zM281 732q0 -27 40 -27q42 0 42 27q0 12 -12 19t-30 7q-40 0 -40 -26zM260 822l89 58q8 5 16 5h110q13 0 4 -11l-101 -58q-6 -4 -20 -4h-93q-15 0 -5 10zM438 182h-229
l-61 -174q-1 -8 -10 -8h-102q-10 0 -7 10q123 349 209 581q6 20 8 55q0 6 6 6h138q6 0 8 -5q190 -525 231 -638q3 -9 -6 -9h-112q-6 0 -9 6zM235 280h176q-9 30 -43.5 132.5t-45.5 139.5h-1q-7 -30 -20.5 -73t-35 -108t-30.5 -91z" />
    <glyph glyph-name="aringacute" unicode="&#x1fb;" horiz-adv-x="507" 
d="M141 584q0 30 28 50.5t78 20.5q51 0 78.5 -20.5t27.5 -50.5q0 -32 -28 -53t-78 -21t-78 21t-28 53zM209 584q0 -14 10 -22.5t28 -8.5t28.5 8.5t10.5 22.5q0 13 -10.5 21.5t-28.5 8.5t-28 -8.5t-10 -21.5zM195 680l59 90q3 6 12 6h102q4 0 5 -3t-2 -7l-76 -89
q-5 -6 -14 -6h-82q-4 0 -5 3t1 6zM324 90v139q-95 4 -135 -15.5t-40 -61.5q0 -31 25.5 -51.5t76.5 -20.5q46 0 73 10zM441 303v-198q0 -31 3 -62q0 -4 -3 -5q-102 -48 -209 -48q-89 0 -145 40t-56 120q0 171 293 159v16q0 10 -3.5 20.5t-13.5 23.5t-31.5 21t-51.5 8
q-71 0 -137 -33q-8 -2 -8 6v78q0 8 6 10q74 37 162 37q96 0 145 -53t49 -140z" />
    <glyph glyph-name="AEacute" unicode="&#x1fc;" horiz-adv-x="868" 
d="M147 0h-112q-9 0 -6 9l261 586q9 26 15 52q1 5 7 5h453q7 0 8 -6l11 -85q0 -6 -7 -6h-269l22 -183h241q6 0 6 -6v-85q0 -6 -6 -6h-226l21 -178h265q6 0 6 -7l-15 -84q-1 -6 -8 -6h-350q-5 0 -5 4l-25 197h-194l-84 -195q-3 -6 -9 -6zM277 298h145l-21 163q-1 14 -5.5 52
t-6.5 56h-2q-21 -56 -39 -103zM355 706l108 116q4 5 11 5h120q8 0 3 -9l-124 -113q-6 -6 -14 -6h-100q-3 0 -4.5 2.5t0.5 4.5z" />
    <glyph glyph-name="aeacute" unicode="&#x1fd;" horiz-adv-x="800" 
d="M148 149q0 -32 24 -50t67 -18q60 0 108 37q-22 43 -23 102h-62q-52 0 -83 -18t-31 -53zM29 148q0 75 64.5 111t168.5 36h63v24q0 81 -107 81q-66 0 -133 -30q-8 -3 -8 6v76q0 6 5 8q77 36 158 36q116 0 152 -73q59 73 163 73q55 0 96.5 -19.5t64.5 -51t34.5 -66
t11.5 -70.5q0 -64 -10 -67q-26 -7 -106 -7h-210q2 -56 41.5 -91t116.5 -35q64 0 126 25q7 4 7 -4v-79q0 -7 -6 -11q-57 -30 -157 -30q-108 0 -166 60q-80 -60 -182 -60q-34 0 -65.5 8.5t-59.5 26t-45 49.5t-17 74zM549 410q-46 0 -77 -32t-35 -85h176q31 0 33 6q2 5 2 19
q0 31 -24 61.5t-75 30.5zM347 546l77 145q4 8 12 8h114q10 0 5 -9l-99 -146q-5 -5 -14 -5h-91q-7 0 -4 7z" />
    <glyph glyph-name="Oslashacute" unicode="&#x1fe;" horiz-adv-x="724" 
d="M198 34l-22 -30q-1 -4 -8 -4h-71q-9 0 -4 7l49 69q-89 94 -89 251q-1 150 86 243t225 93q88 0 152 -40l18 25q3 4 8 4h71q8 0 5 -6l-44 -66q45 -42 71 -107t26 -143q1 -155 -83.5 -247.5t-221.5 -92.5q-98 0 -168 44zM216 177l241 356q-39 31 -98 31q-79 0 -131 -61
t-52 -175q0 -92 40 -151zM504 480l-239 -359q43 -33 103 -33q86 1 133.5 65t47.5 175q0 100 -45 152zM282 704l107 117q4 4 12 4h119q4 0 4.5 -3t-1.5 -5l-124 -114q-7 -6 -14 -6h-99q-4 0 -5 2.5t1 4.5z" />
    <glyph glyph-name="oslashacute" unicode="&#x1ff;" horiz-adv-x="579" 
d="M185 154l177 233q-30 24 -74 24q-56 0 -91 -43.5t-35 -122.5q0 -57 23 -91zM160 24l-20 -26q-3 -4 -12 -4h-60q-9 0 -3 8l45 57q-67 73 -67 182q0 112 68 183.5t179 71.5q76 0 130 -34l16 20q3 4 8 4h62q10 0 3 -7l-42 -54q68 -65 68 -182q0 -116 -67.5 -184.5
t-176.5 -68.5q-78 0 -131 34zM395 332l-175 -232q31 -24 73 -24q52 0 88.5 40t36.5 123q0 59 -23 93zM222 546l77 145q4 8 12 8h114q9 0 5 -9l-99 -146q-5 -5 -14 -5h-91q-8 0 -4 7z" />
    <glyph glyph-name="uni0218" unicode="&#x218;" horiz-adv-x="510" 
d="M237 -10q-123 0 -197 51q-7 5 -7 15v95q0 4 2.5 5.5t5.5 -0.5q92 -65 201 -65q55 0 81 21t26 53q0 33 -24.5 54.5t-103.5 55.5q-103 44 -143 88.5t-40 115.5q0 77 61 130t169 53q101 0 164 -36q6 -5 6 -12v-91q0 -9 -9 -4q-76 46 -163 46q-60 0 -84 -23.5t-24 -51.5
q0 -29 24 -52t95 -53q114 -47 154.5 -93.5t40.5 -114.5q0 -86 -63 -136.5t-172 -50.5zM262 -234h-92q-6 0 -4 7q37 56 37 111q0 24 -15 62q-2 7 4 7h100q5 0 9 -6q16 -26 16 -57q0 -67 -45 -121q-6 -3 -10 -3z" />
    <glyph glyph-name="uni0219" unicode="&#x219;" horiz-adv-x="406" 
d="M345 366q-68 38 -139 38q-62 0 -62 -42q0 -19 16.5 -32t71.5 -35q80 -33 113.5 -66t33.5 -85q0 -73 -51 -113.5t-136 -40.5q-92 0 -155 39q-6 3 -6 10v92q0 4 2.5 5.5t4.5 -0.5q85 -54 162 -54q32 0 47 13t15 32q0 20 -18.5 34t-71.5 36q-78 32 -108.5 65.5t-30.5 88.5
q0 63 48.5 104t134.5 41q81 0 132 -29q6 -5 6 -13v-82q0 -11 -9 -6zM207 -227h-92q-8 0 -3 7q36 57 36 111q0 24 -15 62q-2 7 4 7h100q4 0 10 -6q15 -24 15 -57q0 -67 -45 -121q-6 -3 -10 -3z" />
    <glyph glyph-name="uni021A" unicode="&#x21a;" horiz-adv-x="557" 
d="M213 9v546h-201q-8 0 -6 9l13 81q1 7 9 7h504q8 0 9 -8l9 -79q1 -10 -7 -10h-209v-546q0 -9 -8 -9h-103q-10 -1 -10 9zM288 -226h-92q-9 0 -4 7q37 55 37 110q0 25 -15 63q-3 6 4 6h100q6 0 9 -6q16 -24 16 -57q0 -66 -45 -120q-3 -3 -10 -3z" />
    <glyph glyph-name="uni021B" unicode="&#x21b;" horiz-adv-x="325" 
d="M302 84v-66q0 -9 -6 -11q-35 -17 -90 -17q-130 0 -130 139v266l-62 2q-7 1 -7 9v72q0 8 8 8h61q2 78 11 125q2 7 8 8l100 19q8 2 8 -5q-4 -43 -6 -147h101q7 0 7 -7v-74q0 -7 -6 -8l-103 -2v-245q0 -35 13 -51t44 -16q18 0 43 7q3 1 4.5 -0.5t1.5 -5.5zM194 -225h-92
q-9 0 -4 7q37 55 37 110q0 23 -15 63q-4 6 4 6h100q5 0 9 -6q16 -26 16 -57q0 -66 -45 -120q-3 -3 -10 -3z" />
    <glyph glyph-name="uni021C" unicode="&#x21c;" horiz-adv-x="538" 
d="M455 569q-29 -31 -100.5 -103.5t-95.5 -97.5q102 -2 169.5 -51.5t67.5 -142.5q0 -113 -84 -172t-200 -59q-112 0 -171 37q-6 4 -6 11v90q0 4 2.5 5.5t4.5 -0.5q75 -41 171 -41q80 0 120.5 33t40.5 88q0 56 -46.5 84t-120.5 28q-55 0 -92 -10q-6 -2 -6 4v62q0 6 3 9
l212 214q-40 -2 -110 -2h-175q-6 0 -6 8l19 84q2 5 9 5h393q5 0 5 -5v-69q0 -5 -4 -9z" />
    <glyph glyph-name="uni021D" unicode="&#x21d;" horiz-adv-x="443" 
d="M392 403q-30 -36 -92.5 -107.5t-77.5 -90.5q85 -3 147 -52.5t62 -144.5q0 -116 -76.5 -175t-186.5 -59q-100 0 -155 35q-6 4 -6 13v85q0 9 7 5q64 -41 154 -41q69 0 105 33.5t36 88.5q0 122 -154 122q-30 0 -62 -4q-9 -1 -9 5v60q0 7 4 11l180 205q-40 -2 -99 -2h-155
q-9 0 -7 10l13 79q1 7 9 7h361q6 0 6 -8v-64q0 -4 -3 -8q0 -1 -0.5 -1.5t-0.5 -1.5z" />
    <glyph glyph-name="uni0232" unicode="&#x232;" horiz-adv-x="597" 
d="M230 262l-215 381q-5 9 6 9h121q6 0 9 -5q125 -243 154 -308q33 72 149 308q1 5 8 5h116q8 0 4 -7l-216 -386q-8 -13 -8 -31v-219q0 -9 -9 -9h-103q-9 0 -9 9v224q0 16 -7 29zM162 800h276q6 0 6 -7v-75q0 -8 -7 -8h-273q-9 0 -9 7v76q0 7 7 7z" />
    <glyph glyph-name="uni0233" unicode="&#x233;" horiz-adv-x="487" 
d="M11 486h117q6 0 9 -7q101 -276 120 -339h1q51 134 107 339q3 7 10 7h99q9 0 7 -9q-48 -202 -164 -447q-85 -174 -145 -246q-6 -7 -16 -7h-114q-5 0 -6.5 3t2.5 7q35 42 83 114.5t68 114.5q5 11 3 17q-19 39 -90 208.5t-97 236.5q-2 8 6 8zM108 661h282q6 0 6 -7v-71
q0 -7 -7 -7h-282q-7 0 -7 7v71q0 7 8 7z" />
    <glyph glyph-name="uni0237" unicode="&#x237;" horiz-adv-x="252" 
d="M66 -25v503q0 8 8 8h105q8 0 8 -8v-431q0 -100 -10.5 -148t-35.5 -79q-41 -49 -120 -49q-31 0 -41 3q-8 3 -8 10v76q0 8 7 8q51 -2 69 20.5t18 86.5z" />
    <glyph glyph-name="uni0251" unicode="&#x251;" horiz-adv-x="563" 
d="M497 465v-352q0 -16 3 -64q1 -6 -5 -10q-100 -49 -200 -49q-115 0 -183.5 63.5t-68.5 184.5q0 111 76 184.5t201 73.5q92 0 171 -23q6 -1 6 -8zM377 101v287q-23 9 -59 9q-69 0 -110 -40.5t-41 -112.5q0 -77 40 -114.5t102 -37.5q36 0 68 9z" />
    <glyph glyph-name="uni0259" unicode="&#x259;" horiz-adv-x="525" 
d="M52 264q9 6 103 6h209v4q-1 54 -36.5 89.5t-107.5 35.5q-73 0 -140 -29q-8 -3 -8 5v66q0 8 6 13q69 38 165 38q64 0 112 -20.5t75.5 -56.5t40.5 -79.5t13 -92.5q0 -110 -64.5 -181.5t-171.5 -71.5q-101 0 -154 63.5t-53 146.5q0 55 11 64zM363 196h-164q-38 0 -40 -7
q-2 -4 -2 -21q0 -36 24.5 -67.5t73.5 -31.5q48 0 76.5 35t31.5 92z" />
    <glyph glyph-name="uni0261" unicode="&#x261;" horiz-adv-x="563" 
d="M377 109v286q-24 8 -55 8q-68 0 -108 -41t-40 -117q0 -78 39.5 -113.5t96.5 -35.5q38 0 67 13zM497 396v-352q0 -81 -20.5 -136.5t-57.5 -83.5t-77.5 -39t-91.5 -11q-91 0 -152 29q-8 3 -6 9v97q0 7 6 4q73 -33 142 -33q73 0 102.5 33t33.5 102q-41 -15 -90 -15
q-106 0 -171 62t-65 176t76.5 186t208.5 72q88 0 163 -29q4 -3 3 -7q-4 -34 -4 -64z" />
    <glyph glyph-name="uni0275" unicode="&#x275;" horiz-adv-x="575" 
d="M290 496q112 0 176.5 -71t64.5 -179q0 -118 -65 -187t-175 -69q-85 0 -142.5 37.5t-81 92t-23.5 121.5q0 111 67.5 183t178.5 72zM165 291h245q-3 50 -34 83.5t-88 33.5q-53 0 -85.5 -32t-37.5 -85zM412 200h-247q5 -52 38 -86.5t88 -34.5q49 0 82.5 29.5t38.5 91.5z" />
    <glyph glyph-name="uni02BB" unicode="&#x2bb;" horiz-adv-x="185" 
d="M86 716h83q6 0 4 -7q-38 -107 -38 -182q0 -35 6 -67q0 -7 -5 -7h-88q-7 0 -10 8q-7 30 -7 68q0 93 46 182q3 5 9 5z" />
    <glyph glyph-name="uni02BC" unicode="&#x2bc;" horiz-adv-x="187" 
d="M99 453h-82q-7 0 -5 7q38 90 38 176q0 23 -6 74q0 6 5 6h90q5 0 8 -7q7 -24 7 -71q0 -99 -46 -179q-3 -6 -9 -6z" />
    <glyph glyph-name="uni02BE" unicode="&#x2be;" horiz-adv-x="400" 
d="M142 669v52q53 2 84.5 -25.5t31.5 -70.5q0 -45 -31.5 -72.5t-84.5 -24.5v53q26 -1 40 11t14 33t-14 33t-40 11z" />
    <glyph glyph-name="uni02BF" unicode="&#x2bf;" horiz-adv-x="400" 
d="M257 586v-59q-52 -1 -84 26t-32 70q0 44 32 71t84 26v-59q-46 -2 -46 -38q0 -34 46 -37z" />
    <glyph glyph-name="circumflex" unicode="&#x2c6;" 
d="M191 637q-28 -49 -62 -97q-3 -4 -9 -4h-76q-9 0 -4 8l101 148q3 4 8 4h89q6 0 9 -5l104 -148q2 -2 0.5 -4.5t-4.5 -2.5h-83q-6 0 -10 4q-10 16 -36 56z" />
    <glyph glyph-name="caron" unicode="&#x2c7;" 
d="M200 595q23 41 62 98q3 3 9 3h76q9 0 4 -8l-101 -147q-2 -5 -8 -5h-89q-6 0 -10 5l-103 148q-2 2 -0.5 4.5t4.5 2.5h83q6 0 10 -4q8 -11 20.5 -30.5t25.5 -40t17 -26.5z" />
    <glyph glyph-name="uni02C8" unicode="&#x2c8;" horiz-adv-x="400" 
d="M151 546l-8 145q0 8 7 8h100q8 0 6 -6l-11 -148q0 -6 -7 -6h-80q-7 0 -7 7z" />
    <glyph glyph-name="uni02C9" unicode="&#x2c9;" 
d="M56 661h282q6 0 6 -7v-71q0 -7 -7 -7h-282q-7 0 -7 7v71q0 7 8 7z" />
    <glyph glyph-name="uni02CA" unicode="&#x2ca;" 
d="M136 546l77 145q4 8 12 8h114q9 0 5 -9l-99 -146q-5 -5 -14 -5h-91q-8 0 -4 7z" />
    <glyph glyph-name="uni02CB" unicode="&#x2cb;" 
d="M186 694l83 -147q4 -8 -5 -8h-92q-6 0 -10 6l-106 145q-5 9 4 9h115q7 0 11 -5z" />
    <glyph glyph-name="uni02CC" unicode="&#x2cc;" horiz-adv-x="400" 
d="M151 -207l-8 145q0 8 7 8h100q8 0 6 -6l-11 -148q0 -6 -7 -6h-80q-7 0 -7 7z" />
    <glyph glyph-name="breve" unicode="&#x2d8;" 
d="M36 684h81q5 0 6 -4q19 -51 72 -51q58 0 74 51q1 4 5 4h81q5 0 5 -5q-11 -65 -54.5 -100t-111.5 -35q-67 0 -110 33.5t-53 100.5q-1 6 5 6z" />
    <glyph glyph-name="dotaccent" unicode="&#x2d9;" 
d="M196 552q-30 0 -48.5 17t-18.5 45t19 45t49 17t48 -17t18 -45t-18.5 -45t-48.5 -17z" />
    <glyph glyph-name="ring" unicode="&#x2da;" 
d="M87 625q0 42 30 69t78 27t78 -27t30 -69q0 -44 -30 -70.5t-78 -26.5q-49 0 -78.5 26t-29.5 71zM149 625q0 -20 13 -32t33 -12t33 12t13 32t-13.5 32t-32.5 12q-20 0 -33 -12t-13 -32z" />
    <glyph glyph-name="ogonek" unicode="&#x2db;" 
d="M76 -119q0 80 130 149h91q-113 -61 -113 -116q0 -21 15.5 -33.5t42.5 -12.5q30 0 50 6q7 3 7 -5v-64q0 -9 -6 -13q-32 -16 -85 -16t-92.5 25.5t-39.5 79.5z" />
    <glyph glyph-name="tilde" unicode="&#x2dc;" 
d="M95 555h-66q-7 0 -7 7q0 64 29 97t74 33q35 0 80 -25t56 -25q28 0 31 43q0 6 6 6h66q7 0 7 -6q-1 -132 -99 -132q-31 0 -75 24.5t-62 24.5q-31 0 -35 -42q0 -5 -5 -5z" />
    <glyph glyph-name="hungarumlaut" unicode="&#x2dd;" 
d="M58 553l65 130q5 8 15 8h87q5 0 6.5 -3.5t-1.5 -6.5l-82 -134q-6 -8 -14 -8h-70q-13 0 -6 14zM240 553l66 131q4 8 13 8h89q5 0 6.5 -3.5t-0.5 -7.5l-83 -133q-5 -8 -16 -8h-68q-13 0 -7 13z" />
    <glyph glyph-name="gravecomb" unicode="&#x300;" horiz-adv-x="0" 
d="M24 694l83 -147q4 -8 -5 -8h-92q-6 0 -10 6l-106 145q-5 9 4 9h115q7 0 11 -5z" />
    <glyph glyph-name="acutecomb" unicode="&#x301;" horiz-adv-x="0" 
d="M-104 546l77 145q4 8 11 8h115q10 0 4 -9l-99 -146q-4 -5 -13 -5h-92q-7 0 -3 7z" />
    <glyph glyph-name="uni0302" unicode="&#x302;" horiz-adv-x="0" 
d="M-4 637q-36 -60 -63 -97q-3 -4 -9 -4h-76q-4 0 -4.5 3t1.5 5l100 148q4 4 9 4h89q7 0 9 -5l103 -148q2 -2 1 -4.5t-5 -2.5h-83q-6 0 -10 4q-46 71 -62 97z" />
    <glyph glyph-name="tildecomb" unicode="&#x303;" horiz-adv-x="0" 
d="M-101 555h-66q-7 0 -7 7q0 64 29 97t74 33q35 0 80 -25t56 -25q28 0 31 43q0 6 6 6h66q7 0 7 -6q-1 -132 -99 -132q-31 0 -75 24.5t-62 24.5q-31 0 -35 -42q0 -5 -5 -5z" />
    <glyph glyph-name="uni0304" unicode="&#x304;" horiz-adv-x="0" 
d="M-140 661h282q6 0 6 -7v-71q0 -7 -7 -7h-282q-7 0 -7 7v71q0 7 8 7z" />
    <glyph glyph-name="uni0306" unicode="&#x306;" horiz-adv-x="0" 
d="M-159 684h81q5 0 5 -4q20 -51 73 -51q57 0 74 51q1 4 5 4h81q5 0 5 -5q-11 -65 -54.5 -100t-111.5 -35q-67 0 -110 33.5t-53 100.5q-1 6 5 6z" />
    <glyph glyph-name="uni0307" unicode="&#x307;" horiz-adv-x="0" 
d="M0 552q-30 0 -48.5 17t-18.5 45t19 45t49 17t48 -17t18 -45t-18.5 -45t-48.5 -17z" />
    <glyph glyph-name="uni0308" unicode="&#x308;" horiz-adv-x="0" 
d="M-97 553q-27 0 -44 16.5t-17 44.5q0 27 17.5 44.5t44.5 17.5q26 0 42.5 -17t16.5 -45t-17 -44.5t-43 -16.5zM97 553q-27 0 -43.5 16.5t-16.5 44.5q0 27 17.5 44.5t43.5 17.5q27 0 43.5 -17t16.5 -45q0 -27 -17 -44t-44 -17z" />
    <glyph glyph-name="hookabovecomb" unicode="&#x309;" horiz-adv-x="0" 
d="M-99 645v55q0 6 5 9q35 21 87 21q49 0 77.5 -24t28.5 -64q0 -45 -38.5 -77t-89.5 -45q-7 -2 -8 5v55q0 5 4 7q39 23 39 44q0 27 -31 27q-33 0 -67 -17q-2 -2 -4.5 -0.5t-2.5 4.5z" />
    <glyph glyph-name="uni030A" unicode="&#x30a;" horiz-adv-x="0" 
d="M-108 625q0 42 29.5 69t77.5 27t78.5 -27t30.5 -69q0 -44 -30 -70.5t-79 -26.5t-78 26t-29 71zM-46 625q0 -20 13 -32t32 -12q20 0 33 12t13 32t-13 32t-33 12t-32.5 -12t-12.5 -32z" />
    <glyph glyph-name="uni030B" unicode="&#x30b;" horiz-adv-x="0" 
d="M-178 553l65 130q4 8 15 8h87q5 0 6.5 -3.5t-1.5 -6.5l-82 -134q-6 -8 -14 -8h-70q-13 0 -6 14zM4 553l66 131q4 8 12 8h89q6 0 8 -3.5t-1 -7.5l-83 -133q-5 -8 -17 -8h-67q-13 0 -7 13z" />
    <glyph glyph-name="uni030C" unicode="&#x30c;" horiz-adv-x="0" 
d="M4 595q32 52 63 98q3 3 9 3h75q3 0 4.5 -1.5t1.5 -3t-2 -3.5l-100 -147q-4 -5 -9 -5h-89q-7 0 -9 5l-103 148q-2 2 -1 4.5t5 2.5h83q6 0 10 -4q46 -71 62 -97z" />
    <glyph glyph-name="uni031B" unicode="&#x31b;" horiz-adv-x="0" 
d="M230 593h90q7 0 10 -8q5 -16 5 -46q0 -88 -88 -112h-108q-13 0 -13 7v44q0 8 8 8h36q36 0 47 13.5t11 39.5q0 23 -3 47q-2 7 5 7z" />
    <glyph glyph-name="dotbelowcomb" unicode="&#x323;" horiz-adv-x="0" 
d="M-1 -186q-28 0 -46 17.5t-18 45.5t18.5 46t47.5 18t46.5 -18t17.5 -46t-18 -45.5t-48 -17.5z" />
    <glyph glyph-name="uni0324" unicode="&#x324;" horiz-adv-x="0" 
d="M-97 -184q-27 0 -44 16.5t-17 44.5t17.5 45.5t44.5 17.5q26 0 42.5 -17.5t16.5 -45.5t-17 -44.5t-43 -16.5zM97 -184q-27 0 -43.5 17t-16.5 44q0 28 17.5 45.5t43.5 17.5q27 0 43.5 -17.5t16.5 -45.5q0 -27 -17 -44t-44 -17z" />
    <glyph glyph-name="uni0326" unicode="&#x326;" horiz-adv-x="0" 
d="M21 -225h-92q-8 0 -3 7q36 55 36 110q0 23 -15 63q-2 6 4 6h100q6 0 10 -6q15 -24 15 -57q0 -66 -45 -120q-3 -3 -10 -3z" />
    <glyph glyph-name="uni0327" unicode="&#x327;" horiz-adv-x="0" 
d="M-25 6h73l-35 -47q86 -24 86 -94q0 -42 -33.5 -69t-86.5 -27q-46 0 -72 14q-6 2 -6 11v47q0 8 7 5q31 -13 64 -13q42 0 42 30q0 35 -93 48q-2 2 -2.5 12t1.5 13z" />
    <glyph glyph-name="uni0328" unicode="&#x328;" horiz-adv-x="0" 
d="M-112 -119q0 81 130 149h91q-113 -60 -113 -116q0 -21 15.5 -33.5t42.5 -12.5q31 0 49 6q8 3 8 -5v-64q0 -9 -6 -13q-32 -16 -85 -16q-54 0 -93 25.5t-39 79.5z" />
    <glyph glyph-name="uni032E" unicode="&#x32e;" horiz-adv-x="0" 
d="M-160 -71h81q5 0 8 -7q18 -50 70 -50q55 0 73 51q2 6 8 6h81q6 0 6 -8q-8 -63 -56 -101t-112 -38q-67 0 -113.5 36t-52.5 104q0 7 7 7z" />
    <glyph glyph-name="uni0331" unicode="&#x331;" horiz-adv-x="0" 
d="M-122 -78h245q6 0 6 -7v-71q0 -7 -6 -7h-246q-6 0 -6 7v71q0 7 7 7z" />
    <glyph glyph-name="uni0374" unicode="&#x374;" horiz-adv-x="210" 
d="M12 401l63 238q3 7 10 7h107q8 0 5 -9l-79 -238q-2 -7 -11 -7h-89q-9 0 -6 9z" />
    <glyph glyph-name="uni0375" unicode="&#x375;" horiz-adv-x="219" 
d="M19 -107l63 238q3 7 9 7h108q9 0 5 -9l-80 -239q-1 -6 -10 -6h-89q-9 0 -6 9z" />
    <glyph glyph-name="uni037A" unicode="&#x37a;" 
d="M117 -111q0 48 10 73q3 5 8 5h91q5 0 5 -5q-5 -27 -5 -47q0 -47 41 -47q19 0 31 4q3 1 4 -0.5t1 -5.5v-60q0 -9 -4 -11q-26 -14 -77 -14q-54 0 -79.5 31t-25.5 77z" />
    <glyph glyph-name="uni037E" unicode="&#x37e;" horiz-adv-x="269" 
d="M148 318q-32 0 -52.5 19.5t-20.5 51.5q0 31 20.5 51t52.5 20t52.5 -20t20.5 -51q0 -32 -19.5 -51.5t-53.5 -19.5zM123 -135h-84q-4 0 -6 3t0 5q42 70 55.5 133t9.5 136q0 7 6 7h97q7 0 8 -8q12 -161 -74 -270q-4 -6 -12 -6z" />
    <glyph glyph-name="tonos" unicode="&#x384;" 
d="M142 546l77 145q4 8 11 8h115q10 0 4 -9l-99 -146q-4 -5 -13 -5h-91q-8 0 -4 7z" />
    <glyph glyph-name="dieresistonos" unicode="&#x385;" 
d="M127 538l49 177q1 5 6 5h91q7 0 4 -6l-66 -178q-3 -4 -8 -4h-72q-5 0 -4 6zM48 560q-23 0 -37.5 15t-14.5 39q0 25 15 40.5t39 15.5t38.5 -15.5t14.5 -40.5q0 -24 -15 -39t-40 -15zM341 560q-24 0 -38.5 14.5t-14.5 39.5t15 40.5t38 15.5t38.5 -15.5t15.5 -40.5
q0 -24 -15 -39t-39 -15z" />
    <glyph glyph-name="Alphatonos" unicode="&#x386;" horiz-adv-x="720" 
d="M499 182h-229l-60 -174q-3 -8 -11 -8h-102q-8 0 -7 10q204 567 209 581q7 24 9 55q0 6 6 6h138q6 0 7 -5q35 -97 113 -313.5t118 -324.5q3 -9 -5 -9h-112q-7 0 -10 6zM297 280h176q-8 24 -43.5 128t-46.5 144h-1q-7 -30 -19.5 -71.5t-36 -111t-29.5 -89.5zM13 442l53 206
q1 5 8 5h103q8 0 5 -7l-66 -206q-2 -5 -9 -5h-88q-7 0 -6 7z" />
    <glyph glyph-name="anoteleia" unicode="&#x387;" horiz-adv-x="269" 
d="M135 318q-32 0 -52.5 19.5t-20.5 51.5q0 31 20.5 51t52.5 20t52.5 -20.5t20.5 -50.5q0 -32 -20 -51.5t-53 -19.5z" />
    <glyph glyph-name="Epsilontonos" unicode="&#x388;" horiz-adv-x="702" 
d="M670 89l-15 -81q-1 -8 -9 -8h-397q-9 0 -9 9v635q0 8 8 8h385q8 0 9 -6l11 -82q2 -9 -7 -9h-285v-173h257q7 0 7 -7v-84q0 -7 -7 -7h-257v-187h302q8 0 7 -8zM1 441l53 206q1 6 8 6h103q6 0 5 -7l-67 -206q-1 -5 -8 -5h-88q-7 0 -6 6z" />
    <glyph glyph-name="Etatonos" unicode="&#x389;" horiz-adv-x="843" 
d="M760 0h-106q-8 0 -8 8v276h-285v-275q0 -9 -9 -9h-103q-9 0 -9 9v635q0 8 8 8h104q9 0 9 -7v-263h285v263q0 7 8 7h107q6 0 6 -7v-637q0 -8 -7 -8zM1 441l53 206q1 6 8 6h103q6 0 5 -7l-67 -206q-1 -5 -8 -5h-88q-7 0 -6 6z" />
    <glyph glyph-name="Iotatonos" unicode="&#x38a;" horiz-adv-x="430" 
d="M354 645v-636q0 -9 -9 -9h-104q-8 0 -8 9v636q0 7 8 7h105q8 0 8 -7zM1 441l53 206q1 6 8 6h103q6 0 5 -7l-67 -206q-1 -5 -8 -5h-88q-7 0 -6 6z" />
    <glyph glyph-name="Omicrontonos" unicode="&#x38c;" horiz-adv-x="847" 
d="M486 663q139 0 223 -95t85 -238q0 -158 -85.5 -249t-223.5 -91q-143 0 -226.5 91.5t-83.5 246.5q0 150 86.5 242.5t224.5 92.5zM299 327q0 -106 50.5 -171t139.5 -65q84 0 132 63t48 173q0 107 -50 171.5t-136 64.5q-81 0 -132.5 -62.5t-51.5 -173.5zM1 441l53 206
q1 6 8 6h103q6 0 5 -7l-67 -206q-1 -5 -8 -5h-88q-7 0 -6 6z" />
    <glyph glyph-name="Upsilontonos" unicode="&#x38e;" horiz-adv-x="794" 
d="M427 262l-215 381q-5 9 6 9h120q8 0 10 -5q125 -243 154 -308q31 67 148 308q2 5 9 5h116q7 0 4 -7l-216 -386q-8 -13 -8 -31v-219q0 -9 -9 -9h-103q-9 0 -9 9v224q0 16 -7 29zM1 441l53 206q1 6 8 6h103q6 0 5 -7l-67 -206q-1 -5 -8 -5h-88q-7 0 -6 6z" />
    <glyph glyph-name="Omegatonos" unicode="&#x38f;" horiz-adv-x="851" 
d="M437 0h-274q-8 0 -8 8l-8 81q0 8 8 8h156q-120 100 -120 258q0 134 84 221t224 87q137 0 213.5 -87.5t76.5 -215.5q0 -155 -122 -263h163q7 0 7 -8l-12 -81q0 -8 -7 -8h-274q-8 0 -8 8v70q0 6 6 12q124 93 124 257q0 95 -45.5 155.5t-129.5 60.5t-130.5 -61.5
t-46.5 -156.5q0 -160 126 -254q5 -5 5 -11v-71q0 -9 -8 -9zM1 441l53 206q1 6 8 6h103q6 0 5 -7l-67 -206q-1 -5 -8 -5h-88q-7 0 -6 6z" />
    <glyph glyph-name="iotadieresistonos" unicode="&#x390;" horiz-adv-x="273" 
d="M66 478q0 8 8 8h107q6 0 6 -6v-358q0 -26 9 -35t27 -9q16 0 25 4q3 1 4 -0.5t1 -4.5v-65q0 -8 -5 -9q-23 -13 -67 -13q-115 0 -115 132v356zM84 538l49 177q1 5 7 5h91q7 0 4 -6l-67 -178q-1 -4 -8 -4h-71q-7 0 -5 6zM6 560q-24 0 -38.5 15t-14.5 39q0 25 15.5 40.5
t38.5 15.5q25 0 39 -15.5t14 -40.5q0 -24 -14.5 -39t-39.5 -15zM298 560q-24 0 -38.5 15t-14.5 39q0 25 15.5 40.5t38.5 15.5t38 -15.5t15 -40.5q0 -24 -15 -39t-39 -15z" />
    <glyph glyph-name="Alpha" unicode="&#x391;" horiz-adv-x="658" 
d="M438 182h-229l-61 -174q-1 -8 -10 -8h-102q-10 0 -7 10q123 349 209 581q6 20 8 55q0 6 6 6h138q6 0 8 -5q190 -525 231 -638q3 -9 -6 -9h-112q-6 0 -9 6zM235 280h176q-9 30 -43.5 132.5t-45.5 139.5h-1q-7 -30 -20.5 -73t-35 -108t-30.5 -91z" />
    <glyph glyph-name="Beta" unicode="&#x392;" horiz-adv-x="592" 
d="M76 8v635q0 8 6 9q78 2 198 2q244 0 244 -170q0 -52 -27 -89t-72 -53v-2q52 -14 89 -53t37 -102q0 -93 -75 -140t-209 -47q-75 -1 -184 2q-7 1 -7 8zM194 287v-192q1 0 27.5 -1t52.5 -1q152 0 152 98q0 96 -138 96h-94zM194 557v-173h94q118 0 118 88q0 46 -31.5 66.5
t-95.5 20.5q-63 0 -85 -2z" />
    <glyph glyph-name="Gamma" unicode="&#x393;" horiz-adv-x="499" 
d="M76 646q0 6 6 6h383q6 0 7 -5l10 -84q1 -8 -7 -8h-278v-547q0 -8 -8 -8h-106q-7 0 -7 8v638z" />
    <glyph glyph-name="uni0394" unicode="&#x394;" horiz-adv-x="662" 
d="M603 0h-546q-6 0 -6 7v57q0 3 3 15l186 511q4 14 7 57q0 5 6 5h139q7 0 8 -4q10 -26 206 -568q4 -8 4 -17v-54q0 -9 -7 -9zM173 97h305q-154 451 -154 453h-2q-16 -70 -149 -453z" />
    <glyph glyph-name="Epsilon" unicode="&#x395;" horiz-adv-x="538" 
d="M505 89l-14 -81q-1 -8 -10 -8h-397q-8 0 -8 9v635q0 8 8 8h385q8 0 9 -6l10 -82q2 -9 -6 -9h-285v-173h257q7 0 7 -7v-84q0 -7 -8 -7h-256v-187h302q7 0 6 -8z" />
    <glyph glyph-name="Zeta" unicode="&#x396;" horiz-adv-x="558" 
d="M522 0h-495q-9 0 -9 8v55q0 7 4 12l345 480h-335q-8 0 -7 8l14 82q2 7 9 7h465q6 0 6 -6v-60q0 -8 -5 -15l-336 -474h363q9 0 6 -9l-16 -80q-2 -8 -9 -8z" />
    <glyph glyph-name="Eta" unicode="&#x397;" horiz-adv-x="679" 
d="M596 0h-106q-8 0 -8 8v276h-285v-275q0 -9 -9 -9h-103q-9 0 -9 9v635q0 8 8 8h104q9 0 9 -7v-263h285v263q0 7 8 7h107q6 0 6 -7v-637q0 -8 -7 -8z" />
    <glyph glyph-name="Theta" unicode="&#x398;" horiz-adv-x="725" 
d="M236 381h247q7 0 7 -6v-83q0 -8 -7 -8h-246q-7 0 -7 8v82q0 7 6 7zM362 663q139 0 223 -95t85 -238q0 -158 -85.5 -249t-223.5 -91q-143 0 -226.5 91.5t-83.5 246.5q0 150 86.5 242.5t224.5 92.5zM175 327q0 -106 50.5 -171t139.5 -65q84 0 132 63t48 173
q0 107 -50 171.5t-136 64.5q-81 0 -132.5 -62.5t-51.5 -173.5z" />
    <glyph glyph-name="Iota" unicode="&#x399;" horiz-adv-x="273" 
d="M197 645v-636q0 -9 -9 -9h-104q-8 0 -8 9v636q0 7 8 7h105q8 0 8 -7z" />
    <glyph glyph-name="Kappa" unicode="&#x39a;" horiz-adv-x="628" 
d="M188 0h-103q-9 0 -9 9v636q0 7 7 7h106q8 0 8 -7v-266h61q10 0 17 10q24 34 85 125t91 132q4 6 12 6h113q11 0 5 -10q-117 -173 -219 -299q-4 -5 0 -9q49 -59 251 -323q3 -4 1.5 -7.5t-6.5 -3.5h-123q-11 0 -16 8q-14 18 -198 262q-8 11 -19 11h-55v-272q0 -9 -9 -9z" />
    <glyph glyph-name="Lambda" unicode="&#x39b;" horiz-adv-x="655" 
d="M138 0h-104q-9 0 -6 8q22 61 97 271.5t111 310.5q6 17 10 56q2 6 8 6h134q6 0 10 -7q40 -108 117 -324t112 -312q3 -9 -6 -9h-108q-8 0 -11 8q-17 48 -94.5 281t-86.5 261h-1q-4 -21 -17 -65.5t-33.5 -108.5t-39 -119.5t-44 -133t-37.5 -115.5q-3 -8 -11 -8z" />
    <glyph glyph-name="Mu" unicode="&#x39c;" horiz-adv-x="878" 
d="M130 647q1 5 8 5h157q8 0 9 -6q111 -356 137 -475h1q8 34 35.5 126t61 202.5t44.5 146.5q1 6 8 6h151q6 0 7 -5l67 -639q1 -8 -7 -8h-117q-7 0 -8 7q-34 488 -35 554h-1q-12 -51 -72.5 -261.5t-82.5 -292.5q-3 -7 -10 -7h-95q-9 0 -11 7q-122 429 -152 556h-2
q-3 -106 -46 -556q-1 -7 -8 -7h-100q-9 0 -8 8z" />
    <glyph glyph-name="Nu" unicode="&#x39d;" horiz-adv-x="684" 
d="M76 646q0 6 7 6h135q8 0 12 -6q246 -449 265 -494h2q-3 81 -3 168v325q0 7 8 7h97q8 0 8 -8v-635q0 -9 -9 -9h-131q-7 0 -13 7q-27 59 -137.5 265.5t-130.5 253.5h-1q4 -51 4 -197v-321q0 -8 -7 -8h-97q-9 0 -9 9v637z" />
    <glyph glyph-name="Xi" unicode="&#x39e;" horiz-adv-x="550" 
d="M39 101h471q8 0 7 -8l-13 -87q-1 -6 -9 -6h-446q-7 0 -8 7l-8 87q-1 7 6 7zM90 380h368q7 0 7 -6v-87q0 -7 -7 -7h-367q-7 0 -7 7v86q0 7 6 7zM59 652h430q8 0 9 -6l11 -87q1 -4 -1 -5.5t-7 -1.5h-454q-6 0 -5 7l10 88q1 5 7 5z" />
    <glyph glyph-name="Omicron" unicode="&#x39f;" horiz-adv-x="724" 
d="M363 663q139 0 223 -95t85 -238q0 -158 -85.5 -249t-223.5 -91q-143 0 -226.5 91.5t-83.5 246.5q0 150 86.5 242.5t224.5 92.5zM177 327q0 -106 50.5 -171t138.5 -65q85 0 133 63t48 173q0 106 -50.5 171t-135.5 65q-82 0 -133 -62.5t-51 -173.5z" />
    <glyph glyph-name="Pi" unicode="&#x3a0;" horiz-adv-x="680" 
d="M596 0h-104q-9 0 -9 8v547h-285v-547q0 -8 -9 -8h-104q-9 0 -9 8v636q0 8 9 8h511q8 0 8 -7v-637q0 -8 -8 -8z" />
    <glyph glyph-name="Rho" unicode="&#x3a1;" horiz-adv-x="575" 
d="M76 7v638q0 7 6 7q76 2 189 2q138 0 201 -60.5t64 -156.5q0 -113 -79.5 -170.5t-198.5 -57.5h-62v-201q0 -8 -7 -8h-106q-7 0 -7 7zM196 557v-251q16 -2 65 -2q67 0 111 31t44 100q0 60 -37.5 92t-107.5 32q-59 0 -75 -2z" />
    <glyph glyph-name="Sigma" unicode="&#x3a3;" horiz-adv-x="577" 
d="M504 652q8 0 9 -6l10 -83q1 -8 -6 -8h-318l197 -221q6 -7 0 -14l-202 -223h350q5 0 5 -6l-16 -84q-1 -7 -8 -7h-485q-6 0 -6 7v56q0 5 3 11l225 246l-219 250q-5 5 -5 14v63q0 5 6 5h460z" />
    <glyph glyph-name="Tau" unicode="&#x3a4;" horiz-adv-x="557" 
d="M213 9v546h-201q-8 0 -6 9l13 81q1 7 9 7h504q8 0 9 -8l9 -79q1 -10 -7 -10h-209v-546q0 -9 -8 -9h-103q-10 -1 -10 9z" />
    <glyph glyph-name="Upsilon" unicode="&#x3a5;" horiz-adv-x="597" 
d="M230 262l-215 381q-5 9 6 9h121q6 0 9 -5q125 -243 154 -308q33 72 149 308q1 5 8 5h116q8 0 4 -7l-216 -386q-8 -13 -8 -31v-219q0 -9 -9 -9h-103q-9 0 -9 9v224q0 16 -7 29z" />
    <glyph glyph-name="Phi" unicode="&#x3a6;" horiz-adv-x="758" 
d="M327 677h103q6 0 6 -6v-63q53 -3 100 -20.5t85.5 -50t61 -85.5t22.5 -121q0 -70 -22 -123t-61 -85t-85 -50t-101 -24v-66q0 -7 -7 -7h-102q-7 0 -7 8v65q-55 5 -101.5 22.5t-85 49.5t-60 84.5t-21.5 119.5q0 69 24 123.5t64.5 87t85.5 50.5t94 22v62q0 7 7 7zM320 144
v373q-58 -7 -101 -52t-43 -135q0 -88 41 -133t103 -53zM436 517v-373q63 6 104 49.5t41 136.5q0 94 -43.5 138.5t-101.5 48.5z" />
    <glyph glyph-name="Chi" unicode="&#x3a7;" horiz-adv-x="611" 
d="M579 641l-194 -306l208 -325q6 -8 -4 -10h-123q-11 0 -15 8l-152 250h-1l-147 -250q-5 -8 -13 -8h-117q-5 0 -6 3.5t2 6.5l205 318l-197 316q-5 8 4 8h122q10 0 13 -7l144 -247h1l142 247q4 7 13 7h110q10 0 5 -11z" />
    <glyph glyph-name="Psi" unicode="&#x3a8;" horiz-adv-x="710" 
d="M296 296v374q0 6 7 6h104q6 0 6 -6v-374q58 4 90.5 43t36.5 138q6 128 15 148q1 6 9 6h98q9 0 7 -8q-6 -31 -11 -146q-10 -259 -244 -279v-191q0 -7 -8 -7h-102q-8 0 -8 9v189q-236 18 -244 277q-2 102 -11 148q-2 8 6 8h99q8 0 10 -5q10 -27 13 -146q2 -53 12.5 -89.5
t29.5 -55.5t38.5 -27.5t46.5 -11.5z" />
    <glyph glyph-name="uni03A9" unicode="&#x3a9;" horiz-adv-x="722" 
d="M308 0h-274q-8 0 -8 8l-8 81q0 8 7 8h157q-120 100 -120 258q0 134 83.5 221t223.5 87q138 0 214.5 -87.5t76.5 -215.5q0 -155 -122 -263h162q8 0 8 -8l-12 -81q0 -8 -7 -8h-274q-8 0 -8 8v70q0 6 6 12q124 93 124 257q0 94 -45.5 155t-129.5 61q-85 0 -131 -61.5
t-46 -156.5q0 -161 125 -254q6 -5 6 -11v-71q0 -9 -8 -9z" />
    <glyph glyph-name="Iotadieresis" unicode="&#x3aa;" horiz-adv-x="273" 
d="M197 645v-636q0 -9 -9 -9h-104q-8 0 -8 9v636q0 7 8 7h105q8 0 8 -7zM31 704q-29 0 -46.5 16t-17.5 43q0 26 19 43t48 17q28 0 45.5 -17t17.5 -43q0 -27 -18.5 -43t-47.5 -16zM239 704q-28 0 -46 16t-18 43q0 26 19 43t47 17t46 -17t18 -43q0 -28 -18 -43.5t-48 -15.5z
" />
    <glyph glyph-name="Upsilondieresis" unicode="&#x3ab;" horiz-adv-x="597" 
d="M230 262l-215 381q-5 9 6 9h121q6 0 9 -5q125 -243 154 -308q33 72 149 308q1 5 8 5h116q8 0 4 -7l-216 -386q-8 -13 -8 -31v-219q0 -9 -9 -9h-103q-9 0 -9 9v224q0 16 -7 29zM195 704q-29 0 -46.5 16t-17.5 43q0 26 18.5 43t47.5 17t46.5 -17t17.5 -43q0 -27 -18.5 -43
t-47.5 -16zM403 704q-29 0 -46.5 16t-17.5 43q0 26 18.5 43t47.5 17q28 0 46 -17t18 -43q0 -27 -18 -43t-48 -16z" />
    <glyph glyph-name="alphatonos" unicode="&#x3ac;" horiz-adv-x="578" 
d="M236 -10q-87 0 -140 65.5t-53 179.5t62 187.5t157 73.5q97 0 134 -79q5 51 15 67q2 2 5 2h93q7 0 5 -7q-22 -83 -22 -202v-151q0 -44 33 -44q19 0 30 4q3 1 4.5 -0.5t1.5 -5.5v-67q0 -6 -6 -9q-25 -14 -65 -14q-83 0 -94 81v14q-50 -95 -160 -95zM167 242q0 -77 29 -115
t74 -38q52 0 80 44t28 118t-25.5 114.5t-75.5 40.5q-52 0 -81 -44t-29 -120zM236 546l77 145q4 8 12 8h114q9 0 5 -9l-99 -146q-5 -5 -14 -5h-91q-8 0 -4 7z" />
    <glyph glyph-name="epsilontonos" unicode="&#x3ad;" horiz-adv-x="453" 
d="M139 246v2q-85 28 -85 111q0 55 51.5 96t152.5 41q91 0 146 -29q5 -3 5 -10v-80q0 -10 -9 -5q-53 29 -125 29q-48 0 -72.5 -15.5t-24.5 -39.5q0 -25 21 -39.5t60 -14.5h72q7 0 7 -7v-74q0 -8 -7 -8h-69q-41 0 -64 -14.5t-23 -39.5q0 -29 28 -46.5t80 -17.5q70 0 129 31
q8 3 8 -6v-72q0 -9 -6 -13q-62 -35 -160 -35q-91 0 -151.5 36.5t-60.5 110.5q0 41 27 69t70 40zM177 546l77 145q4 8 11 8h115q10 0 5 -9l-100 -146q-4 -5 -13 -5h-91q-7 0 -4 7z" />
    <glyph glyph-name="etatonos" unicode="&#x3ae;" horiz-adv-x="556" 
d="M66 8v361q0 65 -9 110q-1 7 6 7h92q10 0 13 -6q10 -26 12 -71q62 87 160 87q67 0 109 -47t42 -155v-490q0 -7 -6 -8q-84 -13 -108 -13q-7 0 -7 7v512q0 96 -70 96q-48 0 -81 -41.5t-33 -96.5v-251q0 -9 -8 -9h-105q-7 0 -7 8zM216 547l77 145q5 8 11 8h115q9 0 5 -9
l-100 -146q-4 -5 -13 -5h-91q-8 0 -4 7z" />
    <glyph glyph-name="iotatonos" unicode="&#x3af;" horiz-adv-x="273" 
d="M66 478q0 8 8 8h107q6 0 6 -6v-358q0 -26 9 -35t27 -9q16 0 25 4q3 1 4 -0.5t1 -4.5v-65q0 -8 -5 -9q-23 -13 -67 -13q-115 0 -115 132v356zM87 546l77 145q4 8 11 8h115q10 0 4 -9l-99 -146q-4 -5 -13 -5h-91q-7 0 -4 7z" />
    <glyph glyph-name="upsilondieresistonos" unicode="&#x3b0;" horiz-adv-x="540" 
d="M345 486h101q6 0 10 -6q37 -78 37 -205q0 -60 -11.5 -109t-37 -89.5t-72 -63.5t-110.5 -23q-91 0 -144 48t-53 139v151q0 104 -9 151q-1 7 6 7h104q8 0 10 -6q10 -24 10 -99v-211q0 -46 23.5 -67.5t59.5 -21.5q103 0 103 192q0 116 -34 206q-1 7 7 7zM207 538l49 177
q1 5 7 5h91q7 0 4 -6l-67 -178q-1 -4 -8 -4h-71q-6 0 -5 6zM129 560q-23 0 -38 15t-15 39q0 25 15.5 40.5t38.5 15.5q25 0 39 -15.5t14 -40.5q0 -24 -14.5 -39t-39.5 -15zM421 560q-23 0 -38 15t-15 39q0 25 15.5 40.5t38.5 15.5t38 -15.5t15 -40.5q0 -24 -15 -39t-39 -15z
" />
    <glyph glyph-name="alpha" unicode="&#x3b1;" horiz-adv-x="578" 
d="M236 -10q-87 0 -140 65.5t-53 179.5t62 187.5t157 73.5q97 0 134 -79q5 51 15 67q2 2 5 2h93q7 0 5 -7q-22 -83 -22 -202v-151q0 -44 33 -44q19 0 30 4q3 1 4.5 -0.5t1.5 -5.5v-67q0 -6 -6 -9q-25 -14 -65 -14q-83 0 -94 81v14q-50 -95 -160 -95zM167 242q0 -77 29 -115
t74 -38q52 0 80 44t28 118t-25.5 114.5t-75.5 40.5q-52 0 -81 -44t-29 -120z" />
    <glyph glyph-name="beta" unicode="&#x3b2;" horiz-adv-x="572" 
d="M186 492v-371q42 -42 107 -42q54 0 83.5 33.5t29.5 86.5q0 56 -34.5 83t-90.5 27h-21q-6 0 -6 6v82q0 7 6 7h23q48 0 76.5 30.5t28.5 87.5q0 49 -27 78.5t-71 29.5q-50 0 -77 -34.5t-27 -103.5zM66 -209v668q0 127 59 193t169 66q93 0 150 -51t57 -136q0 -118 -104 -165
v-1q131 -42 131 -171q0 -97 -62.5 -150.5t-153.5 -53.5q-80 0 -126 33v-223q0 -6 -6 -7q-80 -10 -107 -10q-7 0 -7 8z" />
    <glyph glyph-name="gamma" unicode="&#x3b3;" horiz-adv-x="507" 
d="M289 -208q-77 -9 -105 -9q-6 0 -6 8q18 160 19 212q1 78 -55.5 215t-140.5 260q-5 8 4 8h126q7 0 11 -5q30 -45 68 -141t57 -181h2q16 59 55 168t59 154q3 5 8 5h110q7 0 4 -7q-51 -101 -112 -245.5t-78 -205.5q-1 -4 -2 -8.5t-2 -10t-2 -8.5q-2 -25 -4.5 -63.5t-5 -80.5
t-3.5 -56q0 -6 -7 -9z" />
    <glyph glyph-name="delta" unicode="&#x3b4;" horiz-adv-x="547" 
d="M471 665v-88q0 -8 -6 -4q-84 49 -174 49q-44 0 -65.5 -14.5t-21.5 -32.5q0 -19 21.5 -40.5t80.5 -53.5q115 -64 156 -120t41 -139q0 -105 -63.5 -168.5t-164.5 -63.5q-107 0 -169.5 64t-62.5 165q0 76 42 131t109 78q-55 38 -78.5 73t-23.5 77q0 54 51.5 96.5t154.5 42.5
q110 0 170 -43q3 -3 3 -9zM164 223q0 -68 33.5 -106t79.5 -38q48 0 77.5 37t29.5 100q0 90 -85 144q-19 11 -28 11q-35 -1 -71 -41.5t-36 -106.5z" />
    <glyph glyph-name="epsilon" unicode="&#x3b5;" horiz-adv-x="453" 
d="M139 246v2q-85 28 -85 111q0 55 51.5 96t152.5 41q91 0 146 -29q5 -3 5 -10v-80q0 -10 -9 -5q-53 29 -125 29q-48 0 -72.5 -15.5t-24.5 -39.5q0 -25 21 -39.5t60 -14.5h72q7 0 7 -7v-74q0 -8 -7 -8h-69q-41 0 -64 -14.5t-23 -39.5q0 -29 28 -46.5t80 -17.5q70 0 129 31
q8 3 8 -6v-72q0 -9 -6 -13q-62 -35 -160 -35q-91 0 -151.5 36.5t-60.5 110.5q0 41 27 69t70 40z" />
    <glyph glyph-name="zeta" unicode="&#x3b6;" horiz-adv-x="422" 
d="M45 205q0 182 217 402h-60q-87 0 -105 3q-6 2 -6 7l12 82q1 5 6 5q48 -3 112 -3h190q7 0 7 -6v-66q0 -6 -5 -10q-26 -16 -42 -31q-206 -201 -206 -360q0 -60 25 -85.5t89 -43.5q71 -19 104.5 -50.5t33.5 -97.5q0 -59 -42.5 -111t-129.5 -68q-7 -1 -7 6v86q0 7 6 8
q60 19 60 62q-1 24 -17 36.5t-58 21.5q-99 22 -141.5 67.5t-42.5 145.5z" />
    <glyph glyph-name="eta" unicode="&#x3b7;" horiz-adv-x="556" 
d="M66 8v361q0 65 -9 110q-1 7 6 7h92q10 0 13 -6q10 -26 12 -71q62 87 160 87q67 0 109 -47t42 -155v-490q0 -7 -6 -8q-84 -13 -108 -13q-7 0 -7 7v512q0 96 -70 96q-48 0 -81 -41.5t-33 -96.5v-251q0 -9 -8 -9h-105q-7 0 -7 8z" />
    <glyph glyph-name="theta" unicode="&#x3b8;" horiz-adv-x="575" 
d="M288 -10q-113 0 -176 94t-63 272q0 162 64.5 262t179.5 100t174 -98t59 -264q0 -173 -60.5 -269.5t-177.5 -96.5zM170 404h235q-2 102 -31 163.5t-86 61.5t-86.5 -61.5t-31.5 -163.5zM407 312h-237q2 -109 33.5 -171t86.5 -62q114 0 117 233z" />
    <glyph glyph-name="iota" unicode="&#x3b9;" horiz-adv-x="273" 
d="M66 478q0 8 8 8h107q6 0 6 -6v-358q0 -26 9 -35t27 -9q16 0 25 4q3 1 4 -0.5t1 -4.5v-65q0 -8 -5 -9q-23 -13 -67 -13q-115 0 -115 132v356z" />
    <glyph glyph-name="kappa" unicode="&#x3ba;" horiz-adv-x="526" 
d="M72 486h107q7 0 7 -6l1 -191h55q15 25 56.5 96.5t55.5 94.5q4 6 11 6h117q8 0 5 -8q-49 -71 -159 -218q21 -13 65 -75q22 -31 66 -101t48 -76q5 -8 -5 -8h-119q-8 0 -13 6q-95 145 -103 157q-14 21 -23.5 27t-28.5 7h-28v-189q0 -8 -8 -8h-105q-8 0 -8 8v471q-1 7 6 7z
" />
    <glyph glyph-name="lambda" unicode="&#x3bb;" horiz-adv-x="544" 
d="M384 6l-112 351h-2q-8 -40 -46 -155t-68 -196q-3 -6 -9 -6h-111q-8 0 -5 8l178 467q5 12 3 17l-13 34q-30 83 -109 83q-26 0 -47 -3q-5 0 -5 5v92q0 7 5 8q28 7 62 7q78 0 126 -37t89 -146q112 -300 194 -528q2 -7 -6 -7h-117q-6 0 -7 6z" />
    <glyph glyph-name="uni03BC" unicode="&#x3bc;" horiz-adv-x="573" 
d="M489 480v-352q1 -50 37 -50q12 0 24 2q3 1 4 0t1 -5v-65q0 -6 -4 -8q-24 -12 -63 -12q-89 0 -102 84q0 1 -0.5 7t-0.5 7q-41 -98 -133 -98q-50 0 -73 28q4 -52 4 -216q0 -8 -7 -9q-11 -1 -37.5 -3.5t-44 -4.5t-20.5 -2q-8 0 -8 9v687q0 7 8 7h106q7 0 7 -7v-315
q0 -35 18 -56.5t52 -21.5q47 0 79 43t32 130v221q0 6 6 6h109q6 0 6 -6z" />
    <glyph glyph-name="nu" unicode="&#x3bd;" horiz-adv-x="496" 
d="M15 486h123q7 0 11 -5q25 -45 59.5 -160.5t48.5 -202.5h2q37 64 62.5 144t25.5 151q0 41 -4 65q0 8 7 8h95q8 0 9 -6q6 -22 6 -62q0 -100 -47.5 -210.5t-117.5 -199.5q-6 -8 -14 -8h-90q-9 0 -11 7q-20 102 -71 249t-99 222q-5 8 5 8z" />
    <glyph glyph-name="xi" unicode="&#x3be;" horiz-adv-x="454" 
d="M296 721q79 0 121 -21q5 -1 5 -8l1 -81q0 -10 -8 -5q-49 22 -107 22q-60 0 -91.5 -32t-31.5 -78q0 -57 33.5 -84t90.5 -27h63q9 0 9 -10v-75q0 -9 -10 -9h-74q-62 0 -96 -31t-34 -77q0 -53 30.5 -75.5t115.5 -42.5q75 -18 104 -50.5t29 -90.5q0 -59 -42.5 -106
t-128.5 -63q-8 -2 -8 6v79q0 8 6 9q29 9 45 25t15 35q0 20 -13.5 34.5t-55.5 22.5q-120 23 -170 65t-50 132q0 61 36.5 107.5t93.5 67.5q-109 46 -109 168q0 82 61 137.5t170 55.5z" />
    <glyph glyph-name="omicron" unicode="&#x3bf;" horiz-adv-x="567" 
d="M286 496q111 0 174 -70.5t63 -180.5q0 -118 -65 -186.5t-174 -68.5q-121 0 -181 73.5t-60 179.5q0 112 66.5 182.5t176.5 70.5zM281 407q-51 0 -83 -43.5t-32 -118.5t31.5 -120.5t88.5 -45.5q50 0 82.5 41.5t32.5 121.5q0 74 -30 119.5t-90 45.5z" />
    <glyph glyph-name="pi" unicode="&#x3c0;" horiz-adv-x="569" 
d="M185 0h-100q-6 0 -5 7q19 60 21 137v248h-85q-7 0 -6 8l11 78q1 4 6 6q11 2 99 2h421q6 0 6 -7l-10 -79q0 -8 -6 -8h-72v-244q0 -84 22 -139q5 -9 -6 -9h-103q-8 0 -12 7q-22 43 -22 142v243h-128v-248q0 -89 -21 -138q-2 -6 -10 -6z" />
    <glyph glyph-name="rho" unicode="&#x3c1;" horiz-adv-x="562" 
d="M292 496q113 0 170 -70.5t57 -177.5q0 -117 -67.5 -187.5t-175.5 -70.5q-55 0 -90 24v-211q0 -9 -7 -10q-11 -1 -38 -3.5t-45.5 -4.5t-21.5 -2q-8 0 -8 9v478q0 103 61 164.5t165 61.5zM285 407q-42 0 -70.5 -30.5t-28.5 -88.5v-177q35 -32 87 -32q51 0 87 42.5t36 124.5
q0 76 -29 118.5t-82 42.5z" />
    <glyph glyph-name="uni03C2" unicode="&#x3c2;" horiz-adv-x="447" 
d="M45 241q0 110 70 182.5t184 72.5q66 0 102 -18q5 -2 5 -11v-81q0 -8 -7 -6q-44 20 -92 20q-65 0 -103.5 -42.5t-38.5 -109.5q0 -70 27 -103t102 -54q69 -21 96.5 -52.5t27.5 -85.5q0 -59 -40 -108.5t-122 -64.5q-8 -3 -8 6v85q0 7 6 8q52 17 52 59q0 38 -65 52
q-107 24 -151.5 82.5t-44.5 168.5z" />
    <glyph glyph-name="sigma" unicode="&#x3c3;" horiz-adv-x="578" 
d="M43 239q0 116 65.5 182t180.5 66q35 0 107 -0.5t102 -0.5h66q8 0 6 -6l-8 -82q0 -6 -7 -6q-84 0 -123 4q33 -23 51 -68.5t18 -96.5q0 -119 -64 -180t-160 -61q-105 0 -169.5 67t-64.5 182zM279 78q49 0 76.5 42.5t27.5 118.5q0 78 -28 121t-78 43q-55 0 -83 -45.5
t-28 -117.5q0 -74 30.5 -118t82.5 -44z" />
    <glyph glyph-name="tau" unicode="&#x3c4;" horiz-adv-x="451" 
d="M156 121v271h-138q-8 0 -6 8l9 77q1 6 7 7q22 2 68 2h335q5 0 5 -6l-7 -81q-1 -7 -7 -7h-145v-266q0 -43 41 -43q14 0 29 4q3 1 4 -0.5t1 -4.5v-69q0 -7 -6 -11q-28 -12 -70 -12q-120 0 -120 131z" />
    <glyph glyph-name="upsilon" unicode="&#x3c5;" horiz-adv-x="540" 
d="M345 486h101q6 0 10 -6q37 -78 37 -205q0 -60 -11.5 -109t-37 -89.5t-72 -63.5t-110.5 -23q-91 0 -144 48t-53 139v151q0 104 -9 151q-1 7 6 7h104q8 0 10 -6q10 -24 10 -99v-211q0 -46 23.5 -67.5t59.5 -21.5q103 0 103 192q0 116 -34 206q-1 7 7 7z" />
    <glyph glyph-name="phi" unicode="&#x3c6;" horiz-adv-x="722" 
d="M310 637h103q7 0 7 -9v-137q120 -10 189.5 -73.5t69.5 -177.5q0 -116 -71.5 -178t-187.5 -72v-189q0 -9 -8 -10q-60 -8 -103 -8q-7 0 -7 9v198q-120 9 -189.5 72t-69.5 175t72 177.5t187 76.5v137q0 9 8 9zM302 78v327q-66 -8 -101 -51.5t-35 -114.5t37 -111.5t99 -49.5z
M420 404v-326q63 6 99.5 46.5t36.5 116.5q0 73 -35.5 115t-100.5 48z" />
    <glyph glyph-name="chi" unicode="&#x3c7;" horiz-adv-x="497" 
d="M25 486h119q7 0 9 -6q4 -8 102 -243h2q15 38 104 242q3 7 11 7h102q10 0 5 -8l-162 -321l164 -340q6 -9 -3 -11q-92 -23 -107 -23q-5 0 -9 6q-31 70 -118 271h-3q-13 -36 -121 -272q-1 -5 -6 -5q-15 0 -97 22q-7 2 -4 8l168 341l-161 324q-3 8 5 8z" />
    <glyph glyph-name="psi" unicode="&#x3c8;" horiz-adv-x="717" 
d="M42 477q-3 8 7 8h100q7 0 9 -6q11 -28 22 -175q9 -119 40.5 -166t83.5 -54v519q0 7 7 7h103q8 0 8 -7v-519q55 7 84.5 53.5t39.5 167.5q9 143 20 173q4 7 12 7h91q9 0 6 -10q-6 -31 -19 -182q-13 -149 -72.5 -220.5t-161.5 -83.5v-188q0 -8 -7 -9q-81 -9 -104 -9
q-8 0 -8 8v198q-106 11 -165.5 81t-73.5 227q-11 133 -22 180z" />
    <glyph glyph-name="omega" unicode="&#x3c9;" horiz-adv-x="732" 
d="M426 353l-2 -181q0 -84 61 -84q34 0 57.5 41.5t23.5 126.5q0 62 -22 122t-54 100q-2 2 -1.5 5t4.5 3h104q7 0 12 -5q32 -32 55 -94.5t23 -134.5q0 -126 -56 -194t-140 -68q-42 0 -76.5 21t-53.5 57q-42 -78 -128 -78q-78 0 -133 63.5t-55 186.5q0 72 25 136t59 105
q5 5 11 5h98q9 0 4 -9q-32 -44 -55 -106.5t-23 -122.5q0 -83 23.5 -121.5t58.5 -38.5q28 0 43.5 23t15.5 60l-2 182q0 7 9 7h107q7 0 7 -7z" />
    <glyph glyph-name="iotadieresis" unicode="&#x3ca;" horiz-adv-x="273" 
d="M66 478q0 8 8 8h107q6 0 6 -6v-358q0 -26 9 -35t27 -9q16 0 25 4q3 1 4 -0.5t1 -4.5v-65q0 -8 -5 -9q-23 -13 -67 -13q-115 0 -115 132v356zM41 553q-27 0 -43.5 16.5t-16.5 44.5q0 27 17.5 44.5t44.5 17.5q26 0 42.5 -17t16.5 -45t-17 -44.5t-44 -16.5zM236 553
q-27 0 -43.5 16.5t-16.5 44.5q0 27 17.5 44.5t43.5 17.5q27 0 43.5 -17t16.5 -45q0 -27 -17 -44t-44 -17z" />
    <glyph glyph-name="upsilondieresis" unicode="&#x3cb;" horiz-adv-x="540" 
d="M345 486h101q6 0 10 -6q37 -78 37 -205q0 -60 -11.5 -109t-37 -89.5t-72 -63.5t-110.5 -23q-91 0 -144 48t-53 139v151q0 104 -9 151q-1 7 6 7h104q8 0 10 -6q10 -24 10 -99v-211q0 -46 23.5 -67.5t59.5 -21.5q103 0 103 192q0 116 -34 206q-1 7 7 7zM168 553
q-26 0 -43 16.5t-17 44.5q0 27 17.5 44.5t44.5 17.5q26 0 42.5 -17t16.5 -45t-17 -44.5t-44 -16.5zM363 553q-27 0 -43.5 16.5t-16.5 44.5q0 27 17.5 44.5t43.5 17.5q27 0 43 -17t16 -45t-16.5 -44.5t-43.5 -16.5z" />
    <glyph glyph-name="omicrontonos" unicode="&#x3cc;" horiz-adv-x="567" 
d="M286 496q111 0 174 -70.5t63 -180.5q0 -118 -65 -186.5t-174 -68.5q-121 0 -181 73.5t-60 179.5q0 112 66.5 182.5t176.5 70.5zM281 407q-51 0 -83 -43.5t-32 -118.5t31.5 -120.5t88.5 -45.5q50 0 82.5 41.5t32.5 121.5q0 74 -30 119.5t-90 45.5zM214 546l77 145
q4 8 11 8h115q9 0 5 -9l-100 -146q-4 -5 -13 -5h-91q-8 0 -4 7z" />
    <glyph glyph-name="upsilontonos" unicode="&#x3cd;" horiz-adv-x="540" 
d="M345 486h101q6 0 10 -6q37 -78 37 -205q0 -60 -11.5 -109t-37 -89.5t-72 -63.5t-110.5 -23q-91 0 -144 48t-53 139v151q0 104 -9 151q-1 7 6 7h104q8 0 10 -6q10 -24 10 -99v-211q0 -46 23.5 -67.5t59.5 -21.5q103 0 103 192q0 116 -34 206q-1 7 7 7zM206 546l77 145
q4 8 11 8h115q9 0 5 -9l-100 -146q-4 -5 -13 -5h-91q-8 0 -4 7z" />
    <glyph glyph-name="omegatonos" unicode="&#x3ce;" horiz-adv-x="732" 
d="M426 353l-2 -181q0 -84 61 -84q34 0 57.5 41.5t23.5 126.5q0 62 -22 122t-54 100q-2 2 -1.5 5t4.5 3h104q7 0 12 -5q32 -32 55 -94.5t23 -134.5q0 -126 -56 -194t-140 -68q-42 0 -76.5 21t-53.5 57q-42 -78 -128 -78q-78 0 -133 63.5t-55 186.5q0 72 25 136t59 105
q5 5 11 5h98q9 0 4 -9q-32 -44 -55 -106.5t-23 -122.5q0 -83 23.5 -121.5t58.5 -38.5q28 0 43.5 23t15.5 60l-2 182q0 7 9 7h107q7 0 7 -7zM314 546l77 145q4 8 11 8h115q9 0 5 -9l-100 -146q-4 -5 -13 -5h-91q-8 0 -4 7z" />
    <glyph glyph-name="uni03D1" unicode="&#x3d1;" horiz-adv-x="546" 
d="M35 252h111q7 0 8 -5q11 -39 17 -59.5t16 -45t20.5 -36t25.5 -19.5t35 -8q94 0 107 206q-40 -7 -74 -7q-128 0 -191 62t-63 162q0 91 58.5 153.5t153.5 62.5q109 0 173.5 -88.5t64.5 -259.5q0 -172 -61.5 -276t-178.5 -104q-30 0 -55.5 7.5t-44 17t-35.5 31t-27.5 37.5
t-23.5 49t-19.5 52t-19.5 61q-2 7 3 7zM378 373q1 118 -28 187.5t-92 69.5q-45 0 -70.5 -32.5t-25.5 -85.5q0 -64 38.5 -104.5t119.5 -40.5q30 0 58 6z" />
    <glyph glyph-name="uni03D7" unicode="&#x3d7;" horiz-adv-x="580" 
d="M352 266q81 -22 130 -76t49 -142q0 -119 -84 -188.5t-229 -69.5q-139 0 -211 52q-5 3 -5 11v103q0 8 9 5q91 -62 205 -62q94 0 140 40t46 106q0 74 -55.5 110.5t-141.5 38.5v-186q0 -8 -8 -8h-106q-7 0 -7 9v365q0 59 -10 104q-3 8 7 8h104q8 0 10 -7q10 -32 10 -107v-85
q10 0 49 -3l123 198q3 4 10 4h119q9 0 4 -9z" />
    <glyph glyph-name="uni03D9" unicode="&#x3d9;" horiz-adv-x="566" 
d="M288 496q110 0 172.5 -71t62.5 -182q0 -103 -50.5 -167t-125.5 -76v-198q0 -8 -10 -9q-96 -9 -101 -10q-10 0 -10 9v205q-88 14 -135.5 83t-47.5 160q0 114 66.5 185t178.5 71zM282 407q-53 0 -84.5 -43t-31.5 -119q0 -73 30.5 -119.5t88.5 -46.5q51 0 83.5 41t32.5 122
q0 74 -30.5 119.5t-88.5 45.5z" />
    <glyph glyph-name="uni03DB" unicode="&#x3db;" horiz-adv-x="458" 
d="M375 -193h-91q-11 0 -5 10q41 69 41 119q0 20 -11.5 32.5t-43.5 18.5q-114 22 -167 82t-53 170q0 208 235 251q29 5 38.5 13t9.5 27q0 28 -11 75q-3 8 6 8l85 -1q7 0 10 -8q16 -37 16 -107q0 -54 -25.5 -73.5t-93.5 -30.5q-82 -13 -116 -48t-34 -97q0 -73 31.5 -107
t115.5 -53q70 -17 95.5 -44.5t25.5 -78.5q0 -90 -46 -151q-6 -7 -12 -7z" />
    <glyph glyph-name="uni03DD" unicode="&#x3dd;" horiz-adv-x="448" 
d="M186 90v-288q0 -7 -7 -8q-100 -11 -107 -11q-6 0 -6 7v689q0 7 7 7h333q6 0 7 -6l9 -82q1 -6 -6 -6h-230v-209h205q6 0 6 -6v-81q0 -6 -7 -6h-204z" />
    <glyph glyph-name="uni03E1" unicode="&#x3e1;" horiz-adv-x="549" 
d="M92 547v104q0 6 6 4q129 -54 223.5 -163.5t140 -241.5t45.5 -272q0 -60 -3 -85q-1 -6 -7 -6h-86q-5 0 -5 6q6 138 -21 244l-213 -118q-6 -2 -7 3l-40 75q-1 4 3 7l229 123q-24 62 -57 109l-226 -117q-6 -3 -8 1l-39 80q-2 5 3 7l218 110q-57 77 -152 122q-4 2 -4 8z" />
    <glyph glyph-name="uni0400" unicode="&#x400;" horiz-adv-x="538" 
d="M505 89l-14 -81q-1 -8 -10 -8h-397q-8 0 -8 9v635q0 8 8 8h385q8 0 9 -6l10 -82q2 -9 -6 -9h-285v-173h257q7 0 7 -7v-84q0 -7 -8 -7h-256v-187h302q7 0 6 -8zM245 825l107 -114q6 -9 -4 -9h-98q-9 0 -15 6l-128 114q-3 3 -2 5.5t6 2.5h122q9 0 12 -5z" />
    <glyph glyph-name="uni0401" unicode="&#x401;" horiz-adv-x="538" 
d="M505 89l-14 -81q-1 -8 -10 -8h-397q-8 0 -8 9v635q0 8 8 8h385q8 0 9 -6l10 -82q2 -9 -6 -9h-285v-173h257q7 0 7 -7v-84q0 -7 -8 -7h-256v-187h302q7 0 6 -8zM171 705q-29 0 -46.5 16t-17.5 43q0 26 18.5 43t47.5 17t46.5 -17t17.5 -43q0 -27 -18.5 -43t-47.5 -16z
M379 705q-28 0 -46 16t-18 43q0 26 19 43t47 17t46 -17t18 -43q0 -27 -18 -43t-48 -16z" />
    <glyph glyph-name="uni0402" unicode="&#x402;" horiz-adv-x="686" 
d="M304 303v-295q0 -7 -8 -8h-105q-8 0 -8 8v548h-172q-6 0 -5 7l13 84q1 5 8 5h511q6 0 7 -6l11 -83q0 -7 -7 -7h-245l1 -160q54 23 124 23q94 0 155.5 -63.5t61.5 -173.5q0 -69 -23 -124t-62.5 -88.5t-83 -53.5t-91.5 -27q-9 -1 -9 8v90q0 6 7 8q139 33 139 182
q0 67 -36 106.5t-94 39.5q-52 0 -89 -20z" />
    <glyph glyph-name="uni0403" unicode="&#x403;" horiz-adv-x="499" 
d="M76 646q0 6 6 6h383q6 0 7 -5l10 -84q1 -8 -7 -8h-278v-547q0 -8 -8 -8h-106q-7 0 -7 8v638zM201 709l107 116q4 4 12 4h119q8 0 4 -8l-125 -113q-6 -7 -14 -7h-99q-4 0 -5 3t1 5z" />
    <glyph glyph-name="uni0404" unicode="&#x404;" horiz-adv-x="592" 
d="M482 284h-300q6 -98 70.5 -146t153.5 -48q84 0 143 24q5 1 5 -4v-83q0 -7 -5 -9q-58 -28 -160 -28q-66 0 -124 18.5t-106.5 56.5t-77 104t-28.5 154q0 147 93 243t252 96q103 0 149 -26q4 -4 4 -9v-85q0 -9 -7 -6q-63 28 -144 28q-95 0 -153.5 -50t-65.5 -133h297
q9 0 9 -8v-80v-4q1 -3 0 -4t-5 -1z" />
    <glyph glyph-name="uni0405" unicode="&#x405;" horiz-adv-x="510" 
d="M237 -10q-123 0 -197 51q-7 5 -7 15v95q0 4 2.5 5.5t5.5 -0.5q92 -65 201 -65q55 0 81 21t26 53q0 33 -24.5 54.5t-103.5 55.5q-103 44 -143 88.5t-40 115.5q0 77 61 130t169 53q101 0 164 -36q6 -5 6 -12v-91q0 -9 -9 -4q-76 46 -163 46q-60 0 -84 -23.5t-24 -51.5
q0 -29 24 -52t95 -53q114 -47 154.5 -93.5t40.5 -114.5q0 -86 -63 -136.5t-172 -50.5z" />
    <glyph glyph-name="uni0406" unicode="&#x406;" horiz-adv-x="273" 
d="M197 645v-636q0 -9 -9 -9h-104q-8 0 -8 9v636q0 7 8 7h105q8 0 8 -7z" />
    <glyph glyph-name="uni0407" unicode="&#x407;" horiz-adv-x="273" 
d="M197 645v-636q0 -9 -9 -9h-104q-8 0 -8 9v636q0 7 8 7h105q8 0 8 -7zM31 704q-29 0 -46.5 16t-17.5 43q0 26 19 43t48 17q28 0 45.5 -17t17.5 -43q0 -27 -18.5 -43t-47.5 -16zM239 704q-28 0 -46 16t-18 43q0 26 19 43t47 17t46 -17t18 -43q0 -28 -18 -43.5t-48 -15.5z
" />
    <glyph glyph-name="uni0408" unicode="&#x408;" horiz-adv-x="390" 
d="M193 162v483q0 7 8 7h106q7 0 7 -6v-486q0 -220 -200 -220q-69 0 -109 20q-6 4 -6 12v88q0 9 8 6q47 -22 94 -22q48 0 70 26t22 92z" />
    <glyph glyph-name="uni0409" unicode="&#x409;" horiz-adv-x="921" 
d="M506 349l94 -259q7 -1 25 -1q54 0 92.5 31.5t38.5 97.5q0 63 -41 98t-122 35q-55 0 -87 -2zM604 445q132 0 204 -57.5t72 -166.5q0 -111 -78.5 -168t-200.5 -57q-55 0 -88 3q-7 1 -10 11q-124 352 -179 540h-2q-5 -22 -18 -66.5t-33.5 -107.5t-38.5 -119t-43.5 -133
t-38.5 -117q-3 -7 -11 -7h-105q-9 0 -6 8l210 583q5 15 10 53q0 8 7 8h135q7 0 9 -6l74 -204q60 3 131 3z" />
    <glyph glyph-name="uni040A" unicode="&#x40a;" horiz-adv-x="962" 
d="M76 645q0 7 6 7h107q8 0 8 -6v-237h253v236q0 7 7 7h108q6 0 6 -6v-236l100 -1q110 0 178 -48.5t68 -149.5q0 -111 -78.5 -162.5t-209.5 -51.5q-115 0 -173 4q-6 0 -6 7v303h-253v-303q0 -8 -8 -8h-106q-7 0 -7 7v638zM571 311v-220q26 -2 77 -2q144 0 144 112
q0 110 -139 110h-82z" />
    <glyph glyph-name="uni040B" unicode="&#x40b;" horiz-adv-x="688" 
d="M303 299v-293q0 -6 -6 -6h-109q-6 0 -6 6v550h-171q-6 0 -5 7l13 83q1 6 8 6h504q6 0 7 -4l11 -86q1 -6 -6 -6h-240v-168q65 31 142 31q35 0 66.5 -9.5t59 -30t44 -59t16.5 -90.5v-223q0 -7 -7 -7h-106q-8 0 -8 8v214q0 51 -29 77t-75 26q-54 0 -103 -26z" />
    <glyph glyph-name="uni040C" unicode="&#x40c;" horiz-adv-x="616" 
d="M76 646q0 6 6 6h108q7 0 7 -6v-268h69q20 35 87 134.5t90 135.5q3 4 8 4h125q7 0 3 -6q-37 -55 -111 -152t-115 -146q29 -16 82 -92q24 -40 91.5 -136.5t76.5 -111.5q4 -8 -5 -8h-124q-6 0 -10 5q-21 27 -74 112.5t-64 101.5q-29 40 -43 51.5t-29 10.5h-57v-274
q0 -7 -7 -7h-107q-7 0 -7 8v638zM243 704l107 116q4 4 12 4h119q4 0 4.5 -3t-1.5 -5l-124 -113q-7 -7 -14 -7h-99q-4 0 -5 3t1 5z" />
    <glyph glyph-name="uni040D" unicode="&#x40d;" horiz-adv-x="680" 
d="M82 652h102q6 0 6 -6v-217q0 -219 -5 -289h2q45 91 119 222l170 286q2 4 9 4h112q6 0 6 -6v-639q0 -7 -6 -7h-100q-9 0 -9 8v215q0 172 8 279h-1q-34 -81 -121 -234l-156 -262q-3 -6 -11 -6h-123q-8 0 -8 9v636q0 7 6 7zM309 816l106 -114q5 -8 -4 -8h-98q-9 0 -14 5
l-129 114q-2 3 -1 6t5 3h122q8 0 13 -6z" />
    <glyph glyph-name="uni040E" unicode="&#x40e;" horiz-adv-x="580" 
d="M13 652h124q7 0 9 -4q146 -323 165 -376q63 144 130 374q1 6 8 6h114q7 0 5 -7q-62 -198 -142 -367q-51 -107 -104 -181t-90 -108q-9 -7 -17 -7h-122q-4 0 -6 4t1 5q36 31 80.5 81.5t68.5 92.5q5 8 1 17l-229 463q-3 7 4 7zM149 834h75q6 0 8 -6q14 -57 66 -57
q56 0 68 57q2 6 7 6h76q7 0 7 -9q-8 -61 -52 -97t-106 -36q-64 0 -107 34t-49 100q0 8 7 8z" />
    <glyph glyph-name="uni040F" unicode="&#x40f;" horiz-adv-x="680" 
d="M280 0h-196q-8 0 -8 7v638q0 7 8 7h104q9 0 9 -7v-548h286v547q0 8 8 8h107q6 0 6 -7v-637q0 -8 -8 -8h-199l-3 -171q0 -7 -7 -7h-95q-8 0 -8 8z" />
    <glyph glyph-name="uni0410" unicode="&#x410;" horiz-adv-x="658" 
d="M438 182h-229l-61 -174q-1 -8 -10 -8h-102q-10 0 -7 10q123 349 209 581q6 20 8 55q0 6 6 6h138q6 0 8 -5q190 -525 231 -638q3 -9 -6 -9h-112q-6 0 -9 6zM235 280h176q-9 30 -43.5 132.5t-45.5 139.5h-1q-7 -30 -20.5 -73t-35 -108t-30.5 -91z" />
    <glyph glyph-name="uni0411" unicode="&#x411;" horiz-adv-x="592" 
d="M194 312v-216q24 -3 80 -3q67 0 108 26.5t41 84.5q0 109 -145 109q-69 0 -84 -1zM194 555v-147q34 2 106 2q117 0 184 -49.5t67 -150.5q0 -57 -25 -100t-69 -66.5t-96.5 -35t-115.5 -11.5q-59 0 -163 4q-6 0 -6 8v637q0 6 6 6h390q7 0 8 -5l10 -84q1 -8 -6 -8h-290z" />
    <glyph glyph-name="uni0412" unicode="&#x412;" horiz-adv-x="592" 
d="M76 8v635q0 8 6 9q78 2 198 2q244 0 244 -170q0 -52 -27 -89t-72 -53v-2q52 -14 89 -53t37 -102q0 -93 -75 -140t-209 -47q-75 -1 -184 2q-7 1 -7 8zM194 287v-192q1 0 27.5 -1t52.5 -1q152 0 152 98q0 96 -138 96h-94zM194 557v-173h94q118 0 118 88q0 46 -31.5 66.5
t-95.5 20.5q-63 0 -85 -2z" />
    <glyph glyph-name="uni0413" unicode="&#x413;" horiz-adv-x="499" 
d="M76 646q0 6 6 6h383q6 0 7 -5l10 -84q1 -8 -7 -8h-278v-547q0 -8 -8 -8h-106q-7 0 -7 8v638z" />
    <glyph glyph-name="uni0414" unicode="&#x414;" horiz-adv-x="676" 
d="M669 86l-11 -256q-1 -6 -7 -6h-95q-8 0 -8 7l-5 169h-406l-8 -170q0 -6 -7 -6h-94q-7 0 -8 7l-4 256q0 4 5 6l59 4l172 504q3 11 8 47q0 4 6 4h114q6 0 7 -4l197 -551l80 -4q5 0 5 -7zM197 97h254q-121 377 -129 413q-11 -62 -125 -413z" />
    <glyph glyph-name="uni0415" unicode="&#x415;" horiz-adv-x="538" 
d="M505 89l-14 -81q-1 -8 -10 -8h-397q-8 0 -8 9v635q0 8 8 8h385q8 0 9 -6l10 -82q2 -9 -6 -9h-285v-173h257q7 0 7 -7v-84q0 -7 -8 -7h-256v-187h302q7 0 6 -8z" />
    <glyph glyph-name="uni0416" unicode="&#x416;" horiz-adv-x="860" 
d="M39 652h125q7 0 9 -6q26 -44 75.5 -133.5t74.5 -132.5h48v265q0 7 9 7h101q10 0 10 -7v-265h47q21 36 73.5 134t73.5 131q4 7 10 7h123q9 0 4 -9q-138 -216 -199 -293q30 -15 66 -72q28 -42 85 -139.5t73 -129.5q5 -9 -5 -9h-123q-7 0 -10 6q-12 19 -56 106t-59 110
q-22 34 -36 48t-30 14h-37v-275q0 -9 -7 -9h-105q-8 0 -8 9v275h-37q-34 -1 -69 -58q-4 -8 -49 -95t-68 -124q-4 -7 -12 -7h-118q-10 0 -6 8q16 28 76.5 129t82.5 138q37 57 68 76q-32 39 -107.5 150t-97.5 142q-5 9 5 9z" />
    <glyph glyph-name="uni0417" unicode="&#x417;" horiz-adv-x="531" 
d="M46 520v88q0 6 6 10q77 41 187 41q109 0 168 -47.5t59 -124.5q0 -58 -29.5 -94.5t-76.5 -52.5v-2q57 -15 93 -53.5t36 -100.5q0 -95 -74.5 -145t-180.5 -50q-122 0 -193 42q-6 3 -6 12v102q0 9 8 3q84 -54 184 -54q65 0 101 26t36 71q0 95 -137 95h-95q-8 0 -8 7v79
q0 7 7 7h94q63 0 92.5 21t29.5 66q0 41 -32.5 65.5t-95.5 24.5q-94 0 -166 -41q-7 -5 -7 5z" />
    <glyph glyph-name="uni0418" unicode="&#x418;" horiz-adv-x="680" 
d="M82 652h102q6 0 6 -6v-217q0 -219 -5 -289h2q45 91 119 222l170 286q2 4 9 4h112q6 0 6 -6v-639q0 -7 -6 -7h-100q-9 0 -9 8v215q0 172 8 279h-1q-34 -81 -121 -234l-156 -262q-3 -6 -11 -6h-123q-8 0 -8 9v636q0 7 6 7z" />
    <glyph glyph-name="uni0419" unicode="&#x419;" horiz-adv-x="680" 
d="M82 652h102q6 0 6 -6v-217q0 -219 -5 -289h2q45 91 119 222l170 286q2 4 9 4h112q6 0 6 -6v-639q0 -7 -6 -7h-100q-9 0 -9 8v215q0 172 8 279h-1q-34 -81 -121 -234l-156 -262q-3 -6 -11 -6h-123q-8 0 -8 9v636q0 7 6 7zM191 831h76q6 0 8 -6q14 -58 66 -58q56 0 68 57
q2 7 7 7h75q10 0 7 -9q-8 -62 -52 -98t-105 -36q-64 0 -107 34t-49 100q-2 9 6 9z" />
    <glyph glyph-name="uni041A" unicode="&#x41a;" horiz-adv-x="616" 
d="M76 646q0 6 6 6h108q7 0 7 -6v-268h69q20 35 87 134.5t90 135.5q3 4 8 4h125q7 0 3 -6q-37 -55 -111 -152t-115 -146q29 -16 82 -92q24 -40 91.5 -136.5t76.5 -111.5q4 -8 -5 -8h-124q-6 0 -10 5q-21 27 -74 112.5t-64 101.5q-29 40 -43 51.5t-29 10.5h-57v-274
q0 -7 -7 -7h-107q-7 0 -7 8v638z" />
    <glyph glyph-name="uni041B" unicode="&#x41b;" horiz-adv-x="655" 
d="M138 0h-104q-9 0 -6 8q22 61 97 271.5t111 310.5q6 17 10 56q2 6 8 6h134q6 0 10 -7q40 -108 117 -324t112 -312q3 -9 -6 -9h-108q-8 0 -11 8q-17 48 -94.5 281t-86.5 261h-1q-4 -21 -17 -65.5t-33.5 -108.5t-39 -119.5t-44 -133t-37.5 -115.5q-3 -8 -11 -8z" />
    <glyph glyph-name="uni041C" unicode="&#x41c;" horiz-adv-x="878" 
d="M130 647q1 5 8 5h157q8 0 9 -6q111 -356 137 -475h1q8 34 35.5 126t61 202.5t44.5 146.5q1 6 8 6h151q6 0 7 -5l67 -639q1 -8 -7 -8h-117q-7 0 -8 7q-34 488 -35 554h-1q-12 -51 -72.5 -261.5t-82.5 -292.5q-3 -7 -10 -7h-95q-9 0 -11 7q-122 429 -152 556h-2
q-3 -106 -46 -556q-1 -7 -8 -7h-100q-9 0 -8 8z" />
    <glyph glyph-name="uni041D" unicode="&#x41d;" horiz-adv-x="679" 
d="M596 0h-106q-8 0 -8 8v276h-285v-275q0 -9 -9 -9h-103q-9 0 -9 9v635q0 8 8 8h104q9 0 9 -7v-263h285v263q0 7 8 7h107q6 0 6 -7v-637q0 -8 -7 -8z" />
    <glyph glyph-name="uni041E" unicode="&#x41e;" horiz-adv-x="724" 
d="M363 663q139 0 223 -95t85 -238q0 -158 -85.5 -249t-223.5 -91q-143 0 -226.5 91.5t-83.5 246.5q0 150 86.5 242.5t224.5 92.5zM177 327q0 -106 50.5 -171t138.5 -65q85 0 133 63t48 173q0 106 -50.5 171t-135.5 65q-82 0 -133 -62.5t-51 -173.5z" />
    <glyph glyph-name="uni041F" unicode="&#x41f;" horiz-adv-x="680" 
d="M596 0h-104q-9 0 -9 8v547h-285v-547q0 -8 -9 -8h-104q-9 0 -9 8v636q0 8 9 8h511q8 0 8 -7v-637q0 -8 -8 -8z" />
    <glyph glyph-name="uni0420" unicode="&#x420;" horiz-adv-x="575" 
d="M76 7v638q0 7 6 7q76 2 189 2q138 0 201 -60.5t64 -156.5q0 -113 -79.5 -170.5t-198.5 -57.5h-62v-201q0 -8 -7 -8h-106q-7 0 -7 7zM196 557v-251q16 -2 65 -2q67 0 111 31t44 100q0 60 -37.5 92t-107.5 32q-59 0 -75 -2z" />
    <glyph glyph-name="uni0421" unicode="&#x421;" horiz-adv-x="601" 
d="M53 325q0 145 97.5 241.5t255.5 96.5q95 0 139 -22q5 -3 5 -10v-91q0 -8 -7 -6q-59 25 -134 25q-104 0 -168 -62t-64 -169q0 -64 21.5 -111.5t56.5 -72t72.5 -35.5t78.5 -11q79 0 144 27q7 3 7 -6v-87q0 -10 -7 -12q-58 -30 -165 -30q-66 0 -124 19.5t-105.5 58t-75 105
t-27.5 152.5z" />
    <glyph glyph-name="uni0422" unicode="&#x422;" horiz-adv-x="557" 
d="M213 9v546h-201q-8 0 -6 9l13 81q1 7 9 7h504q8 0 9 -8l9 -79q1 -10 -7 -10h-209v-546q0 -9 -8 -9h-103q-10 -1 -10 9z" />
    <glyph glyph-name="uni0423" unicode="&#x423;" horiz-adv-x="580" 
d="M13 652h124q7 0 9 -4q146 -323 165 -376q63 144 130 374q1 6 8 6h114q7 0 5 -7q-62 -198 -142 -367q-51 -107 -104 -181t-90 -108q-9 -7 -17 -7h-122q-4 0 -6 4t1 5q36 31 80.5 81.5t68.5 92.5q5 8 1 17l-229 463q-3 7 4 7z" />
    <glyph glyph-name="uni0424" unicode="&#x424;" horiz-adv-x="760" 
d="M328 678h103q6 0 6 -6v-65q116 -8 193 -75.5t77 -202.5q0 -71 -22 -124.5t-61 -85t-85 -48.5t-102 -23v-67q0 -7 -7 -7h-102q-7 0 -7 7v67q-56 6 -102.5 22.5t-85 48t-60 84t-21.5 121.5q0 72 24 126.5t64.5 86.5t85.5 49t95 21v65q0 6 7 6zM321 144v371
q-59 -6 -101.5 -49t-42.5 -137q0 -91 40.5 -134.5t103.5 -50.5zM437 515v-371q146 12 146 185t-146 186z" />
    <glyph glyph-name="uni0425" unicode="&#x425;" horiz-adv-x="611" 
d="M579 641l-194 -306l208 -325q6 -8 -4 -10h-123q-11 0 -15 8l-152 250h-1l-147 -250q-5 -8 -13 -8h-117q-5 0 -6 3.5t2 6.5l205 318l-197 316q-5 8 4 8h122q10 0 13 -7l144 -247h1l142 247q4 7 13 7h110q10 0 5 -11z" />
    <glyph glyph-name="uni0426" unicode="&#x426;" horiz-adv-x="684" 
d="M556 0h-472q-8 0 -8 9v637q0 6 6 6h109q6 0 6 -5v-550h285v549q0 6 8 6h107q6 0 6 -5v-551l74 -3q5 -1 5 -6l-17 -256q0 -7 -7 -7h-91q-8 0 -8 7z" />
    <glyph glyph-name="uni0427" unicode="&#x427;" horiz-adv-x="617" 
d="M63 652h108q7 0 7 -6v-185q0 -118 129 -118q63 0 112 22v280q0 7 7 7h108q7 0 7 -6v-638q0 -8 -7 -8h-107q-8 0 -8 9v266q-68 -29 -150 -29q-42 0 -77 9.5t-67 31.5t-50 63.5t-18 99.5v196q0 6 6 6z" />
    <glyph glyph-name="uni0428" unicode="&#x428;" horiz-adv-x="905" 
d="M76 647q0 5 6 5h108q7 0 7 -7v-548h195v548q0 7 7 7h107q7 0 7 -6v-549h195v549q0 6 7 6h108q5 0 5 -6v-639q0 -7 -7 -7h-737q-8 0 -8 8v639z" />
    </font>
</defs>
</svg>
